<?xml version="1.0" encoding="UTF-8"?>
<svg width="100px" height="100px" viewBox="0 0 100 100" version="1.1" xmlns="http://www.w3.org/2000/svg" xmlns:xlink="http://www.w3.org/1999/xlink">
    <!-- Generator: Sketch 53.2 (72643) - https://sketchapp.com -->
    <title>Group 36</title>
    <desc>Created with Sketch.</desc>
    <defs>
        <polygon id="path-1" points="0.0004 0.2612 99.7394 0.2612 99.7394 100 0.0004 100"></polygon>
        <path d="M3.595,0.281 C2.063,0.281 0.82,1.524 0.82,3.057 L0.82,3.057 L0.82,70.568 C0.82,72.101 2.063,73.344 3.595,73.344 L3.595,73.344 L38.803,73.344 C40.337,73.344 41.58,72.101 41.58,70.568 L41.58,70.568 L41.58,3.057 C41.58,1.524 40.337,0.281 38.803,0.281 L38.803,0.281 L3.595,0.281 Z" id="path-3"></path>
        <path d="M0.896,14.056 C0.896,21.535 6.958,27.598 14.437,27.598 L14.437,27.598 C21.915,27.598 27.978,21.535 27.978,14.056 L27.978,14.056 C27.978,6.577 21.915,0.515 14.437,0.515 L14.437,0.515 C6.958,0.515 0.896,6.577 0.896,14.056 L0.896,14.056 Z" id="path-5"></path>
    </defs>
    <g id="Page-1" stroke="none" stroke-width="1" fill="none" fill-rule="evenodd">
        <g id="pricing-page-v3" transform="translate(-518.000000, -393.000000)">
            <g id="plans-cards" transform="translate(170.000000, 341.000000)">
                <g id="t&amp;a" transform="translate(269.000000, 28.000000)">
                    <g id="Group-36" transform="translate(79.000000, 23.000000)">
                        <g id="Group-3" transform="translate(0.000000, 0.739000)">
                            <mask id="mask-2" fill="white">
                                <use xlink:href="#path-1"></use>
                            </mask>
                            <g id="Clip-2"></g>
                            <path d="M99.7394,50.1302 C99.7394,77.6722 77.4114,100.0002 49.8694,100.0002 C22.3274,100.0002 0.0004,77.6722 0.0004,50.1302 C0.0004,22.5882 22.3274,0.2612 49.8694,0.2612 C77.4114,0.2612 99.7394,22.5882 99.7394,50.1302" id="Fill-1" fill="#BEE1F7" mask="url(#mask-2)"></path>
                        </g>
                        <g id="Group-10" transform="translate(28.000000, 11.739000)">
                            <mask id="mask-4" fill="white">
                                <use xlink:href="#path-3"></use>
                            </mask>
                            <g id="Clip-5"></g>
                            <polygon id="Fill-4" fill="#FFFFFF" mask="url(#mask-4)" points="-2.718 78.333 44.193 78.333 44.193 -3.286 -2.718 -3.286"></polygon>
                            <path d="M34.8595,39.5228 L7.6035,39.5228 C6.9745,39.5228 6.4635,39.0128 6.4635,38.3838 C6.4635,37.7538 6.9745,37.2448 7.6035,37.2448 L34.8595,37.2448 C35.4885,37.2448 35.9995,37.7538 35.9995,38.3838 C35.9995,39.0128 35.4885,39.5228 34.8595,39.5228" id="Fill-6" fill="#C8E6F8" mask="url(#mask-4)"></path>
                            <path d="M29.674,44.1068 L13.018,44.1068 C12.389,44.1068 11.878,43.5968 11.878,42.9678 C11.878,42.3378 12.389,41.8288 13.018,41.8288 L29.674,41.8288 C30.303,41.8288 30.814,42.3378 30.814,42.9678 C30.814,43.5968 30.303,44.1068 29.674,44.1068" id="Fill-7" fill="#C8E6F8" mask="url(#mask-4)"></path>
                            <path d="M34.3663,56.8773 L8.0963,56.8773 C6.8613,56.8773 5.8593,55.8753 5.8593,54.6403 L5.8593,50.8023 C5.8593,49.5663 6.8613,48.5643 8.0963,48.5643 L34.3663,48.5643 C35.6013,48.5643 36.6033,49.5663 36.6033,50.8023 L36.6033,54.6403 C36.6033,55.8753 35.6013,56.8773 34.3663,56.8773" id="Fill-8" fill="#259BE4" mask="url(#mask-4)"></path>
                            <path d="M34.3663,68.1097 L8.0963,68.1097 C6.8613,68.1097 5.8593,67.1077 5.8593,65.8717 L5.8593,62.0347 C5.8593,60.7977 6.8613,59.7967 8.0963,59.7967 L34.3663,59.7967 C35.6013,59.7967 36.6033,60.7977 36.6033,62.0347 L36.6033,65.8717 C36.6033,67.1077 35.6013,68.1097 34.3663,68.1097" id="Fill-9" fill="#78DDC9" mask="url(#mask-4)"></path>
                        </g>
                        <g id="Group-20" transform="translate(35.000000, 17.739000)">
                            <mask id="mask-6" fill="white">
                                <use xlink:href="#path-5"></use>
                            </mask>
                            <g id="Clip-12"></g>
                            <polygon id="Fill-11" fill="#259BE4" mask="url(#mask-6)" points="0.361 29.475 29.031 29.475 29.031 -0.626 0.361 -0.626"></polygon>
                            <path d="M7.9074,11.347 C7.9074,11.347 8.3624,15.902 7.6034,17.422 C6.5084,19.62 5.1934,21.64 5.1934,24.085 C5.1934,27.8 22.5634,25.082 22.5634,25.082 C22.5634,25.082 23.3014,25.821 21.7854,21.148 C20.2684,16.476 20.7784,11.576 20.7784,11.576 L7.9074,11.347 Z" id="Fill-13" fill="#0D578C" mask="url(#mask-6)"></path>
                            <path d="M5.5128,24.8617 C5.5128,24.8617 9.3948,23.0297 14.4368,23.0297 C19.4798,23.0297 23.4448,25.2737 23.4448,25.2737 C23.4448,25.2737 21.2698,27.6327 14.5508,27.8247 C8.1348,28.0087 5.5128,24.8617 5.5128,24.8617" id="Fill-14" fill="#BEE1F7" mask="url(#mask-6)"></path>
                            <polygon id="Fill-15" fill="#FFB682" mask="url(#mask-6)" points="16.4259 16.4662 12.4459 16.4662 11.6799 24.3562 17.1929 24.3562"></polygon>
                            <path d="M16.4259,16.4662 L12.4459,16.4662 L12.0389,20.6502 C12.0719,20.6832 12.1049,20.7172 12.1379,20.7492 C12.8239,21.4082 13.5969,21.8092 14.4369,21.8092 C15.2769,21.8092 16.0489,21.4082 16.7359,20.7492 C16.7689,20.7172 16.7999,20.6842 16.8319,20.6522 L16.4259,16.4662 Z" id="Fill-16" fill="#EB9B78" mask="url(#mask-6)"></path>
                            <path d="M20.5841,11.0082 C20.5841,13.6862 19.3271,17.3132 17.0161,19.1902 C16.2451,19.8162 15.3791,20.1962 14.4371,20.1962 C13.4951,20.1962 12.6281,19.8162 11.8571,19.1902 C9.5461,17.3132 8.2901,13.6862 8.2901,11.0082 C8.2901,7.4382 10.6691,4.5432 14.4371,4.5432 C18.2041,4.5432 20.5841,7.4382 20.5841,11.0082" id="Fill-17" fill="#FFB682" mask="url(#mask-6)"></path>
                            <path d="M14.1515,3.7308 C7.8905,3.8428 7.9075,11.3468 7.9075,11.3468 C7.9075,11.3468 8.0955,14.5628 7.6035,17.4218 C7.9545,16.9658 10.2685,20.2338 10.1035,18.6068 C9.6535,14.1388 10.2265,11.7958 11.0845,11.2838 C11.0845,11.2838 15.0255,10.9448 18.1655,8.6568 C19.4495,11.4278 18.9225,18.0018 18.9165,19.3248 C18.9165,19.3248 20.5235,13.4018 20.7785,11.5758 C20.7785,11.5758 21.2315,3.6028 14.1515,3.7308" id="Fill-18" fill="#0D578C" mask="url(#mask-6)"></path>
                            <path d="M18.3214,23.9828 C18.3214,24.4238 16.5324,26.6678 14.3254,26.6678 C12.1184,26.6678 10.3294,24.4238 10.3294,23.9828 C10.3294,23.5418 12.1184,23.1828 14.3254,23.1828 C16.5324,23.1828 18.3214,23.5418 18.3214,23.9828" id="Fill-19" fill="#FFB682" mask="url(#mask-6)"></path>
                        </g>
                        <g id="Group-35" transform="translate(51.000000, 5.739000)">
                            <path d="M48.7658,70.3265 C48.7658,83.7265 37.9028,94.5905 24.5018,94.5905 C11.1018,94.5905 0.2388,83.7265 0.2388,70.3265 C0.2388,56.9265 11.1018,46.0625 24.5018,46.0625 C37.9028,46.0625 48.7658,56.9265 48.7658,70.3265" id="Fill-21" fill="#259BE4"></path>
                            <path d="M46.1984,70.3265 C46.1984,82.3085 36.4844,92.0225 24.5024,92.0225 C12.5194,92.0225 2.8054,82.3085 2.8054,70.3265 C2.8054,58.3445 12.5194,48.6305 24.5024,48.6305 C36.4844,48.6305 46.1984,58.3445 46.1984,70.3265" id="Fill-23" fill="#FFFFFF"></path>
                            <path d="M22.5431,71.015 C22.9241,72.096 24.1081,72.664 25.1901,72.285 C26.2721,71.905 26.8411,70.719 26.4601,69.638 C26.0801,68.556 24.8951,67.988 23.8141,68.368 C22.7311,68.748 22.1631,69.933 22.5431,71.015" id="Fill-25" fill="#259BE4"></path>
                            <path d="M30.1544,87.1742 C29.8374,87.1742 29.5404,86.9762 29.4284,86.6602 L23.7774,70.5812 C23.6364,70.1812 23.8464,69.7422 24.2474,69.6022 C24.6484,69.4612 25.0864,69.6712 25.2264,70.0712 L30.8794,86.1512 C31.0194,86.5512 30.8094,86.9892 30.4094,87.1302 C30.3244,87.1592 30.2384,87.1742 30.1544,87.1742" id="Fill-27" fill="#259BE4"></path>
                            <path d="M14.8429,74.4906 C14.5259,74.4906 14.2299,74.2926 14.1179,73.9766 C13.9779,73.5766 14.1879,73.1376 14.5879,72.9966 L24.2469,69.6016 C24.6489,69.4616 25.0859,69.6716 25.2269,70.0716 C25.3669,70.4716 25.1569,70.9106 24.7569,71.0516 L15.0979,74.4466 C15.0129,74.4756 14.9279,74.4906 14.8429,74.4906" id="Fill-29" fill="#259BE4"></path>
                            <path d="M24.4181,8.0814 C24.4181,12.4564 20.8711,16.0044 16.4951,16.0044 C12.1201,16.0044 8.5721,12.4564 8.5721,8.0814 C8.5721,3.7054 12.1201,0.1574 16.4951,0.1574 C20.8711,0.1574 24.4181,3.7054 24.4181,8.0814" id="Fill-31" fill="#3CC5AB"></path>
                            <path d="M13.6437,11.9486 L11.9807,10.2856 C11.5727,9.8776 11.5727,9.2156 11.9807,8.8056 C12.3887,8.3976 13.0517,8.3976 13.4597,8.8056 L14.4907,9.8376 L19.5317,4.7966 C19.9397,4.3876 20.6017,4.3876 21.0097,4.7966 C21.4187,5.2046 21.4187,5.8666 21.0097,6.2756 L15.3367,11.9486 C14.8697,12.4166 14.1117,12.4166 13.6437,11.9486" id="Fill-33" fill="#FFFFFF"></path>
                        </g>
                    </g>
                </g>
            </g>
        </g>
    </g>
</svg>