<?xml version="1.0" encoding="UTF-8"?>
<svg width="101px" height="101px" viewBox="0 0 101 101" version="1.1" xmlns="http://www.w3.org/2000/svg" xmlns:xlink="http://www.w3.org/1999/xlink">
    <!-- Generator: Sketch 53.2 (72643) - https://sketchapp.com -->
    <title>Group 58</title>
    <desc>Created with Sketch.</desc>
    <defs>
        <polygon id="path-1" points="0.0002 0.827 100.173 0.827 100.173 101 0.0002 101"></polygon>
        <polygon id="path-3" points="0 101.173 100.173 101.173 100.173 1 0 1"></polygon>
    </defs>
    <g id="Page-1" stroke="none" stroke-width="1" fill="none" fill-rule="evenodd">
        <g id="pricing-page-v3" transform="translate(-248.000000, -392.000000)">
            <g id="plans-cards" transform="translate(170.000000, 341.000000)">
                <g id="scheduling" transform="translate(0.000000, 28.000000)">
                    <g id="Group-58" transform="translate(78.000000, 22.000000)">
                        <g id="Group-3" transform="translate(0.000000, 0.173000)">
                            <mask id="mask-2" fill="white">
                                <use xlink:href="#path-1"></use>
                            </mask>
                            <g id="Clip-2"></g>
                            <path d="M100.1732,50.9134 C100.1732,78.5754 77.7482,101.0004 50.0862,101.0004 C22.4242,101.0004 0.0002,78.5754 0.0002,50.9134 C0.0002,23.2514 22.4242,0.8264 50.0862,0.8264 C77.7482,0.8264 100.1732,23.2514 100.1732,50.9134" id="Fill-1" fill="#BEE1F7" mask="url(#mask-2)"></path>
                        </g>
                        <path d="M83.5629,77.0805 L16.6109,77.0805 C16.2119,77.0805 15.8889,76.7575 15.8889,76.3585 L15.8889,25.4715 C15.8889,25.0725 16.2119,24.7495 16.6109,24.7495 L83.5629,24.7495 C83.9609,24.7495 84.2849,25.0725 84.2849,25.4715 L84.2849,76.3585 C84.2849,76.7575 83.9609,77.0805 83.5629,77.0805" id="Fill-4" fill="#FFFFFF"></path>
                        <path d="M25.2396,29.7729 C25.2396,31.2229 24.0636,32.3999 22.6136,32.3999 C21.1626,32.3999 19.9866,31.2229 19.9866,29.7729 C19.9866,28.3219 21.1626,27.1459 22.6136,27.1459 C24.0636,27.1459 25.2396,28.3219 25.2396,29.7729" id="Fill-6" fill="#259BE4"></path>
                        <path d="M36.2279,29.7729 C36.2279,31.2229 35.0519,32.3999 33.6009,32.3999 C32.1509,32.3999 30.9739,31.2229 30.9739,29.7729 C30.9739,28.3219 32.1509,27.1459 33.6009,27.1459 C35.0519,27.1459 36.2279,28.3219 36.2279,29.7729" id="Fill-8" fill="#259BE4"></path>
                        <path d="M47.2162,29.7729 C47.2162,31.2229 46.0392,32.3999 44.5892,32.3999 C43.1382,32.3999 41.9622,31.2229 41.9622,29.7729 C41.9622,28.3219 43.1382,27.1459 44.5892,27.1459 C46.0392,27.1459 47.2162,28.3219 47.2162,29.7729" id="Fill-10" fill="#259BE4"></path>
                        <path d="M58.2035,29.7729 C58.2035,31.2229 57.0275,32.3999 55.5765,32.3999 C54.1265,32.3999 52.9495,31.2229 52.9495,29.7729 C52.9495,28.3219 54.1265,27.1459 55.5765,27.1459 C57.0275,27.1459 58.2035,28.3219 58.2035,29.7729" id="Fill-12" fill="#259BE4"></path>
                        <path d="M69.1918,29.7729 C69.1918,31.2229 68.0148,32.3999 66.5648,32.3999 C65.1138,32.3999 63.9378,31.2229 63.9378,29.7729 C63.9378,28.3219 65.1138,27.1459 66.5648,27.1459 C68.0148,27.1459 69.1918,28.3219 69.1918,29.7729" id="Fill-14" fill="#259BE4"></path>
                        <path d="M80.1791,29.7729 C80.1791,31.2229 79.0031,32.3999 77.5521,32.3999 C76.1021,32.3999 74.9261,31.2229 74.9261,29.7729 C74.9261,28.3219 76.1021,27.1459 77.5521,27.1459 C79.0031,27.1459 80.1791,28.3219 80.1791,29.7729" id="Fill-16" fill="#259BE4"></path>
                        <path d="M22.6136,29.6782 L22.6136,21.4292" id="Stroke-18" stroke="#1F77BC" stroke-width="2.39" stroke-linecap="round" stroke-linejoin="round"></path>
                        <path d="M33.601,29.6782 L33.601,21.4292" id="Stroke-20" stroke="#1F77BC" stroke-width="2.39" stroke-linecap="round" stroke-linejoin="round"></path>
                        <path d="M44.5892,29.6782 L44.5892,21.4292" id="Stroke-22" stroke="#1F77BC" stroke-width="2.39" stroke-linecap="round" stroke-linejoin="round"></path>
                        <path d="M55.5765,29.6782 L55.5765,21.4292" id="Stroke-24" stroke="#1F77BC" stroke-width="2.39" stroke-linecap="round" stroke-linejoin="round"></path>
                        <path d="M66.5648,29.6782 L66.5648,21.4292" id="Stroke-26" stroke="#1F77BC" stroke-width="2.39" stroke-linecap="round" stroke-linejoin="round"></path>
                        <path d="M77.5531,29.6782 L77.5531,21.4292" id="Stroke-28" stroke="#1F77BC" stroke-width="2.39" stroke-linecap="round" stroke-linejoin="round"></path>
                        <mask id="mask-4" fill="white">
                            <use xlink:href="#path-3"></use>
                        </mask>
                        <g id="Clip-31"></g>
                        <path d="M20.208,48.438 L31.385,48.438 L31.385,38.221 L20.208,38.221 L20.208,48.438 Z M19.391,49.255 L32.203,49.255 L32.203,37.403 L19.391,37.403 L19.391,49.255 Z" id="Fill-30" fill="#BEE1F7" mask="url(#mask-4)"></path>
                        <path d="M32.203,48.438 L43.38,48.438 L43.38,38.221 L32.203,38.221 L32.203,48.438 Z M31.385,49.255 L44.197,49.255 L44.197,37.403 L31.385,37.403 L31.385,49.255 Z" id="Fill-32" fill="#BEE1F7" mask="url(#mask-4)"></path>
                        <path d="M44.197,48.438 L55.374,48.438 L55.374,38.221 L44.197,38.221 L44.197,48.438 Z M43.379,49.255 L56.191,49.255 L56.191,37.403 L43.379,37.403 L43.379,49.255 Z" id="Fill-33" fill="#BEE1F7" mask="url(#mask-4)"></path>
                        <path d="M56.191,48.438 L67.369,48.438 L67.369,38.221 L56.191,38.221 L56.191,48.438 Z M55.373,49.255 L68.186,49.255 L68.186,37.403 L55.373,37.403 L55.373,49.255 Z" id="Fill-34" fill="#BEE1F7" mask="url(#mask-4)"></path>
                        <path d="M68.186,48.438 L79.362,48.438 L79.362,38.221 L68.186,38.221 L68.186,48.438 Z M67.368,49.255 L80.179,49.255 L80.179,37.403 L67.368,37.403 L67.368,49.255 Z" id="Fill-35" fill="#BEE1F7" mask="url(#mask-4)"></path>
                        <path d="M20.208,59.473 L31.385,59.473 L31.385,49.255 L20.208,49.255 L20.208,59.473 Z M19.391,60.29 L32.203,60.29 L32.203,48.438 L19.391,48.438 L19.391,60.29 Z" id="Fill-36" fill="#BEE1F7" mask="url(#mask-4)"></path>
                        <path d="M32.203,59.473 L43.38,59.473 L43.38,49.255 L32.203,49.255 L32.203,59.473 Z M31.385,60.29 L44.197,60.29 L44.197,48.438 L31.385,48.438 L31.385,60.29 Z" id="Fill-37" fill="#BEE1F7" mask="url(#mask-4)"></path>
                        <path d="M44.197,59.473 L55.374,59.473 L55.374,49.255 L44.197,49.255 L44.197,59.473 Z M43.379,60.29 L56.191,60.29 L56.191,48.438 L43.379,48.438 L43.379,60.29 Z" id="Fill-38" fill="#BEE1F7" mask="url(#mask-4)"></path>
                        <path d="M56.191,59.473 L67.369,59.473 L67.369,49.255 L56.191,49.255 L56.191,59.473 Z M55.373,60.29 L68.186,60.29 L68.186,48.438 L55.373,48.438 L55.373,60.29 Z" id="Fill-39" fill="#BEE1F7" mask="url(#mask-4)"></path>
                        <path d="M68.186,59.473 L79.362,59.473 L79.362,49.255 L68.186,49.255 L68.186,59.473 Z M67.368,60.29 L80.179,60.29 L80.179,48.438 L67.368,48.438 L67.368,60.29 Z" id="Fill-40" fill="#BEE1F7" mask="url(#mask-4)"></path>
                        <path d="M20.208,70.507 L31.385,70.507 L31.385,60.289 L20.208,60.289 L20.208,70.507 Z M19.391,71.325 L32.203,71.325 L32.203,59.473 L19.391,59.473 L19.391,71.325 Z" id="Fill-41" fill="#BEE1F7" mask="url(#mask-4)"></path>
                        <path d="M32.203,70.507 L43.38,70.507 L43.38,60.289 L32.203,60.289 L32.203,70.507 Z M31.385,71.325 L44.197,71.325 L44.197,59.473 L31.385,59.473 L31.385,71.325 Z" id="Fill-42" fill="#BEE1F7" mask="url(#mask-4)"></path>
                        <path d="M44.197,70.507 L55.374,70.507 L55.374,60.289 L44.197,60.289 L44.197,70.507 Z M43.379,71.325 L56.191,71.325 L56.191,59.473 L43.379,59.473 L43.379,71.325 Z" id="Fill-43" fill="#BEE1F7" mask="url(#mask-4)"></path>
                        <path d="M56.191,70.507 L67.369,70.507 L67.369,60.289 L56.191,60.289 L56.191,70.507 Z M55.373,71.325 L68.186,71.325 L68.186,59.473 L55.373,59.473 L55.373,71.325 Z" id="Fill-44" fill="#BEE1F7" mask="url(#mask-4)"></path>
                        <path d="M68.186,70.507 L79.362,70.507 L79.362,60.289 L68.186,60.289 L68.186,70.507 Z M67.368,71.325 L80.179,71.325 L80.179,59.473 L67.368,59.473 L67.368,71.325 Z" id="Fill-45" fill="#BEE1F7" mask="url(#mask-4)"></path>
                        <path d="M65.4701,85.725 L6.0851,85.725 C5.4021,85.725 4.8481,85.171 4.8481,84.489 L4.8481,69.22 C4.8481,68.537 5.4021,67.983 6.0851,67.983 L65.4701,67.983 C66.1531,67.983 66.7061,68.537 66.7061,69.22 L66.7061,84.489 C66.7061,85.171 66.1531,85.725 65.4701,85.725" id="Fill-46" fill="#259BE4" mask="url(#mask-4)"></path>
                        <path d="M19.4212,76.854 C19.4212,79.921 16.9352,82.408 13.8682,82.408 C10.8012,82.408 8.3152,79.921 8.3152,76.854 C8.3152,73.788 10.8012,71.301 13.8682,71.301 C16.9352,71.301 19.4212,73.788 19.4212,76.854" id="Fill-47" fill="#FFFFFF" mask="url(#mask-4)"></path>
                        <path d="M25.1546,74.1225 L55.8426,74.1225" id="Stroke-48" stroke="#FFFFFF" stroke-width="1.762" stroke-linecap="round" stroke-linejoin="round" mask="url(#mask-4)"></path>
                        <path d="M25.1546,79.7661 L45.6396,79.7661" id="Stroke-49" stroke="#FFFFFF" stroke-width="1.762" stroke-linecap="round" stroke-linejoin="round" mask="url(#mask-4)"></path>
                        <path d="M40.2347,50.2856 L3.9037,50.2856 C3.2197,50.2856 2.6667,49.7306 2.6667,49.0486 L2.6667,37.6936 C2.6667,37.0116 3.2197,36.4566 3.9037,36.4566 L40.2347,36.4566 C40.9187,36.4566 41.4717,37.0116 41.4717,37.6936 L41.4717,49.0486 C41.4717,49.7306 40.9187,50.2856 40.2347,50.2856" id="Fill-50" fill="#3CC3A9" mask="url(#mask-4)"></path>
                        <path d="M14.0248,43.3706 C14.0248,45.7616 12.0868,47.6986 9.6968,47.6986 C7.3058,47.6986 5.3688,45.7616 5.3688,43.3706 C5.3688,40.9806 7.3058,39.0426 9.6968,39.0426 C12.0868,39.0426 14.0248,40.9806 14.0248,43.3706" id="Fill-51" fill="#FFFFFF" mask="url(#mask-4)"></path>
                        <path d="M18.4925,41.2426 L28.0515,41.2426" id="Stroke-52" stroke="#FFFFFF" stroke-width="1.762" stroke-linecap="round" stroke-linejoin="round" mask="url(#mask-4)"></path>
                        <path d="M18.4925,45.6401 L23.9195,45.6401" id="Stroke-53" stroke="#FFFFFF" stroke-width="1.762" stroke-linecap="round" stroke-linejoin="round" mask="url(#mask-4)"></path>
                        <path d="M94.1556,61.4721 L51.3466,61.4721 C50.6636,61.4721 50.1096,60.9181 50.1096,60.2351 L50.1096,48.8811 C50.1096,48.1981 50.6636,47.6441 51.3466,47.6441 L94.1556,47.6441 C94.8396,47.6441 95.3926,48.1981 95.3926,48.8811 L95.3926,60.2351 C95.3926,60.9181 94.8396,61.4721 94.1556,61.4721" id="Fill-54" fill="#1F77BC" mask="url(#mask-4)"></path>
                        <path d="M61.4681,54.5581 C61.4681,56.9481 59.5311,58.8861 57.1401,58.8861 C54.7491,58.8861 52.8121,56.9481 52.8121,54.5581 C52.8121,52.1671 54.7491,50.2301 57.1401,50.2301 C59.5311,50.2301 61.4681,52.1671 61.4681,54.5581" id="Fill-55" fill="#FFFFFF" mask="url(#mask-4)"></path>
                        <path d="M65.9369,52.4291 L77.6619,52.4291" id="Stroke-56" stroke="#FFFFFF" stroke-width="1.762" stroke-linecap="round" stroke-linejoin="round" mask="url(#mask-4)"></path>
                        <path d="M65.9369,56.8276 L80.8689,56.8276" id="Stroke-57" stroke="#FFFFFF" stroke-width="1.762" stroke-linecap="round" stroke-linejoin="round" mask="url(#mask-4)"></path>
                    </g>
                </g>
            </g>
        </g>
    </g>
</svg>