<?xml version="1.0" encoding="UTF-8"?>
<svg width="101px" height="101px" viewBox="0 0 101 101" version="1.1" xmlns="http://www.w3.org/2000/svg" xmlns:xlink="http://www.w3.org/1999/xlink">
    <!-- Generator: Sketch 53.2 (72643) - https://sketchapp.com -->
    <title>Group 31</title>
    <desc>Created with Sketch.</desc>
    <defs>
        <path d="M50.15,0.776 C22.557,0.776 0.187,72.922 0.187,100.516 L0.187,100.516 C0.187,128.11 22.557,150.479 50.15,150.479 L50.15,150.479 C77.744,150.479 100.113,128.11 100.113,100.516 L100.113,100.516 C100.113,72.922 77.744,0.776 50.15,0.776 Z" id="path-1"></path>
    </defs>
    <g id="Page-1" stroke="none" stroke-width="1" fill="none" fill-rule="evenodd">
        <g id="pricing-page-v3" transform="translate(-1050.000000, -391.000000)">
            <g id="plans-cards" transform="translate(170.000000, 341.000000)">
                <g id="enterprise" transform="translate(802.000000, 0.000000)">
                    <g id="Group-31" transform="translate(78.000000, 0.000000)">
                        <path d="M100.2058,100.87 C100.2058,128.516 77.7948,150.926 50.1498,150.926 C22.5048,150.926 0.0938,128.516 0.0938,100.87 C0.0938,73.224 22.5048,50.814 50.1498,50.814 C77.7948,50.814 100.2058,73.224 100.2058,100.87" id="Fill-1" fill="#BEE1F7"></path>
                        <g id="Group-30" transform="translate(0.000000, 0.224000)">
                            <mask id="mask-2" fill="white">
                                <use xlink:href="#path-1"></use>
                            </mask>
                            <g id="Clip-4"></g>
                            <polygon id="Fill-3" fill="#FFFFFF" mask="url(#mask-2)" points="28.893 141.621 70.599 141.621 70.599 53.154 28.893 53.154"></polygon>
                            <path d="M55.0769,118.3188 L44.3619,118.3188 C43.2269,118.3188 42.3069,119.2388 42.3069,120.3738 L42.3069,141.6208 L57.1319,141.6208 L57.1319,120.3738 C57.1319,119.2388 56.2119,118.3188 55.0769,118.3188" id="Fill-5" fill="#259BE4" mask="url(#mask-2)"></path>
                            <path d="M64.6804,130.4575 L62.3574,130.4575 C61.4464,130.4575 60.7054,129.7185 60.7054,128.8065 L60.7054,119.9705 C60.7054,119.0585 61.4464,118.3185 62.3574,118.3185 L64.6804,118.3185 C65.5924,118.3185 66.3314,119.0585 66.3314,119.9705 L66.3314,128.8065 C66.3314,129.7185 65.5924,130.4575 64.6804,130.4575" id="Fill-6" fill="#259BE4" mask="url(#mask-2)"></path>
                            <path d="M37.0818,130.4575 L34.7588,130.4575 C33.8468,130.4575 33.1068,129.7185 33.1068,128.8065 L33.1068,119.9705 C33.1068,119.0585 33.8468,118.3185 34.7588,118.3185 L37.0818,118.3185 C37.9928,118.3185 38.7328,119.0585 38.7328,119.9705 L38.7328,128.8065 C38.7328,129.7185 37.9928,130.4575 37.0818,130.4575" id="Fill-7" fill="#259BE4" mask="url(#mask-2)"></path>
                            <path d="M64.6804,104.1352 L62.3574,104.1352 C61.4464,104.1352 60.7054,103.3962 60.7054,102.4842 L60.7054,93.6472 C60.7054,92.7352 61.4464,91.9952 62.3574,91.9952 L64.6804,91.9952 C65.5924,91.9952 66.3314,92.7352 66.3314,93.6472 L66.3314,102.4842 C66.3314,103.3962 65.5924,104.1352 64.6804,104.1352" id="Fill-8" fill="#259BE4" mask="url(#mask-2)"></path>
                            <path d="M37.0818,104.1352 L34.7588,104.1352 C33.8468,104.1352 33.1068,103.3962 33.1068,102.4842 L33.1068,93.6472 C33.1068,92.7352 33.8468,91.9952 34.7588,91.9952 L37.0818,91.9952 C37.9928,91.9952 38.7328,92.7352 38.7328,93.6472 L38.7328,102.4842 C38.7328,103.3962 37.9928,104.1352 37.0818,104.1352" id="Fill-9" fill="#259BE4" mask="url(#mask-2)"></path>
                            <path d="M46.281,104.1352 L43.959,104.1352 C43.047,104.1352 42.307,103.3962 42.307,102.4842 L42.307,93.6472 C42.307,92.7352 43.047,91.9952 43.959,91.9952 L46.281,91.9952 C47.193,91.9952 47.932,92.7352 47.932,93.6472 L47.932,102.4842 C47.932,103.3962 47.193,104.1352 46.281,104.1352" id="Fill-10" fill="#259BE4" mask="url(#mask-2)"></path>
                            <path d="M55.4802,104.1352 L53.1582,104.1352 C52.2462,104.1352 51.5062,103.3962 51.5062,102.4842 L51.5062,93.6472 C51.5062,92.7352 52.2462,91.9952 53.1582,91.9952 L55.4802,91.9952 C56.3922,91.9952 57.1312,92.7352 57.1312,93.6472 L57.1312,102.4842 C57.1312,103.3962 56.3922,104.1352 55.4802,104.1352" id="Fill-11" fill="#259BE4" mask="url(#mask-2)"></path>
                            <path d="M64.6804,86.8872 L62.3574,86.8872 C61.4464,86.8872 60.7054,86.1482 60.7054,85.2362 L60.7054,76.4002 C60.7054,75.4882 61.4464,74.7482 62.3574,74.7482 L64.6804,74.7482 C65.5924,74.7482 66.3314,75.4882 66.3314,76.4002 L66.3314,85.2362 C66.3314,86.1482 65.5924,86.8872 64.6804,86.8872" id="Fill-12" fill="#259BE4" mask="url(#mask-2)"></path>
                            <path d="M37.0818,86.8872 L34.7588,86.8872 C33.8468,86.8872 33.1068,86.1482 33.1068,85.2362 L33.1068,76.4002 C33.1068,75.4882 33.8468,74.7482 34.7588,74.7482 L37.0818,74.7482 C37.9928,74.7482 38.7328,75.4882 38.7328,76.4002 L38.7328,85.2362 C38.7328,86.1482 37.9928,86.8872 37.0818,86.8872" id="Fill-13" fill="#259BE4" mask="url(#mask-2)"></path>
                            <path d="M46.281,86.8872 L43.959,86.8872 C43.047,86.8872 42.307,86.1482 42.307,85.2362 L42.307,76.4002 C42.307,75.4882 43.047,74.7482 43.959,74.7482 L46.281,74.7482 C47.193,74.7482 47.932,75.4882 47.932,76.4002 L47.932,85.2362 C47.932,86.1482 47.193,86.8872 46.281,86.8872" id="Fill-14" fill="#259BE4" mask="url(#mask-2)"></path>
                            <path d="M55.4802,86.8872 L53.1582,86.8872 C52.2462,86.8872 51.5062,86.1482 51.5062,85.2362 L51.5062,76.4002 C51.5062,75.4882 52.2462,74.7482 53.1582,74.7482 L55.4802,74.7482 C56.3922,74.7482 57.1312,75.4882 57.1312,76.4002 L57.1312,85.2362 C57.1312,86.1482 56.3922,86.8872 55.4802,86.8872" id="Fill-15" fill="#259BE4" mask="url(#mask-2)"></path>
                            <path d="M64.6804,69.6401 L62.3574,69.6401 C61.4464,69.6401 60.7054,68.9011 60.7054,67.9891 L60.7054,59.1521 C60.7054,58.2401 61.4464,57.5001 62.3574,57.5001 L64.6804,57.5001 C65.5924,57.5001 66.3314,58.2401 66.3314,59.1521 L66.3314,67.9891 C66.3314,68.9011 65.5924,69.6401 64.6804,69.6401" id="Fill-16" fill="#259BE4" mask="url(#mask-2)"></path>
                            <path d="M37.0818,69.6401 L34.7588,69.6401 C33.8468,69.6401 33.1068,68.9011 33.1068,67.9891 L33.1068,59.1521 C33.1068,58.2401 33.8468,57.5001 34.7588,57.5001 L37.0818,57.5001 C37.9928,57.5001 38.7328,58.2401 38.7328,59.1521 L38.7328,67.9891 C38.7328,68.9011 37.9928,69.6401 37.0818,69.6401" id="Fill-17" fill="#259BE4" mask="url(#mask-2)"></path>
                            <path d="M46.281,69.6401 L43.959,69.6401 C43.047,69.6401 42.307,68.9011 42.307,67.9891 L42.307,59.1521 C42.307,58.2401 43.047,57.5001 43.959,57.5001 L46.281,57.5001 C47.193,57.5001 47.932,58.2401 47.932,59.1521 L47.932,67.9891 C47.932,68.9011 47.193,69.6401 46.281,69.6401" id="Fill-18" fill="#259BE4" mask="url(#mask-2)"></path>
                            <path d="M55.4802,69.6401 L53.1582,69.6401 C52.2462,69.6401 51.5062,68.9011 51.5062,67.9891 L51.5062,59.1521 C51.5062,58.2401 52.2462,57.5001 53.1582,57.5001 L55.4802,57.5001 C56.3922,57.5001 57.1312,58.2401 57.1312,59.1521 L57.1312,67.9891 C57.1312,68.9011 56.3922,69.6401 55.4802,69.6401" id="Fill-19" fill="#259BE4" mask="url(#mask-2)"></path>
                            <polygon id="Fill-20" fill="#C8E6F8" mask="url(#mask-2)" points="49.484 141.621 50.01 141.621 50.01 118.319 49.484 118.319"></polygon>
                            <path d="M47.8347,132.9848 L47.0997,132.9848 C46.8117,132.9848 46.5767,132.7508 46.5767,132.4628 L46.5767,128.4538 C46.5767,128.1648 46.8117,127.9308 47.0997,127.9308 L47.8347,127.9308 C48.1227,127.9308 48.3567,128.1648 48.3567,128.4538 L48.3567,132.4628 C48.3567,132.7508 48.1227,132.9848 47.8347,132.9848" id="Fill-21" fill="#FFFFFF" mask="url(#mask-2)"></path>
                            <path d="M52.2292,132.9848 L51.4952,132.9848 C51.2062,132.9848 50.9722,132.7508 50.9722,132.4628 L50.9722,128.4538 C50.9722,128.1648 51.2062,127.9308 51.4952,127.9308 L52.2292,127.9308 C52.5182,127.9308 52.7512,128.1648 52.7512,128.4538 L52.7512,132.4628 C52.7512,132.7508 52.5182,132.9848 52.2292,132.9848" id="Fill-22" fill="#FFFFFF" mask="url(#mask-2)"></path>
                            <path d="M33.7146,115.2475 L65.4886,115.2475 C66.1066,115.2475 66.6066,114.7475 66.6066,114.1305 L66.6066,109.5745 C66.6066,108.9585 66.1066,108.4585 65.4886,108.4585 L33.7146,108.4585 C33.0976,108.4585 32.5976,108.9585 32.5976,109.5745 L32.5976,114.1305 C32.5976,114.7475 33.0976,115.2475 33.7146,115.2475" id="Fill-23" fill="#3CC3A9" mask="url(#mask-2)"></path>
                            <polygon id="Fill-24" fill="#1F77BC" mask="url(#mask-2)" points="77.233 141.621 78.156 141.621 78.156 134.896 77.233 134.896"></polygon>
                            <polygon id="Fill-25" fill="#1F77BC" mask="url(#mask-2)" points="21.2 141.621 22.123 141.621 22.123 134.896 21.2 134.896"></polygon>
                            <path d="M70.9431,53.1538 L28.5491,53.1538 C28.1931,53.1538 27.9041,52.8648 27.9041,52.5078 L27.9041,51.6008 C27.9041,51.2448 28.1931,50.9558 28.5491,50.9558 L70.9431,50.9558 C71.2991,50.9558 71.5881,51.2448 71.5881,51.6008 L71.5881,52.5078 C71.5881,52.8648 71.2991,53.1538 70.9431,53.1538" id="Fill-26" fill="#259BE4" mask="url(#mask-2)"></path>
                            <path d="M82.3083,134.0141 C82.3083,136.6181 80.1993,138.7281 77.5953,138.7281 C74.9923,138.7281 72.8813,136.6181 72.8813,134.0141 C72.8813,131.4111 74.9923,123.9611 77.5953,123.9611 C80.1993,123.9611 82.3083,131.4111 82.3083,134.0141" id="Fill-27" fill="#3CC3A9" mask="url(#mask-2)"></path>
                            <path d="M26.2761,134.0141 C26.2761,136.6181 24.1661,138.7281 21.5621,138.7281 C18.9601,138.7281 16.8491,136.6181 16.8491,134.0141 C16.8491,131.4111 18.9601,123.9611 21.5621,123.9611 C24.1661,123.9611 26.2761,131.4111 26.2761,134.0141" id="Fill-28" fill="#3CC3A9" mask="url(#mask-2)"></path>
                            <polygon id="Fill-29" fill="#259BE4" mask="url(#mask-2)" points="-8.001 165.001 106.555 165.001 106.555 141.621 -8.001 141.621"></polygon>
                        </g>
                    </g>
                </g>
            </g>
        </g>
    </g>
</svg>