<svg xmlns="http://www.w3.org/2000/svg" xmlns:xlink="http://www.w3.org/1999/xlink" width="150" height="151" viewBox="0 0 150 151">
    <defs>
        <path id="a" d="M74.953.394C33.67.394.202 33.75.202 74.897S33.669 149.4 74.953 149.4c41.284 0 74.751-33.356 74.751-74.503S116.237.394 74.954.394z"/>
    </defs>
    <g fill="none" fill-rule="evenodd">
        <path fill="#FFF" d="M75 .5C33.578.5 0 34.078 0 75.5c0 41.421 33.578 75 75 75 41.421 0 75-33.579 75-75 0-41.422-33.579-75-75-75z"/>
        <g transform="translate(0 1.103)">
            <mask id="b" fill="#fff">
                <use xlink:href="#a"/>
            </mask>
            <path fill="#E8F8FE" d="M71.133 140.22h7.093v-32.284h-7.093z" mask="url(#b)"/>
            <path fill="#5ECEF9" d="M26.137 89.852a.475.475 0 0 1-.476-.475v-1.724a.475.475 0 0 1 .952 0v1.724a.475.475 0 0 1-.476.475M27.91 89.852a.475.475 0 0 1-.476-.475v-1.724a.475.475 0 0 1 .952 0v1.724a.475.475 0 0 1-.476.475M29.684 89.852a.475.475 0 0 1-.476-.475v-1.724a.475.475 0 0 1 .952 0v1.724a.475.475 0 0 1-.476.475M31.457 89.852a.475.475 0 0 1-.476-.475v-1.724a.475.475 0 0 1 .952 0v1.724a.475.475 0 0 1-.476.475" mask="url(#b)"/>
            <path fill="#E8F8FE" d="M60.247 60.431h-49.05a2.412 2.412 0 0 0-2.415 2.408v28.32a2.411 2.411 0 0 0 2.416 2.408h49.05a2.411 2.411 0 0 0 2.415-2.408V62.84a2.412 2.412 0 0 0-2.416-2.408" mask="url(#b)"/>
            <path fill="#DBEEF8" d="M41.607 100.204H13.951a.965.965 0 0 0-.967.963v1.856h28.623v-2.819z" mask="url(#b)"/>
            <path fill="#DBEEF8" d="M35.572 97.76a3.303 3.303 0 0 1-3.309-3.3 3.306 3.306 0 0 1 3.31-3.298 3.306 3.306 0 0 1 3.309 3.299 3.303 3.303 0 0 1-3.31 3.298zm7.494-14.086a2.41 2.41 0 0 0-2.401-2.138H30.48c-1.227 0-2.261.92-2.401 2.138l-2.174 19.349H45.24l-2.174-19.349zM57.933 103.023c0-1.557-2.023-2.819-4.519-2.819s-4.52 1.262-4.52 2.819h9.04zM48.982 115.055H45.66a.643.643 0 0 0-.645.642v.912c0 .354.288.642.645.642h3.323a.643.643 0 0 0 .644-.642v-.912a.643.643 0 0 0-.644-.642" mask="url(#b)"/>
            <path fill="#E8F8FE" d="M48.982 117.251h-3.324l-1.818.845a1.284 1.284 0 0 0-.744 1.164v20.96h8.448v-20.96c0-.498-.29-.952-.744-1.164l-1.818-.845z" mask="url(#b)"/>
            <path fill="#FFF" d="M45.014 140.22h4.612v-19.08h-4.612z" mask="url(#b)"/>
            <path fill="#DBEEF8" d="M40.083 115.055h-3.324a.643.643 0 0 0-.644.642v.912c0 .354.288.642.644.642h3.324a.643.643 0 0 0 .644-.642v-.912a.643.643 0 0 0-.644-.642" mask="url(#b)"/>
            <path fill="#E8F8FE" d="M40.083 117.251h-3.324l-1.819.845a1.285 1.285 0 0 0-.744 1.164v20.96h8.449v-20.96c0-.498-.29-.952-.744-1.164l-1.818-.845z" mask="url(#b)"/>
            <path fill="#FFF" d="M36.115 140.22h4.612v-19.08h-4.612z" mask="url(#b)"/>
            <path fill="#DBEEF8" d="M31.184 115.055H27.86a.643.643 0 0 0-.644.642v.912c0 .354.288.642.644.642h3.324a.643.643 0 0 0 .644-.642v-.912a.643.643 0 0 0-.644-.642" mask="url(#b)"/>
            <path fill="#E8F8FE" d="M31.184 117.251H27.86l-1.819.845a1.285 1.285 0 0 0-.744 1.164v20.96h8.449v-20.96c0-.498-.29-.952-.744-1.164l-1.818-.845z" mask="url(#b)"/>
            <path fill="#FFF" d="M27.216 140.22h4.612v-19.08h-4.612z" mask="url(#b)"/>
            <path fill="#DBEEF8" d="M22.284 115.055h-3.323a.643.643 0 0 0-.645.642v.912c0 .354.289.642.645.642h3.323a.643.643 0 0 0 .645-.642v-.912a.643.643 0 0 0-.645-.642" mask="url(#b)"/>
            <path fill="#E8F8FE" d="M22.284 117.251h-3.323l-1.82.845a1.285 1.285 0 0 0-.743 1.164v20.96h8.449v-20.96c0-.498-.29-.952-.744-1.164l-1.819-.845z" mask="url(#b)"/>
            <path fill="#FFF" d="M18.316 140.22h4.613v-19.08h-4.613z" mask="url(#b)"/>
            <path fill="#DBEEF8" d="M13.385 115.055h-3.323a.643.643 0 0 0-.645.642v.912c0 .354.289.642.645.642h3.323a.643.643 0 0 0 .644-.642v-.912a.643.643 0 0 0-.644-.642" mask="url(#b)"/>
            <path fill="#E8F8FE" d="M13.385 117.251h-3.323l-1.819.845a1.284 1.284 0 0 0-.744 1.164v20.96h8.448v-20.96c0-.498-.29-.952-.744-1.164l-1.818-.845z" mask="url(#b)"/>
            <path fill="#FFF" d="M9.417 140.22h4.612v-19.08H9.417z" mask="url(#b)"/>
            <path fill="#DBEEF8" d="M45.346 125.47h-31.44c-.42 0-.8-.188-1.079-.486a1.731 1.731 0 0 1-.446-1.17c0-.92.685-1.662 1.524-1.662h31.44c.42 0 .8.183 1.079.486.273.299.446.718.446 1.176 0 .914-.685 1.656-1.524 1.656m-39.841-5.205v19.955h48.24v-19.955a.82.82 0 0 0-.82-.819H6.326a.82.82 0 0 0-.821.82" mask="url(#b)"/>
            <path fill="#E8F8FE" d="M-56.81 107.937H78.225v-3.24c0-.925-.753-1.674-1.68-1.674H-55.13c-.928 0-1.68.749-1.68 1.674v3.24zM-56.81 148.989H78.225v-8.77H-56.811z" mask="url(#b)"/>
            <path fill="#DBEEF8" d="M1.64 115.055h-3.324a.643.643 0 0 0-.644.642v.912c0 .354.288.642.644.642H1.64a.643.643 0 0 0 .645-.642v-.912a.643.643 0 0 0-.645-.642" mask="url(#b)"/>
            <path fill="#E8F8FE" d="M1.64 117.251h-3.324l-1.818.845a1.284 1.284 0 0 0-.744 1.164v20.96h8.448v-20.96c0-.498-.29-.952-.744-1.164l-1.819-.845z" mask="url(#b)"/>
            <path fill="#FFF" d="M-2.328 140.22h4.612v-19.08h-4.612z" mask="url(#b)"/>
            <path fill="#DBEEF8" d="M57.523 115.055h3.323c.356 0 .644.287.644.642v.912a.643.643 0 0 1-.644.642h-3.323a.643.643 0 0 1-.645-.642v-.912c0-.355.289-.642.645-.642" mask="url(#b)"/>
            <path fill="#E8F8FE" d="M57.523 117.251h3.323l1.818.845c.454.212.744.666.744 1.164v20.96H54.96v-20.96c0-.498.29-.952.744-1.164l1.819-.845z" mask="url(#b)"/>
            <path fill="#FFF" d="M56.878 140.22h4.612v-19.08h-4.612z" mask="url(#b)"/>
            <path fill="#DBEEF8" d="M64.593 120.506h2.493c.267 0 .483.215.483.48v.685a.482.482 0 0 1-.483.482h-2.493a.482.482 0 0 1-.482-.482v-.684c0-.266.216-.481.482-.481" mask="url(#b)"/>
            <path fill="#DBEEF8" d="M64.593 122.153H67.086l1.364.634c.34.158.557.498.557.873v16.56h-6.335v-16.56c0-.375.218-.715.558-.873l1.363-.634z" mask="url(#b)"/>
            <path fill="#FFF" d="M64.11 140.22h3.459v-15.152H64.11z" mask="url(#b)"/>
            <path stroke="#D4EFF8" stroke-linecap="round" stroke-linejoin="round" stroke-width=".822" d="M8.179 138.535h42.54" mask="url(#b)"/>
            <path fill="#E8F8FE" d="M-49.717 141.865h120.85v-1.646h-120.85z" mask="url(#b)"/>
            <path fill="#FFF" d="M59.295 144.716h6.602v-4.496h-6.602z" mask="url(#b)"/>
            <path fill="#FFA76E" d="M75.142 80.841l-8.75 15.465-2.84-4.395 10.883.656a3.132 3.132 0 0 1 2.943 3.31 3.137 3.137 0 0 1-3.268 2.937l-10.893-.468a3.177 3.177 0 0 1-2.963-3.893l.122-.503 4.154-17.265c.74-3.081 3.848-4.98 6.94-4.241 3.091.739 4.997 3.835 4.256 6.917a5.929 5.929 0 0 1-.584 1.48" mask="url(#b)"/>
            <path fill="#008CF3" d="M82.515 52.239s-8.361 2.32-16.864 22.676L76.4 79.92l6.116-27.682z" mask="url(#b)"/>
            <path fill="#0067A7" d="M65.912 75.68l16.443 8.079c.284.14.628.023.768-.26l1.688-3.414a.57.57 0 0 0-.261-.765l-16.442-8.079a.574.574 0 0 0-.768.26l-1.689 3.414a.57.57 0 0 0 .261.765" mask="url(#b)"/>
            <path fill="#009FF1" d="M116.85 101.028l2.517 24.432H74.506c.025-.194.045-.387.07-.576 3.508-29.642-2.063-25.073-.17-48.62 0 0-1.031-23.28 12.304-25.75l19.635-4.147s7.869.835 15.478 6.318c.977.706 1.84 1.54 2.612 2.459 5.232 6.233 6 16.38 6 16.38l-15.927 6.716 2.342 22.788z" mask="url(#b)"/>
            <path fill="#008CF3" d="M119.366 125.46h-44.86c.025-.194.045-.387.07-.576.134-.02.249-.04.319-.055a86.075 86.075 0 0 0 9.284-2.736 87.938 87.938 0 0 0 17.312-8.39 86.064 86.064 0 0 0 8.875-6.387c2.308-1.892 4.56-3.983 6.484-6.288l2.516 24.432z" mask="url(#b)"/>
            <path fill="#0067A7" d="M89.747 51.588l1.32 7.081 15.282-12.298-1.495-2.46zM89.747 51.588l-2.431 6.194-3.832-6.421 2.321-3.147z" mask="url(#b)"/>
            <path fill="#006598" d="M85.805 48.214l.994-.15.24 1.206z" mask="url(#b)"/>
            <path fill="#005991" d="M87.316 57.782l2.16-2.662 1.59 3.55-1.32-7.082z" mask="url(#b)"/>
            <path fill="#005087" d="M119.369 125.46v4.397H74.436l.071-4.398z" mask="url(#b)"/>
            <path fill="#005589" d="M74.436 129.857s-2.209 19.375-2.056 31.78c.154 12.407 8.126 87.204 8.126 87.204h13.052l2.856-89.942 10.759 89.942h12.212l4.745-97.813a45.229 45.229 0 0 0-3.278-17.492l-1.483-3.679H74.436z" mask="url(#b)"/>
            <path fill="#FF9A64" d="M104.854 43.91s-.95-1.83-.116-5.674l-3.046 2.056-15.616 6.005.714 1.71.25 1.264 2.707 2.318 15.107-7.678z" mask="url(#b)"/>
            <path fill="#FFA96D" d="M104.73 38.336l-2.403 2.518-11.588 6.25c-1.19.671-1.94.723-2.915.553l-.584-.101-2.625-.462a3.195 3.195 0 0 1-2.39-1.872L77.744 31.11S72.4 17.158 85.476 10.785c4.408-2.151 7.924-2.22 10.688-1.244 0 0 .007-.001.014.006 5.427 1.924 7.95 7.869 8.598 9.973 1.474 4.789.19 13.65-.046 18.816-.009.07-.01.14-.012.21" mask="url(#b)"/>
            <path fill="#333" d="M104.73 38.336c-.009.07-.01.14-.012.21a2.785 2.785 0 0 1-.806.196h-.007c-.118.01-.224.01-.337-.002a1.972 1.972 0 0 1-.893-.294h-.006a2.857 2.857 0 0 1-.71-.644c-.444-.568-.674-1.27-.737-1.986l-.09-1.076-4.313-2.039c-.412.025-.596 1.347-1.643.253-1.71-1.777-1.65-5.614 3.363-12.89 4.54-6.595-2.053-10.345-2.36-10.517 5.426 1.924 7.95 7.869 8.597 9.973 1.474 4.789.19 13.65-.046 18.816" mask="url(#b)"/>
            <path fill="#FFA76E" d="M96.435 32.084c-.497 2.834.47 5.37 2.161 5.665 1.69.295 3.464-1.764 3.96-4.599.498-2.834-.469-5.371-2.16-5.665-1.69-.295-3.463 1.764-3.96 4.599" mask="url(#b)"/>
            <path fill="#333" d="M94.405 28.264l.301-3.236c.207-2.21-1.719-4.03-3.924-3.708l-14.638 4.123c-2.467.369-5.252-3.37-5.376-5.853a4.195 4.195 0 0 1 .945-2.866l3.113-3.806a5.773 5.773 0 0 1 2.932-1.908l6.983-1.929c.623-.172 1.955-.374 3.494-.514a18.844 18.844 0 0 1 7.402.815l.357.113c.111.035.285.112.386.17l2.52 1.445c.424.244.744.632.903 1.093l1.515 4.395-.907 6.1-6.006 5.566z" mask="url(#b)"/>
            <path fill="#005589" d="M76.221 71.682s1.63-13.546 5.771-19.089c.357-.244 1.206-.81 1.617-1.023 0 0-3.432 8.15-3.524 20.667M106.35 74.968c.953-17.78 8.214-26.3 8.214-26.3l-2.49-.928s-10.265 11.363-10.578 26.724" mask="url(#b)"/>
            <path fill="#005589" d="M106.528 72.48s1.44 9.554 8.745 13.212c6.088 35.341 11.402 69.317 8.86 89.4l-53.37-3.765c-2.517-13.88.603-57.996 3.239-90.997 2.43-1.835 3.424-10.093 3.466-10.9l29.06 3.05z" mask="url(#b)"/>
            <path fill="#00B5FF" d="M102.748 78.577c.146-1.346-1.732-2.653-4.195-2.918-2.464-.266-4.578.61-4.725 1.957-.146 1.346 1.733 2.653 4.196 2.918 2.463.266 4.578-.61 4.724-1.957" mask="url(#b)"/>
            <path fill="#B6E8FC" d="M90.089 107.615L65.695 104.2a1.26 1.26 0 0 1-1.072-1.054l-5.295-34.269a1.26 1.26 0 0 1 1.424-1.438l24.393 3.415a1.26 1.26 0 0 1 1.072 1.055l5.295 34.268a1.26 1.26 0 0 1-1.423 1.438" mask="url(#b)"/>
            <path fill="#FFA76E" d="M123.982 106.552l-.284 1.061c-.855 3.198-4.15 5.1-7.358 4.246a6.617 6.617 0 0 1-.825-.284l-34.031-14.58a3.288 3.288 0 0 1-1.73-4.324 3.307 3.307 0 0 1 3.79-1.904l28.144 6.588v.067l2.217-21.638c.474-4.879 4.828-8.45 9.723-7.977 4.896.473 8.48 4.812 8.004 9.691a9.589 9.589 0 0 1-.259 1.43l-7.39 27.624z" mask="url(#b)"/>
            <path fill="#FFA76E" d="M73.1 90.883c-.94 2.549 1.61 5.828 5.696 7.324 4.086 1.496 8.159.642 9.098-1.907.94-2.55-1.61-5.828-5.696-7.324-4.085-1.496-8.159-.642-9.098 1.907" mask="url(#b)"/>
            <path fill="#FFA76E" d="M83.519 91.157c1.481 1.547 3.125 2.38 3.672 1.86.547-.52-.21-2.196-1.692-3.743-1.482-1.548-3.126-2.38-3.673-1.86-.546.52.211 2.196 1.693 3.743" mask="url(#b)"/>
            <path fill="#009FF1" d="M131.912 78.774l-20.206 1.023 2.6-27.924 10.13 3.269c9.407 8.332 7.476 23.632 7.476 23.632" mask="url(#b)"/>
            <path stroke="#0067A7" stroke-linecap="round" stroke-linejoin="round" stroke-width=".5" d="M113.394 77.306l1.88-8.668" mask="url(#b)"/>
            <path fill="#0067A7" d="M112.81 80.839l18.125 2.738a.573.573 0 0 0 .653-.479l.572-3.763a.572.572 0 0 0-.48-.65l-18.692-2.825-.658 4.328a.572.572 0 0 0 .48.65" mask="url(#b)"/>
        </g>
        <path stroke="#F48251" stroke-linecap="round" stroke-linejoin="round" stroke-width=".5" d="M114.785 102.63c-.85-2.677-3.097-4.172-3.097-4.172s.46 1.944.46 2.858"/>
    </g>
</svg>
