<svg xmlns="http://www.w3.org/2000/svg" xmlns:xlink="http://www.w3.org/1999/xlink" width="125" height="126" viewBox="0 0 125 126">
    <defs>
        <path id="a" d="M62.5.388C27.982.388 0 28.408 0 62.971c0 34.564 27.982 62.583 62.5 62.583S125 97.534 125 62.971 97.018.388 62.5.388z"/>
        <path id="c" d="M62.5.388C27.982.388 0 28.408 0 62.971c0 34.564 27.982 62.583 62.5 62.583S125 97.534 125 62.971 97.018.388 62.5.388z"/>
        <path id="e" d="M62.5.388C27.982.388 0 28.408 0 62.971c0 34.564 27.982 62.583 62.5 62.583S125 97.534 125 62.971 97.018.388 62.5.388z"/>
        <path id="g" d="M62.5.388C27.982.388 0 28.408 0 62.971c0 34.564 27.982 62.583 62.5 62.583S125 97.534 125 62.971"/>
        <path id="i" d="M62.5.388C27.982.388 0 28.408 0 62.971c0 34.564 27.982 62.583 62.5 62.583S125 97.534 125 62.971"/>
        <path id="j" d="M62.5.388C27.982.388 0 28.408 0 62.971c0 34.564 27.982 62.583 62.5 62.583S125 97.534 125 62.971"/>
        <path id="l" d="M62.5.388C27.982.388 0 28.408 0 62.971c0 34.564 27.982 62.583 62.5 62.583S125 97.534 125 62.971"/>
        <path id="n" d="M62.5.388C27.982.388 0 28.408 0 62.971c0 34.564 27.982 62.583 62.5 62.583S125 97.534 125 62.971"/>
        <path id="p" d="M62.5.388C27.982.388 0 28.408 0 62.971c0 34.564 27.982 62.583 62.5 62.583S125 97.534 125 62.971 97.018.388 62.5.388z"/>
        <path id="r" d="M62.5.388C27.982.388 0 28.408 0 62.971c0 34.564 27.982 62.583 62.5 62.583S125 97.534 125 62.971 97.018.388 62.5.388z"/>
        <path id="t" d="M62.5.388C27.982.388 0 28.408 0 62.971c0 34.564 27.982 62.583 62.5 62.583S125 97.534 125 62.971"/>
        <path id="v" d="M62.5.388C27.982.388 0 28.408 0 62.971c0 34.564 27.982 62.583 62.5 62.583S125 97.534 125 62.971"/>
        <path id="x" d="M62.5.388C27.982.388 0 28.408 0 62.971c0 34.564 27.982 62.583 62.5 62.583S125 97.534 125 62.971"/>
        <path id="z" d="M62.5.388C27.982.388 0 28.408 0 62.971c0 34.564 27.982 62.583 62.5 62.583S125 97.534 125 62.971 97.018.388 62.5.388z"/>
        <path id="B" d="M62.5.388C27.982.388 0 28.408 0 62.971c0 34.564 27.982 62.583 62.5 62.583S125 97.534 125 62.971"/>
        <path id="D" d="M62.5.388C27.982.388 0 28.408 0 62.971c0 34.564 27.982 62.583 62.5 62.583S125 97.534 125 62.971"/>
        <path id="F" d="M62.5.388C27.982.388 0 28.408 0 62.971c0 34.564 27.982 62.583 62.5 62.583S125 97.534 125 62.971 97.018.388 62.5.388z"/>
        <path id="H" d="M62.5.388C27.982.388 0 28.408 0 62.971c0 34.564 27.982 62.583 62.5 62.583S125 97.534 125 62.971 97.018.388 62.5.388z"/>
        <path id="J" d="M62.5.417C27.982.417 0 28.437 0 63c0 34.564 27.982 62.583 62.5 62.583S125 97.563 125 63C125 28.436 97.018.417 62.5.417z"/>
    </defs>
    <g fill="none" fill-rule="evenodd">
        <path fill="#FFF" d="M62.5 0C27.982 0 0 27.982 0 62.5S27.982 125 62.5 125 125 97.018 125 62.5 97.018 0 62.5 0z"/>
        <g transform="translate(0 .029)">
            <mask id="b" fill="#fff">
                <use xlink:href="#a"/>
            </mask>
            <path fill="#00CCA3" d="M61.694 60.806l-2.12 17.434-.013.115a6.979 6.979 0 0 1-7.766 6.084 7.012 7.012 0 0 1-4.928-3.016l-11.05-16.326-1.384-2.046-1.233-1.825-1.384-2.042-2.267-3.35 5.116-4.532 3.012 2.633 1.856 1.622 1.656 1.447 1.852 1.622 6.085 5.322 2.035-5.653 10.533 2.51z" mask="url(#b)"/>
        </g>
        <g transform="translate(0 .029)">
            <mask id="d" fill="#fff">
                <use xlink:href="#c"/>
            </mask>
            <path fill="#005D91" d="M91.662 102.35l-.22 2.7-.314 3.827-7.135 95.56H77.59l-7.395-77.324-6.508 77.324h-6.203l-7.018-88.38-.235-2.676-.137-1.608-.582-6.693-.24-2.73z" mask="url(#d)"/>
        </g>
        <g transform="translate(0 .029)">
            <mask id="f" fill="#fff">
                <use xlink:href="#e"/>
            </mask>
            <path fill="#00CCA3" d="M92.52 109.787H48.897l.016-.939.346-20.452 41.205-7.677.929 13.135z" mask="url(#f)"/>
        </g>
        <g transform="translate(0 .029)">
            <mask id="h" fill="#fff">
                <use xlink:href="#g"/>
            </mask>
            <path fill="#E87849" d="M81.758 27.554c0-7.592-4.542-13.747-10.145-13.747s-10.27 5.894-10.286 13.486c-.012 6.046.247 10.095 1.65 12.027 2.005 2.76 5.501 2.43 8.636 1.98 6.852-.984 10.145-6.154 10.145-13.746" mask="url(#h)"/>
        </g>
        <path fill="#4F0400" d="M95.783 59.188s-16.218-6.01-17.667-13.07c-1.124-5.46-.501-7.453-.501-7.453l3.399-10.25.7-2.107s-.753-.138-1.966-.546c-2.886-.973-8.384-3.468-12.617-9.246 0 0-1.616 5.526-5.523 7.67 0 0 .492-9.015 6.85-13.131a11.204 11.204 0 0 1 1.84-.97c1.196-.51 2.555-.852 4.102-.982 12.022-1.003 14.73 8.41 14.668 13.9-.066 5.886-3.248 12.61-1.217 15.833 3.492 5.538 6.475 6.912 7.932 14.21.969 4.83 0 6.142 0 6.142"/>
        <g transform="translate(0 .029)">
            <mask id="k" fill="#fff">
                <use xlink:href="#j"/>
            </mask>
            <path fill="#E87849" d="M82.864 29.398c1.035-1.796.83-3.855-.46-4.6-1.29-.746-3.174.105-4.209 1.9-1.035 1.795-.829 3.855.46 4.6 1.29.746 3.175-.105 4.21-1.9" mask="url(#k)"/>
        </g>
        <g transform="translate(0 .029)">
            <mask id="m" fill="#fff">
                <use xlink:href="#l"/>
            </mask>
            <path fill="#005589" d="M80.128 29.154c-.34.5-.7.893-1.093 1.29a16.71 16.71 0 0 1-1.221 1.107 22.106 22.106 0 0 1-2.693 1.861c-.932.567-1.912 1.04-2.897 1.497-.495.223-1 .422-1.5.634l-1.525.563a.454.454 0 1 1-.314-.854h.002l.021-.008 1.496-.531c.49-.202.984-.39 1.468-.6.963-.434 1.922-.884 2.828-1.421a21.36 21.36 0 0 0 2.613-1.761c.405-.332.805-.67 1.173-1.038a8.402 8.402 0 0 0 1-1.145l.018-.025a.38.38 0 0 1 .624.43" mask="url(#m)"/>
        </g>
        <g transform="translate(0 .029)">
            <mask id="o" fill="#fff">
                <use xlink:href="#n"/>
            </mask>
            <path fill="#005589" d="M69.954 35.388c-.23-.696-1.052-1.05-1.838-.792-.787.26-1.238 1.034-1.01 1.731.23.696 1.053 1.051 1.839.792.787-.26 1.238-1.034 1.009-1.73" mask="url(#o)"/>
        </g>
        <g transform="translate(0 .029)">
            <mask id="q" fill="#fff">
                <use xlink:href="#p"/>
            </mask>
            <path fill="#00CCA3" d="M65.32 47.94s-8.521 2.787-11.125 4.54c-2.603 1.753-4.713 10.517-4.937 12.989-.224 2.472 0 22.928 0 22.928h45.44s4.639-18.577 1.728-28.138C93.516 50.698 78.888 46.3 78.888 46.3L65.32 47.94z" mask="url(#q)"/>
        </g>
        <g transform="translate(0 .029)">
            <mask id="s" fill="#fff">
                <use xlink:href="#r"/>
            </mask>
            <path fill="#E87849" d="M71.616 82.53s3.375-.135 5.206-.34v4.112h-3.915l-1.291-3.773z" mask="url(#s)"/>
        </g>
        <g transform="translate(0 .029)">
            <mask id="u" fill="#fff">
                <use xlink:href="#t"/>
            </mask>
            <path stroke="#00876B" stroke-linecap="round" stroke-linejoin="round" stroke-width=".5" d="M56.94 67.656l.625-4.236" mask="url(#u)"/>
        </g>
        <g transform="translate(0 .029)">
            <mask id="w" fill="#fff">
                <use xlink:href="#v"/>
            </mask>
            <path fill="#E87849" d="M79.528 46.511l-.125 1.769c-.721 1.525-1.55 2.884-2.803 3.598a3.265 3.265 0 0 1-2.114 1.244c-2.67.369-5.101.098-7.272-.855-1.265-1.28-2.111-2.66-2.293-4.193a16.821 16.821 0 0 0 2.177-3.47c.15-.325.278-.634.39-.929a12.1 12.1 0 0 0 .58-1.96l.054-.28c.103-.583.106-.921.106-.921l9.389-1.878a10.36 10.36 0 0 0-.033.846c0 3.785 1.944 7.03 1.944 7.03" mask="url(#w)"/>
        </g>
        <g transform="translate(0 .029)">
            <mask id="y" fill="#fff">
                <use xlink:href="#x"/>
            </mask>
            <path stroke="#00876B" stroke-linecap="round" stroke-linejoin="round" stroke-width=".5" d="M64.79 48.117s.41 5.236 7.37 5.236 7.37-6.843 7.37-6.843" mask="url(#y)"/>
        </g>
        <g transform="translate(0 .029)">
            <mask id="A" fill="#fff">
                <use xlink:href="#z"/>
            </mask>
            <path fill="#00CCA3" d="M89.666 93.714l-10.154-1.59-4.827-5.823.232-3.974 3.373-.321 2.443-.233 2.047-.195 2.442-.233 3.419-.325z" mask="url(#A)"/>
        </g>
        <g transform="translate(0 .029)">
            <mask id="C" fill="#fff">
                <use xlink:href="#B"/>
            </mask>
            <path fill="#DD6C43" d="M75.165 40.235s-3.521 3.042-8.066 4.369c.148-.325.277-.634.39-.929a12.1 12.1 0 0 0 .58-1.96s5.48-.352 7.096-1.48" mask="url(#C)"/>
        </g>
        <g transform="translate(0 .029)">
            <mask id="E" fill="#fff">
                <use xlink:href="#D"/>
            </mask>
            <path stroke="#00876B" stroke-linecap="round" stroke-linejoin="round" stroke-width=".5" d="M87.75 67.843l-2.528 13.503" mask="url(#E)"/>
        </g>
        <g transform="translate(0 .029)">
            <mask id="G" fill="#fff">
                <use xlink:href="#F"/>
            </mask>
            <path fill="#00BC93" d="M92.52 109.787H48.897l.029-1.784C61.168 105.91 76.82 101.919 83.7 92.83c3.4.764 4.328.256 7.69 1.024l1.13 15.933z" mask="url(#G)"/>
        </g>
        <g transform="translate(0 .029)">
            <mask id="I" fill="#fff">
                <use xlink:href="#H"/>
            </mask>
            <path fill="#E87849" d="M71.616 82.53s-4.48-3.74-8.329 1.62l.828 2.152h8.792l-1.291-3.773z" mask="url(#I)"/>
        </g>
        <mask id="K" fill="#fff">
            <use xlink:href="#J"/>
        </mask>
        <path fill="#DBEEF8" d="M20.612 99.47h91.133V94.5H20.612z" mask="url(#K)"/>
        <path fill="#E8F8FE" d="M31.411 132.585h4.97V99.5h-4.97zM97.396 132.585h4.97V99.5h-4.97z" mask="url(#K)"/>
        <path fill="#DBEEF8" d="M97.396 104.825h4.97V99.5h-4.97zM31.412 104.825h4.97V99.5h-4.97z" mask="url(#K)"/>
        <path fill="#E87849" d="M33.384 52.588s1.067-4.504.241-6.182c-.906-1.843-2.197 1.499-2.197 2.71 0 1.21.857 4.41.857 4.41l1.099-.938z" mask="url(#K)"/>
        <path fill="#E87849" d="M32.294 49.434s-4.264-6.965-7.588-6.031c-3.324.934-3.793 6.335 5.488 12.004l2.49-2.125-.39-3.848z" mask="url(#K)"/>
        <path stroke="#00876B" stroke-linecap="round" stroke-linejoin="round" stroke-width=".5" d="M29.628 55.833l5.062-4.567" mask="url(#K)"/>
        <path fill="#005589" d="M82.552 27.014a1.392 1.392 0 0 1-1.376 1.41c-.057 0-.11 0-.162-.008a1.399 1.399 0 0 1-1.25-1.37c0-.024 0-.053.004-.081v-.029c.012-.236.008-.587-.004-.888-.004-.094-.008-.192-.016-.286a17.784 17.784 0 0 0-.346-2.568 17.23 17.23 0 0 0-1.189-3.655 15.194 15.194 0 0 0-4.774-5.953c-1.046-.763-2.198-1.399-3.398-1.932-.525-.2-1.042-.428-1.583-.6a11.238 11.238 0 0 1 1.84-.97c.105.033.211.07.317.102 1.339.502 2.64 1.121 3.858 1.908a17.236 17.236 0 0 1 5.804 6.43 19.546 19.546 0 0 1 1.595 4.076c.195.705.342 1.422.46 2.148a16.635 16.635 0 0 1 .22 2.266" mask="url(#K)"/>
        <path fill="#00324E" d="M84.434 29.035c.23-2.536-1.028-4.722-2.807-4.884-1.78-.16-3.408 1.764-3.637 4.3-.229 2.536 1.028 4.722 2.807 4.883 1.78.162 3.408-1.764 3.637-4.3" mask="url(#K)"/>
        <path fill="#005589" d="M82.73 28.88c.107-1.194-.485-2.224-1.323-2.3-.838-.075-1.604.831-1.712 2.026-.108 1.194.484 2.223 1.322 2.3.838.075 1.605-.832 1.713-2.026" mask="url(#K)"/>
        <path fill="#00BC93" d="M39.533 55.586L33.2 61.254l-1.384-2.042 5.861-5.248zM43.041 58.654l-7.224 6.472-1.384-2.046 6.756-6.048zM80.732 81.802v7.185a1.22 1.22 0 1 1-2.442 0v-6.952l2.442-.233zM85.222 81.374v7.613a1.22 1.22 0 1 1-2.442 0v-7.38l2.442-.233z" mask="url(#K)"/>
        <path stroke="#00876B" stroke-linecap="round" stroke-linejoin="round" stroke-width=".5" d="M74.684 86.331l.23-3.945 10.308-1.012s1.276.15 1.66 1.424" mask="url(#K)"/>
        <path fill="#E8F8FE" d="M119.054 94.725H19.778a.734.734 0 0 1-.733-.735v-4.83c0-.406.329-.734.733-.734h99.276c.406 0 .734.328.734.734v4.83a.734.734 0 0 1-.734.735" mask="url(#K)"/>
        <path fill="#B6E8FC" d="M32.015 88.426h32.907l-8.89-23.1a.995.995 0 0 0-.927-.637H24.329a.995.995 0 0 0-.928 1.354l8.614 22.383z" mask="url(#K)"/>
        <path fill="#65D0F9" d="M42.148 79.315c-1.536-.482-2.486-1.82-2.12-2.988.365-1.168 1.907-1.724 3.443-1.242 1.537.481 2.486 1.819 2.121 2.987-.365 1.168-1.907 1.725-3.444 1.243M77.446 86.331h-13.33l.805 2.094h13.52v-1.099a.995.995 0 0 0-.995-.995" mask="url(#K)"/>
        <path fill="#B6E8FC" d="M57.756 15.78H22.62a1.78 1.78 0 0 0-1.778 1.78V38.5c0 .983.795 1.78 1.778 1.78h32.748l6.35 3.618-2.185-5.398V17.56a1.78 1.78 0 0 0-1.778-1.78" mask="url(#K)"/>
        <path stroke="#65D0F9" stroke-linecap="round" stroke-linejoin="round" stroke-width=".5" d="M30.94 21.84h8.237M30.94 27.954h22.516M30.94 34.068h14.172" mask="url(#K)"/>
        <path fill="#65D0F9" d="M25.374 23.867h2.384c.46 0 .833-.373.833-.834v-2.387a.834.834 0 0 0-.833-.835h-2.384a.834.834 0 0 0-.834.835v2.387c0 .46.374.834.834.834M25.374 29.982h2.384c.46 0 .833-.374.833-.834V26.76a.834.834 0 0 0-.833-.835h-2.384a.834.834 0 0 0-.834.835v2.388c0 .46.374.834.834.834" mask="url(#K)"/>
        <path stroke="#65D0F9" stroke-linecap="round" stroke-linejoin="round" stroke-width=".5" d="M25.374 36.097h2.384c.46 0 .833-.374.833-.835v-2.387a.834.834 0 0 0-.833-.835h-2.384a.834.834 0 0 0-.834.835v2.387c0 .46.374.835.834.835z" mask="url(#K)"/>
    </g>
</svg>
