<svg xmlns="http://www.w3.org/2000/svg" xmlns:xlink="http://www.w3.org/1999/xlink" width="125" height="125" viewBox="0 0 125 125">
    <defs>
        <path id="a" d="M62.5 0C27.982 0 0 27.983 0 62.5 0 97.018 27.982 125 62.5 125S125 97.018 125 62.5C125 27.983 97.018 0 62.5 0z"/>
    </defs>
    <g fill="none" fill-rule="evenodd">
        <path fill="#FFF" d="M62.5 0C27.982 0 0 27.982 0 62.5S27.982 125 62.5 125 125 97.018 125 62.5 97.018 0 62.5 0z"/>
        <mask id="b" fill="#fff">
            <use xlink:href="#a"/>
        </mask>
        <path fill="#DBEEF8" d="M25.05 49.905h78.634V33.301H25.05z" mask="url(#b)"/>
        <path fill="#DBEEF8" d="M16.075 36.301h8.976v-3h-8.976zM16.075 49.905h8.976v-3h-8.976zM103.27 36.301h8.975v-3h-8.975zM103.27 49.905h8.975v-3h-8.975z" mask="url(#b)"/>
        <path stroke="#E8F8FE" stroke-linecap="round" stroke-linejoin="round" stroke-width=".5" d="M39.634 33.77l-5.028-5.027-5.028 5.028M99.46 33.77l-5.028-5.027-5.028 5.028M94.432 28.743V8.055M34.606 28.743V.756" mask="url(#b)"/>
        <path fill="#DBEEF8" d="M36.027 28.743a1.42 1.42 0 1 0-2.84 0 1.42 1.42 0 0 0 2.84 0M95.852 28.743a1.42 1.42 0 1 0-2.84 0 1.42 1.42 0 0 0 2.84 0M25.72 71.82L3.236 147.17l15.911 4.747 22.483-75.35z" mask="url(#b)"/>
        <path fill="#DBEEF8" d="M41.322 67.108l-2.566 8.601 2.874.858 2.566-8.6zM28.286 63.219l-2.566 8.6 2.874.858 2.566-8.6z" mask="url(#b)"/>
        <path fill="#FFBB87" d="M75.082 39.858s.21 3.377 1.982 4.85l-2.68 13.677-4.632 4.406-3.535-2.111-3.778-13.55 12.643-7.272z" mask="url(#b)"/>
        <path fill="#FFBB87" d="M77.981 31.43c0 8.562-4.141 11.312-9.763 14.462-1.779.992-5.353 3.28-8.066 1.517-4.763-3.092-5.983-9.709-6.638-15.134-.046-.375-.087-.741-.128-1.104-.2-1.783-.197-3.241-.063-4.454.358-3.32 1.68-4.758 2.325-5.8 2.541-4.079 5.708-4.996 10.745-4.996 6.4 0 11.588 6.942 11.588 15.509" mask="url(#b)"/>
        <path fill="#333" d="M75.034 23.512c.61-.566 1.537-.714 2.338-.49.8.224 1.48.778 1.982 1.442.501.664.84 1.436 1.133 2.214 1.598 4.223 2.008 8.82 1.788 13.33-.07 1.422-.214 2.89-.895 4.14-.682 1.251-2.03 2.24-3.447 2.088-1.31-.14-2.376-1.232-2.805-2.477-.43-1.245-.32-2.613-.046-3.9.274-1.288.707-2.542.92-3.841.38-2.333.029-4.706-.539-6.978-.371-1.49-1.847-4.213-.429-5.528" mask="url(#b)"/>
        <path fill="#C3EDFC" d="M97.618 54.07s6.39 1.47 5.879 9.28c-.511 7.81.948 22.788-10.037 28.51l-2.884-11.554-2.261-6.008L93.497 55.5l4.121-1.43z" mask="url(#b)"/>
        <path fill="#333" d="M87.369 43.1a11.842 11.842 0 0 1 1.27 7.342c-3.171.63-6.66-.996-8.217-3.83-1.09-1.983-1.17-4.445-.361-6.542.268-.694.938-2.481 1.872-2.165.993.335 2.116 1.298 2.89 1.986 1.026.911 1.895 2 2.546 3.208" mask="url(#b)"/>
        <path fill="#C3EDFC" d="M48.211 57.091s-4.103 4.088-6.643 10.818h9.563s-1.166-8.295-2.92-10.818" mask="url(#b)"/>
        <path fill="#C3EDFC" d="M90.577 80.304l2.882 11.555-2.089 45.926H47.127s4.13-33.654 4.003-41.106c-.122-7.453 1.427-28.878-2.919-39.588l11.94-6.331 5.061 9.32 4.54 2.711 4.937-4.706L82.33 46.47l15.286 7.599s-7.04 3.482-7.04 26.235" mask="url(#b)"/>
        <path fill="#00CCA3" d="M90.577 80.304l2.882 11.555-2.089 45.926H74.432l-.13-80.065 8.03-11.25 4.786 2.38 4.647 2.308 5.852 2.91s-7.04 3.483-7.04 26.236M66.266 58.682l-1.183 79.103H47.127s4.13-33.653 4.003-41.106c-.122-7.453 1.428-28.878-2.919-39.588l4.252-2.257 4.572-2.422 3.116-1.652 6.115 7.922z" mask="url(#b)"/>
        <path fill="#00BC93" d="M91.765 51.159l-4.718 7.463a4.905 4.905 0 0 0-.76 2.621v76.542h-5.162V59.076c0-.488.141-.967.4-1.38l5.593-8.847 4.647 2.31zM60.76 59.076v78.709h-5.162V61.233a4.91 4.91 0 0 0-.752-2.613l-2.383-3.786 4.572-2.422 3.327 5.29c.258.412.399.886.399 1.374" mask="url(#b)"/>
        <path fill="#FFBB87" d="M90.207 90.574l-19.453-9.781a2.885 2.885 0 0 1 2.09-5.35l20.931 5.997a4.925 4.925 0 1 1-3.568 9.134" mask="url(#b)"/>
        <path fill="#005589" d="M53.841 99.77H75.43a2.083 2.083 0 0 0 1.875-2.992L63.903 69.085a2.084 2.084 0 0 0-1.875-1.176H40.439a2.083 2.083 0 0 0-1.875 2.991l13.402 27.693a2.083 2.083 0 0 0 1.875 1.176" mask="url(#b)"/>
        <path fill="#B3E7FC" d="M76.851 43.838l-1.723-.078s.073.692 1.058 1.637l.665-1.56z" mask="url(#b)"/>
        <path fill="#E8FCFF" d="M72.035 55.118l4.817-11.28 5.478 2.633-6.74 12.458z" mask="url(#b)"/>
        <path stroke="#0067A7" stroke-linecap="round" stroke-linejoin="round" stroke-width=".5" d="M70.242 64.601l-4.654 7.285" mask="url(#b)"/>
        <path fill="#E8FCFF" d="M60.151 50.76l2.14-2.426 5.617 6.784-3.12 5.524z" mask="url(#b)"/>
        <path fill="#FFBB87" d="M72.845 77.488s-.465-7.39-7.824-6.093l4.18 8.637 4.538 2.255-.894-4.799z" mask="url(#b)"/>
        <path fill="#C3EDFC" d="M47.977 90.357l-5.51 1.178a6.12 6.12 0 0 1-5.491-3.15l-.676-1.21a6.138 6.138 0 0 1-.329-5.252l3.59-8.96 5.037 10.41 3.38 6.984z" mask="url(#b)"/>
        <path fill="#FFBB87" d="M49.902 94.338l-4.949-10.239c-7.021-1.244-8.653 3.076-8.653 3.076l.676 1.21s2.672 5.14 12.926 5.953" mask="url(#b)"/>
        <path fill="#B3E7FC" d="M72.035 55.118l-2.283 7.673 4.55-4.337-.002-.734.07-.098zM67.908 55.118l1.844 7.673-3.536-2.111-.163-2.277zM62.29 48.334l.43-.196.301 1.079z" mask="url(#b)"/>
        <path fill="#FFBB87" d="M53.076 86.863c.692.057 1.398.123 2.036.4.637.276 1.206.802 1.354 1.48.196.898-.369 1.782-.999 2.45a9.88 9.88 0 0 1-4.455 2.711c-1.101.314-2.325.424-3.36-.069-1.264-.602-1.992-2.005-2.163-3.395-.093-.756-.046-1.521.061-2.273.063-.438.057-1.547.538-1.716.241-.084.631.012.878.025a237.412 237.412 0 0 1 3.539.201c.857.055 1.714.116 2.571.186" mask="url(#b)"/>
        <path fill="#C3EDFC" d="M90.577 80.304l-2.54-.408c-.308 3.35.702 7.033 2.671 10.96l2.751 1.003 1.973-1.555 1.367-1.37.818-2.52-.398-5.432-3.855-.841-2.787.163z" mask="url(#b)"/>
        <path fill="#333" d="M55.747 26.715s4.69 7.244 20.397 6.587c1.236-2.175.774-4.37-1.434-6.587H55.747z" mask="url(#b)"/>
        <path fill="#333" d="M58.293 29.146s-.81 1.854-4.779 3.13c-.046-.376-.087-.742-.128-1.105-.2-1.783-.197-3.242-.063-4.454h2.425l2.545 2.43z" mask="url(#b)"/>
        <path fill="#00BC93" d="M48.808 27.938l34.757 2.93a.907.907 0 0 0 .948-1.155l-.255-.885a.906.906 0 0 0-.795-.652L49.83 25.34a.865.865 0 0 0-.683.248l-.878.876a.864.864 0 0 0 .538 1.473" mask="url(#b)"/>
        <path fill="#00CCA3" d="M51.188 25.455l3.575-8.006a3.44 3.44 0 0 1 1.449-1.591l9.28-5.24s18 3.042 16.784 17.458l-31.088-2.621z" mask="url(#b)"/>
        <path fill="#00BC93" d="M72.444 12.933l.175-2.08s-3.15-1.547-5.065-1.404c-1.914.144-9.674 6.81-10.49 16.5l5.026.425s1.641-14.175 10.354-13.44" mask="url(#b)"/>
        <path fill="#FF8D63" d="M62.696 48.05s2.334-.162 7.491-3.294c0 0-1.867 3.078-6.398 5.387l-.768-.926-.325-1.168z" mask="url(#b)"/>
        <path stroke="#FF8D63" stroke-linecap="round" stroke-linejoin="round" stroke-width=".5" d="M46.088 86.451s-1.835.197-2.677 3.335" mask="url(#b)"/>
        <path stroke="#71C2DD" stroke-linecap="round" stroke-linejoin="round" stroke-width=".5" d="M94.98 83.285c-1.174-2.158-4.402-2.981-4.402-2.981s1.534-.53 2.786-.163" mask="url(#b)"/>
    </g>
</svg>
