<svg xmlns="http://www.w3.org/2000/svg" xmlns:xlink="http://www.w3.org/1999/xlink" width="125" height="126" viewBox="0 0 125 126">
    <defs>
        <path id="a" d="M62.5 1C27.982 1 0 28.89 0 63.292c0 34.404 27.982 62.293 62.5 62.293S125 97.696 125 63.292C125 28.89 97.018 1 62.5 1z"/>
    </defs>
    <g fill="none" fill-rule="evenodd">
        <path fill="#FFF" d="M62.5 0C27.982 0 0 27.982 0 62.5S27.982 125 62.5 125 125 97.018 125 62.5 97.018 0 62.5 0z"/>
        <mask id="b" fill="#fff">
            <use xlink:href="#a"/>
        </mask>
        <path fill="#DBEEF8" d="M17.088 102.898h45.497V23.675H17.088zM62.64 102.898h45.497V23.675H62.64z" mask="url(#b)"/>
        <path fill="#E8F8FE" d="M31.72 37.914c-2.705-.424-5.842-.341-9.2 0v-9.651c3.067.639 6.133.639 9.2 0-.428 3.71-.64 7.171 0 9.651M60.612 37.914c-2.704-.424-5.841-.341-9.2 0v-9.651c3.067.639 6.134.639 9.2 0-.428 3.71-.64 7.171 0 9.651M45.546 37.914c-2.704-.424-5.84-.341-9.198 0 .51-3.527.636-6.82 0-9.651a43.11 43.11 0 0 1 9.198 0c-.427 3.71-.64 7.171 0 9.651M31.72 67.77c-2.705-.424-5.842-.34-9.2 0V58.12c3.067.639 6.133.639 9.2 0-.428 3.71-.64 7.172 0 9.651M60.612 67.77c-2.704-.424-5.841-.34-9.2 0V58.12c3.067.639 6.134.639 9.2 0-.428 3.71-.64 7.172 0 9.651M45.546 67.77c-2.704-.424-5.84-.34-9.198 0 .51-3.527.636-6.821 0-9.651a43.11 43.11 0 0 1 9.198 0c-.427 3.71-.64 7.172 0 9.651M31.72 97.627c-2.705-.425-5.842-.342-9.2 0v-9.652c3.067.64 6.133.64 9.2 0-.428 3.71-.64 7.172 0 9.652M60.612 97.627c-2.704-.425-5.841-.342-9.2 0v-9.652c3.067.64 6.134.64 9.2 0-.428 3.71-.64 7.172 0 9.652M45.546 97.627c-2.704-.425-5.84-.342-9.198 0 .51-3.528.636-6.822 0-9.652a43.11 43.11 0 0 1 9.198 0c-.427 3.71-.64 7.172 0 9.652M32.052 52.108c-2.727-.232-5.85.072-9.175.65a34.243 34.243 0 0 1-.688-9.626c3.277-.716 6.307-.747 9.175-.652-.162 3.731-.128 7.2.688 9.628M60.612 52.445c-5.989.053-7.444-.108-9.2 0 .671-3.482.773-6.74 0-9.651 3.067-.47 6.134-.47 9.2 0-.428 3.71-.64 7.171 0 9.651M45.546 52.445c-2.704-.424-5.84-.341-9.198 0-.583-3.527-.23-6.82 0-9.651 3.286.406 6.324.391 9.198 0-.427 3.71-.64 7.171 0 9.651M32.052 82.882c-2.727-.232-5.85.073-9.175.651a34.243 34.243 0 0 1-.688-9.627c3.277-.715 6.307-.746 9.175-.651-.162 3.73-.128 7.199.688 9.627M60.612 83.22c-2.704-.425-5.841-.342-9.2 0 .671-3.483.773-6.74 0-9.652 3.067-.47 6.134-.47 9.2 0-.428 3.71-.64 7.172 0 9.652M45.546 83.22c-2.704-.425-5.84-.342-9.198 0-.583-3.528-.23-6.821 0-9.652 3.286.406 6.324.392 9.198 0-.427 3.71-.64 7.172 0 9.652" mask="url(#b)"/>
        <path stroke="#DBEEF8" stroke-linecap="round" stroke-linejoin="round" stroke-width=".5" d="M23.342 30.34a57.253 57.253 0 0 0 5.91-.349M23.522 32.12l5.927-.164M23.642 34.733l4.73-.094M38.43 30.341c1.267.017 2.534.032 3.802.048M38.299 33.112c.73-.438 1.633-.443 2.485-.414.852.028 1.744.07 2.514-.295M43.724 34.394c-.964.663-2.204.735-3.374.784l-1.09.046M24.119 50.275h3.645M29.925 49.315l-3.645-.107M23.995 43.687h2.008M38.174 45.01h6.178M38.606 47.414l5.498-.009M52.617 61.49l4.615.105M58.196 64.436H53.65M55.234 63.075l3.307-.044M31.115 60.006l-3.514.208M29.6 62.925h-5.65M52.754 35.706c2-.015 3.998-.113 5.99-.293M58.61 33.81l-5.512-.083M53.51 31.472h4.687M24.405 92.698h4.383M23.973 95.815l5.14.061M29.815 90.843l-5.356.111M38.473 95.91l4.382.125M43.341 94.693h-4.706M38.472 92.786l5.735-.045M44.153 89.786h-5.79M39.446 91.404h2.543M58.187 45.18l-4.357-.14M53.596 47.365l4.729-.02" mask="url(#b)"/>
        <path fill="#E8F8FE" d="M95.026 37.914c2.704-.424 5.84-.341 9.199 0v-9.651c-3.066.639-6.133.639-9.2 0 .429 3.71.641 7.171 0 9.651M66.134 37.914c2.704-.424 5.84-.341 9.199 0v-9.651c-3.066.639-6.133.639-9.2 0 .429 3.71.641 7.171 0 9.651M81.199 37.914c2.704-.424 5.841-.341 9.199 0-.51-3.527-.636-6.82 0-9.651a43.114 43.114 0 0 0-9.2 0c.429 3.71.641 7.171 0 9.651M95.026 67.77c2.704-.424 5.84-.34 9.199 0V58.12c-3.066.639-6.133.639-9.2 0 .429 3.71.641 7.172 0 9.651M66.134 67.77c2.704-.424 5.84-.34 9.199 0V58.12c-3.066.639-6.133.639-9.2 0 .429 3.71.641 7.172 0 9.651M81.199 67.77c2.704-.424 5.841-.34 9.199 0-.51-3.527-.636-6.821 0-9.651a43.114 43.114 0 0 0-9.2 0c.429 3.71.641 7.172 0 9.651M95.026 97.627c2.704-.425 5.84-.342 9.199 0v-9.652c-3.066.64-6.133.64-9.2 0 .429 3.71.641 7.172 0 9.652M66.134 97.627c2.704-.425 5.84-.342 9.199 0v-9.652c-3.066.64-6.133.64-9.2 0 .429 3.71.641 7.172 0 9.652M81.199 97.627c2.704-.425 5.841-.342 9.199 0-.51-3.528-.636-6.822 0-9.652a43.114 43.114 0 0 0-9.2 0c.429 3.71.641 7.172 0 9.652M94.694 52.108c2.727-.232 5.85.072 9.175.65.685-3.218.918-6.427.688-9.626-3.277-.716-6.308-.747-9.176-.652.163 3.731.128 7.2-.687 9.628M66.134 52.445c5.988.053 7.443-.108 9.198 0-.67-3.482-.771-6.74 0-9.651a30.202 30.202 0 0 0-9.198 0c.428 3.71.64 7.171 0 9.651M81.199 52.445c2.704-.424 5.841-.341 9.199 0 .582-3.527.23-6.82 0-9.651-3.287.406-6.325.391-9.2 0 .429 3.71.641 7.171 0 9.651M94.694 82.882c2.727-.232 5.85.073 9.175.651.685-3.218.918-6.428.688-9.627-3.277-.715-6.308-.746-9.176-.651.163 3.73.128 7.199-.687 9.627M66.134 83.22c2.704-.425 5.84-.342 9.198 0-.67-3.483-.771-6.74 0-9.652a30.202 30.202 0 0 0-9.198 0c.428 3.71.64 7.172 0 9.652M81.199 83.22c2.704-.425 5.841-.342 9.199 0 .582-3.528.23-6.821 0-9.652-3.287.406-6.325.392-9.2 0 .429 3.71.641 7.172 0 9.652" mask="url(#b)"/>
        <path stroke="#DBEEF8" stroke-linecap="round" stroke-linejoin="round" stroke-width=".5" d="M103.404 30.34a57.253 57.253 0 0 1-5.911-.349M103.223 32.12l-5.927-.164M103.103 34.733l-4.73-.094M88.316 30.341l-3.802.048M88.447 33.112c-.73-.438-1.634-.443-2.486-.414-.852.028-1.743.07-2.513-.295M83.022 34.394c.964.663 2.204.735 3.374.784l1.089.046M102.627 50.275h-3.645M96.82 49.315l3.646-.107M102.75 43.687h-2.008M88.572 45.01h-6.178M88.14 47.414l-5.499-.009M74.129 61.49l-4.616.105M68.549 64.436h4.548M71.512 63.075l-3.308-.044M95.63 60.006l3.515.208M97.145 62.925h5.65M73.992 35.706c-2-.015-3.999-.113-5.99-.293M68.136 33.81l5.512-.083M73.234 31.472H68.55M102.34 92.698h-4.382M102.773 95.815l-5.14.061M96.93 90.843l5.356.111M88.273 95.91l-4.382.125M83.404 94.693h4.707M88.273 92.786l-5.734-.045M82.593 89.786h5.789M87.3 91.404h-2.543M68.559 45.18l4.356-.14M73.15 47.365l-4.73-.02" mask="url(#b)"/>
        <path fill="#00CCA3" d="M49.47 113.938s1.379-43.23-5.486-57.598c0 0 6.467-10.235 25.053-10.258 12.328-.015 26.357 9.006 26.357 9.006l-1.696 19.6c-6.097 25.422-3.798 39.25-3.798 39.25" mask="url(#b)"/>
        <path fill="#C18F68" d="M74.585 34.794l1.066 14.669-11.96-.913 1.47-9.966z" mask="url(#b)"/>
        <path fill="#4BE0C8" d="M68.17 47.922l4.574 7.477 6.565-7.527c-1.633-5.163-4.168-5.4-4.168-5.4l.143 1.967s-2.788 2.429-7.114 3.483" mask="url(#b)"/>
        <path fill="#B37C51" d="M64.723 41.55l-1.033 7s9.837-5.578 10.792-11.813l-9.759 4.814z" mask="url(#b)"/>
        <path fill="#4BE0C8" d="M64.386 43.84s.397 2.83 2.797 4.092l-6.47 6.354s-.392-4.298.365-6.808c.829-1.95 3.308-3.638 3.308-3.638" mask="url(#b)"/>
        <path fill="#00BC93" d="M86.905 71.551l3.356 22.201c.582-5.041 1.106-7.767 2.01-12.943l-5.366-9.258z" mask="url(#b)"/>
        <path stroke="#00A48A" stroke-linecap="round" stroke-linejoin="round" stroke-width=".5" d="M46.565 66.322s-.336-4.214.266-7" mask="url(#b)"/>
        <path fill="#00BC93" d="M86.905 71.551s-1.473 28.204-6.12 32.833c-6.337 6.315-31.295 8.573-31.295 8.573h-.013l-.006.981H89.9s-1.318-7.936.693-22.835L86.905 71.55z" mask="url(#b)"/>
        <path fill="#0079C8" d="M67.854 243.41h-8.49c-10.81-63.554-9.894-124.814-9.894-124.814H89.9s2.87 43.948 5.25 124.814h-8.864C73.9 177.354 69.644 136.974 69.644 136.974h-.58s-2.976 40.38-1.21 106.436" mask="url(#b)"/>
        <path fill="#005891" d="M49.47 118.596H89.9v-4.658H49.47z" mask="url(#b)"/>
        <path fill="#FFF" d="M70.981 119.493h-3.655a1.973 1.973 0 0 1-1.977-1.97v-2.387c0-1.087.885-1.969 1.977-1.969h3.655c1.092 0 1.977.882 1.977 1.97v2.386c0 1.088-.885 1.97-1.977 1.97" mask="url(#b)"/>
        <path fill="#005891" d="M70.398 118.144h-2.722a1.132 1.132 0 0 1-1.134-1.13v-1.369c0-.624.508-1.13 1.134-1.13h2.722c.626 0 1.134.506 1.134 1.13v1.37c0 .623-.508 1.13-1.134 1.13" mask="url(#b)"/>
        <path fill="#0079C8" d="M76.169 118.917h1.066v-4.978h-1.066zM86.535 118.917h1.066v-4.978h-1.066zM59.353 118.917h1.066v-4.978h-1.066zM51.291 118.917h1.066v-4.978h-1.066zM64.258 50.683l1.068 4.788 2.92.245 2.078-4.274-2.154-3.52-.987.01z" mask="url(#b)"/>
        <path fill="#009FF1" d="M60.914 96.53l4.43 5.166 5.767-5.603s-1.98-13.35-2.87-40.422l-2.915-.2s-4.834 33.223-4.412 41.059" mask="url(#b)"/>
        <path fill="#C18F68" d="M82.54 28.193c-2.044 6.59-13.064 17.36-21.14 13.533-6.016-2.851-3.617-14.751-1.572-21.34 2.045-6.59 9.586-9.722 15.059-8.028 6.33 1.96 9.698 9.246 7.653 15.835" mask="url(#b)"/>
        <path fill="#B37C51" d="M81.602 18.041l-9.87 6.316s1.142 2.757-.62 7.781c-3.536 10.077-10.733 8.846-10.852 8.856.342.284.718.532 1.14.732 8.075 3.828 19.096-6.943 21.14-13.533a13.32 13.32 0 0 0-.938-10.152" mask="url(#b)"/>
        <path fill="#333" d="M62.5 15.657s.673 1.986 7.03 1.94c4.544-.033 4.92 3.008 2.797 4.976-1.608 1.491.364 4.44 1.2 5.162.227 2.64-.602 3.465.865 3.68.94.137-1.162 3.235-1.06 6.316.047 1.446 1.746 2.096 2.656 1.012.442-.529 1.04-1.122 1.844-1.76 3.004-2.377 6.558-7.789 5.84-14.138-.72-6.349-5.119-9.99-10.122-10.858-6.754-1.172-11.05 3.67-11.05 3.67" mask="url(#b)"/>
        <path fill="#B37C51" d="M76.645 31.897c-.553 2.065-2.183 3.387-3.64 2.955-1.458-.433-1.676-2.457-1.123-4.522.553-2.064 1.667-3.387 3.124-2.954 1.458.432 2.192 2.457 1.639 4.521" mask="url(#b)"/>
        <path fill="#C18F68" d="M99.287 118.072s-3.283 4.253-3.276 5.845c.005 1.238-.323 4.718-.22 6.557.029.506.397.927.896 1.025a1.11 1.11 0 0 0 1.324-1.018c.087-1.375.044-1.852 1.128-1.64.971.191 1.138 3.968 1.052 6.66-.041 1.262 1.548 1.856 2.35.88.495-.604 1.006-1.3 1.475-2.074 1.736-2.863 2.138-13.034 2.138-13.034l-6.867-3.201z" mask="url(#b)"/>
        <path fill="#C18F68" d="M98.607 116.121a164.047 164.047 0 0 1-.755 5.764v-.006a4.161 4.161 0 0 0 3.494 4.74 4.17 4.17 0 0 0 4.756-3.48c.302-1.965.627-3.92.958-5.874l-8.453-1.144z" mask="url(#b)"/>
        <path fill="#00CCA3" d="M107.68 113.834c.956-5.588 2.401-11.188 2.957-16.836.375-3.818-.596-7.534-1.783-11.145-2.175-6.618-4.418-12.42-7.288-18.762-1.47-3.247-3.227-7.323-5.152-10.356-.185-.29-.805-1.388-1.02-1.647-4.748-4.154-9.407-3.43-12.691.577a8.212 8.212 0 0 0-1.553 7.312c.514 1.88 1.794 3.305 2.923 4.843 3.36 4.576 6.179 9.571 9.096 14.44 2.936 4.898 6.608 9.977 6.365 15.857-.141 3.399-.117 6.925-.44 10.311-.19 1.974-.4 3.945-.621 5.916l8.846 1.565.36-2.075" mask="url(#b)"/>
        <path fill="#4BE0C8" d="M98.473 114.344l-.023.213c-.104.928-.21 1.856-.32 2.783-.052.442-.648 2.828-.386 3.181l8.497 1.57c.356-2.062.717-4.122 1.077-6.182l-8.845-1.565z" mask="url(#b)"/>
        <path fill="#00CCA3" d="M36.688 87.21l-.52.575a5.877 5.877 0 0 1-8.28.447 6.002 6.002 0 0 1-1.162-1.43L12.67 62.516a4.043 4.043 0 0 1 1.49-5.531 4.074 4.074 0 0 1 5.196.969l12.246 15.194 13.03-17.65c2.513-3.412 7.324-4.146 10.746-1.642A7.645 7.645 0 0 1 56.55 65.15L36.688 87.21z" mask="url(#b)"/>
        <path fill="#C18F68" d="M20.905 59.416c-1.827-2.025-3.648-4.077-5.383-6.165l.004.005a4.21 4.21 0 0 0-5.912-.568 4.176 4.176 0 0 0-.569 5.893 495.115 495.115 0 0 1 5.43 6.707l6.679-5.598a77.56 77.56 0 0 0-.25-.274" mask="url(#b)"/>
        <path fill="#4BE0C8" d="M16.884 70.228l6.964-7.682a265.304 265.304 0 0 1-4.185-4.503l-6.106 6.513 3.327 5.672z" mask="url(#b)"/>
        <path fill="#C18F68" d="M17.271 56.483c-1.045 3.076-4.497 4.628-7.56 3.518-2.85-1.032-4.643-4.144-3.53-7.196 1.508-2.68 4.497-4.967 7.56-3.858.674.245 2.116 2.617 2.448 3.206 1.557 2.763 1.438 3.283 1.082 4.33" mask="url(#b)"/>
        <path fill="#C18F68" d="M17.383 54.98s2.31-5.032 1.682-6.548c-.628-1.516-1.822-1.003-1.802.215.035 2.087-1.73 2.673-2.24 2.16l2.36 4.172zM14.737 49.93l-6.882-7.757a1.062 1.062 0 0 0-1.443-.25 1.054 1.054 0 0 0-.258 1.511l4.536 6.595 4.047-.098z" mask="url(#b)"/>
        <path fill="#C18F68" d="M10.3 49.012s-1.179-.911-2.16-.086c-.704.592-.486 1.47-.486 1.47s-.956-.642-1.673.235c-.716.878-.35 1.851-.35 1.851s-1.184-.097-1.314 1.156c-.13 1.239 2.798 4.507 2.798 4.507l2.548-4.005.636-5.128z" mask="url(#b)"/>
        <path stroke="#00A48A" stroke-linecap="round" stroke-linejoin="round" stroke-width=".5" d="M33.714 77.129c-.047-1.497-2.159-4.163-2.159-4.163s.424 1.205.184 2.573" mask="url(#b)"/>
    </g>
</svg>
