<svg xmlns="http://www.w3.org/2000/svg" xmlns:xlink="http://www.w3.org/1999/xlink" width="150" height="151" viewBox="0 0 150 151">
    <defs>
        <path id="a" d="M75 .225c-41.422 0-75 33.578-75 75 0 41.421 33.578 75 75 75 41.421 0 75-33.579 75-75s-33.579-75-75-75z"/>
        <path id="c" d="M75 .225c-41.422 0-75 33.578-75 75 0 41.421 33.578 75 75 75 41.421 0 75-33.579 75-75s-33.579-75-75-75z"/>
        <path id="e" d="M75 .225c-41.422 0-75 33.578-75 75 0 41.421 33.578 75 75 75 41.421 0 75-33.579 75-75s-33.579-75-75-75z"/>
        <path id="g" d="M75 .225c-41.422 0-75 33.578-75 75 0 41.421 33.578 75 75 75 41.421 0 75-33.579 75-75s-33.579-75-75-75z"/>
        <path id="i" d="M75 .225c-41.422 0-75 33.578-75 75 0 41.421 33.578 75 75 75 41.421 0 75-33.579 75-75"/>
        <path id="k" d="M75 .225c-41.422 0-75 33.578-75 75 0 41.421 33.578 75 75 75 41.421 0 75-33.579 75-75"/>
        <path id="m" d="M75 .225c-41.422 0-75 33.578-75 75 0 41.421 33.578 75 75 75 41.421 0 75-33.579 75-75"/>
        <path id="o" d="M75 .225c-41.422 0-75 33.578-75 75 0 41.421 33.578 75 75 75 41.421 0 75-33.579 75-75"/>
        <path id="q" d="M75 .225c-41.422 0-75 33.578-75 75 0 41.421 33.578 75 75 75 41.421 0 75-33.579 75-75"/>
        <path id="s" d="M75 .225c-41.422 0-75 33.578-75 75 0 41.421 33.578 75 75 75 41.421 0 75-33.579 75-75s-33.579-75-75-75z"/>
        <path id="u" d="M75 .225c-41.422 0-75 33.578-75 75 0 41.421 33.578 75 75 75 41.421 0 75-33.579 75-75"/>
        <path id="w" d="M75 .225c-41.422 0-75 33.578-75 75 0 41.421 33.578 75 75 75 41.421 0 75-33.579 75-75"/>
        <path id="y" d="M75 .225c-41.422 0-75 33.578-75 75 0 41.421 33.578 75 75 75 41.421 0 75-33.579 75-75"/>
        <path id="A" d="M75 .225c-41.422 0-75 33.578-75 75 0 41.421 33.578 75 75 75 41.421 0 75-33.579 75-75"/>
        <path id="C" d="M75 .225c-41.422 0-75 33.578-75 75 0 41.421 33.578 75 75 75 41.421 0 75-33.579 75-75"/>
        <path id="E" d="M75 .225c-41.422 0-75 33.578-75 75 0 41.421 33.578 75 75 75 41.421 0 75-33.579 75-75"/>
        <path id="F" d="M75 .225c-41.422 0-75 33.578-75 75 0 41.421 33.578 75 75 75 41.421 0 75-33.579 75-75"/>
        <path id="H" d="M75 .225c-41.422 0-75 33.578-75 75 0 41.421 33.578 75 75 75 41.421 0 75-33.579 75-75"/>
        <path id="J" d="M75 .225c-41.422 0-75 33.578-75 75 0 41.421 33.578 75 75 75 41.421 0 75-33.579 75-75"/>
        <path id="L" d="M75 .225c-41.422 0-75 33.578-75 75 0 41.421 33.578 75 75 75 41.421 0 75-33.579 75-75"/>
        <path id="N" d="M75 .225c-41.422 0-75 33.578-75 75 0 41.421 33.578 75 75 75 41.421 0 75-33.579 75-75s-33.579-75-75-75z"/>
        <path id="P" d="M75 .225c-41.422 0-75 33.578-75 75 0 41.421 33.578 75 75 75 41.421 0 75-33.579 75-75s-33.579-75-75-75z"/>
        <path id="R" d="M75 .225c-41.422 0-75 33.578-75 75 0 41.421 33.578 75 75 75 41.421 0 75-33.579 75-75"/>
        <path id="T" d="M75 .225c-41.422 0-75 33.578-75 75 0 41.421 33.578 75 75 75 41.421 0 75-33.579 75-75s-33.579-75-75-75z"/>
        <path id="V" d="M75 .225c-41.422 0-75 33.578-75 75 0 41.421 33.578 75 75 75 41.421 0 75-33.579 75-75"/>
        <path id="X" d="M75 .225c-41.422 0-75 33.578-75 75 0 41.421 33.578 75 75 75 41.421 0 75-33.579 75-75s-33.579-75-75-75z"/>
        <path id="Z" d="M75 .225c-41.422 0-75 33.578-75 75 0 41.421 33.578 75 75 75 41.421 0 75-33.579 75-75s-33.579-75-75-75z"/>
        <path id="ab" d="M75 .225c-41.422 0-75 33.578-75 75 0 41.421 33.578 75 75 75 41.421 0 75-33.579 75-75s-33.579-75-75-75z"/>
        <path id="ad" d="M75 .225c-41.422 0-75 33.578-75 75 0 41.421 33.578 75 75 75 41.421 0 75-33.579 75-75s-33.579-75-75-75z"/>
        <path id="af" d="M75 .225c-41.422 0-75 33.578-75 75 0 41.421 33.578 75 75 75 41.421 0 75-33.579 75-75s-33.579-75-75-75z"/>
        <path id="ah" d="M75 .225c-41.422 0-75 33.578-75 75 0 41.421 33.578 75 75 75 41.421 0 75-33.579 75-75s-33.579-75-75-75z"/>
        <path id="aj" d="M75 .225c-41.422 0-75 33.578-75 75 0 41.421 33.578 75 75 75 41.421 0 75-33.579 75-75s-33.579-75-75-75z"/>
        <path id="al" d="M75 .225c-41.422 0-75 33.578-75 75 0 41.421 33.578 75 75 75 41.421 0 75-33.579 75-75s-33.579-75-75-75z"/>
        <path id="an" d="M75 .225c-41.422 0-75 33.578-75 75 0 41.421 33.578 75 75 75 41.421 0 75-33.579 75-75"/>
        <path id="ap" d="M75 .225c-41.422 0-75 33.578-75 75 0 41.421 33.578 75 75 75 41.421 0 75-33.579 75-75"/>
        <path id="ar" d="M75 .725C33.578.725 0 34.303 0 75.724c0 41.421 33.578 75 75 75 41.421 0 75-33.578 75-75"/>
        <path id="as" d="M75 .225c-41.422 0-75 33.578-75 75 0 41.421 33.578 75 75 75 41.421 0 75-33.579 75-75s-33.579-75-75-75z"/>
        <path id="au" d="M75 .225c-41.422 0-75 33.578-75 75 0 41.421 33.578 75 75 75 41.421 0 75-33.579 75-75s-33.579-75-75-75z"/>
        <path id="aw" d="M75 .225c-41.422 0-75 33.578-75 75 0 41.421 33.578 75 75 75 41.421 0 75-33.579 75-75s-33.579-75-75-75z"/>
        <path id="ay" d="M75 .225c-41.422 0-75 33.578-75 75 0 41.421 33.578 75 75 75 41.421 0 75-33.579 75-75"/>
        <path id="aA" d="M75 .225c-41.422 0-75 33.578-75 75 0 41.421 33.578 75 75 75 41.421 0 75-33.579 75-75"/>
        <path id="aC" d="M75 .225c-41.422 0-75 33.578-75 75 0 41.421 33.578 75 75 75 41.421 0 75-33.579 75-75s-33.579-75-75-75z"/>
        <path id="aE" d="M75 .225c-41.422 0-75 33.578-75 75 0 41.421 33.578 75 75 75 41.421 0 75-33.579 75-75s-33.579-75-75-75z"/>
        <path id="aG" d="M75 .225c-41.422 0-75 33.578-75 75 0 41.421 33.578 75 75 75 41.421 0 75-33.579 75-75"/>
        <path id="aI" d="M75 .225c-41.422 0-75 33.578-75 75 0 41.421 33.578 75 75 75 41.421 0 75-33.579 75-75s-33.579-75-75-75z"/>
        <path id="aK" d="M75 .225c-41.422 0-75 33.578-75 75 0 41.421 33.578 75 75 75 41.421 0 75-33.579 75-75s-33.579-75-75-75z"/>
        <path id="aM" d="M75 .225c-41.422 0-75 33.578-75 75 0 41.421 33.578 75 75 75 41.421 0 75-33.579 75-75"/>
        <path id="aO" d="M75 .225c-41.422 0-75 33.578-75 75 0 41.421 33.578 75 75 75 41.421 0 75-33.579 75-75"/>
        <path id="aQ" d="M75 .225c-41.422 0-75 33.578-75 75 0 41.421 33.578 75 75 75 41.421 0 75-33.579 75-75"/>
        <path id="aS" d="M75 .225c-41.422 0-75 33.578-75 75 0 41.421 33.578 75 75 75 41.421 0 75-33.579 75-75s-33.579-75-75-75z"/>
    </defs>
    <g fill="none" fill-rule="evenodd">
        <path fill="#FFF" d="M75 .5C33.578.5 0 34.078 0 75.5c0 41.421 33.578 75 75 75 41.421 0 75-33.579 75-75 0-41.422-33.579-75-75-75z"/>
        <g transform="translate(0 .276)">
            <mask id="b" fill="#fff">
                <use xlink:href="#a"/>
            </mask>
            <path fill="#E8F8FE" d="M114.022 78.054h-11.515l1.257 20.49h9.001z" mask="url(#b)"/>
        </g>
        <g transform="translate(0 .276)">
            <mask id="d" fill="#fff">
                <use xlink:href="#c"/>
            </mask>
            <path fill="#DBEEF8" d="M111.396 94.803l-.158 2.577h-5.947l-.158-2.577z" mask="url(#d)"/>
        </g>
        <g transform="translate(0 .276)">
            <mask id="f" fill="#fff">
                <use xlink:href="#e"/>
            </mask>
            <path fill="#E8F8FE" d="M115.115 88.993l.586 9.551h9l.586-9.551z" mask="url(#f)"/>
        </g>
        <g transform="translate(0 .276)">
            <mask id="h" fill="#fff">
                <use xlink:href="#g"/>
            </mask>
            <path fill="#DBEEF8" d="M123.039 95.519l-.115 1.861h-5.447l-.114-1.861z" mask="url(#h)"/>
        </g>
        <g transform="translate(0 .276)">
            <mask id="j" fill="#fff">
                <use xlink:href="#i"/>
            </mask>
            <path fill="#00B3F4" d="M56.124 102.048a1.629 1.629 0 1 1 .148-3.256c8.804.4 16.298 5.428 22.294 14.944h-3.872c-4.756-6.84-10.824-11.336-18.57-11.688" mask="url(#j)"/>
        </g>
        <g transform="translate(0 .276)">
            <mask id="l" fill="#fff">
                <use xlink:href="#k"/>
            </mask>
            <path fill="#3DC6F8" d="M74.694 113.736h3.872c.289.458.575.923.857 1.402 4.762 8.097 8.55 19.21 11.254 33.032 4.577 23.383 4.493 46.86 4.491 47.094a1.629 1.629 0 0 1-1.63 1.62h-.009a1.629 1.629 0 0 1-1.62-1.64c.005-.718.08-56.632-17.215-81.508" mask="url(#l)"/>
        </g>
        <g transform="translate(0 .276)">
            <mask id="n" fill="#fff">
                <use xlink:href="#m"/>
            </mask>
            <path fill="#E8F8FE" d="M112.1 115.138c.28-.479.567-.944.856-1.402h3.876c-17.291 24.876-17.223 80.79-17.22 81.508a1.63 1.63 0 0 1-1.619 1.64h-.01a1.63 1.63 0 0 1-1.63-1.62c0-.235-.085-23.711 4.492-47.094 2.705-13.822 6.492-24.935 11.254-33.032" mask="url(#n)"/>
        </g>
        <g transform="translate(0 .276)">
            <mask id="p" fill="#fff">
                <use xlink:href="#o"/>
            </mask>
            <path fill="#DBEEF8" d="M135.25 98.792c.89-.032 1.66.656 1.702 1.553a1.63 1.63 0 0 1-1.554 1.703c-7.743.352-13.81 4.847-18.566 11.689h-3.876c5.996-9.516 13.49-14.544 22.295-14.945" mask="url(#p)"/>
        </g>
        <g transform="translate(0 .276)">
            <mask id="r" fill="#fff">
                <use xlink:href="#q"/>
            </mask>
            <path fill="#00B3F4" d="M80.077 102.039a1.63 1.63 0 1 1 .376-3.238c2.843.33 6.42 2.681 9.515 14.936h-3.386c-2.68-10.123-5.403-11.57-6.505-11.698" mask="url(#r)"/>
        </g>
        <g transform="translate(0 .276)">
            <mask id="t" fill="#fff">
                <use xlink:href="#s"/>
            </mask>
            <path fill="#3DC6F8" d="M89.968 113.736c1.864 7.378 3.552 18.344 4.8 34.622 1.786 23.288 1.753 46.666 1.752 46.9a1.63 1.63 0 0 1-1.63 1.625h-.003a1.629 1.629 0 0 1-1.626-1.633c0-.232.033-23.481-1.742-46.642-1.04-13.56-2.485-24.42-4.295-32.278a83.207 83.207 0 0 0-.642-2.594h3.386z" mask="url(#t)"/>
        </g>
        <g transform="translate(0 .276)">
            <mask id="v" fill="#fff">
                <use xlink:href="#u"/>
            </mask>
            <path fill="#DBEEF8" d="M111.069 98.801a1.63 1.63 0 1 1 .376 3.237c-1.103.128-3.825 1.576-6.505 11.698h-3.399c2.162-8.39 5.19-14.431 9.528-14.935" mask="url(#v)"/>
        </g>
        <g transform="translate(0 .276)">
            <mask id="x" fill="#fff">
                <use xlink:href="#w"/>
            </mask>
            <path fill="#E8F8FE" d="M101.541 113.736h3.4a81.73 81.73 0 0 0-.641 2.588c-1.81 7.856-3.256 18.712-4.296 32.267-1.776 23.161-1.744 46.427-1.743 46.66.002.9-.726 1.63-1.626 1.632h-.003a1.629 1.629 0 0 1-1.63-1.625c0-.234-.034-23.612 1.752-46.9.865-11.281 2.21-24.62 4.787-34.622" mask="url(#x)"/>
        </g>
        <g transform="translate(0 .276)">
            <mask id="z" fill="#fff">
                <use xlink:href="#y"/>
            </mask>
            <path fill="#DBEEF8" d="M140.843 102.438H49.988a1.99 1.99 0 0 1 0-3.979h90.855a1.989 1.989 0 1 1 0 3.979" mask="url(#z)"/>
        </g>
        <g transform="translate(0 .276)">
            <mask id="B" fill="#fff">
                <use xlink:href="#A"/>
            </mask>
            <path fill="#009FF1" d="M79.645 268h6.958c15.105-87.809 13.095-134.958 13.095-134.958H54.224S52.09 176.581 52.044 268h6.958c8.918-68.185 17.32-117.775 17.32-117.775h.591S77.96 190.395 79.645 268" mask="url(#B)"/>
        </g>
        <g transform="translate(0 .276)">
            <mask id="D" fill="#fff">
                <use xlink:href="#C"/>
            </mask>
            <path fill="#C3EDFC" d="M114.337 137.198a3.771 3.771 0 0 1-3.416 4.095c-1.936.175-3.665-1.164-4.04-3.027l-14.768-74.95a7.763 7.763 0 0 1 6.116-9.118 7.762 7.762 0 0 1 9.232 6.918l6.876 76.082z" mask="url(#D)"/>
        </g>
        <path fill="#C3EDFC" d="M51.082 98.044l-.12.444a4.613 4.613 0 0 1-7.74 2.043l-10.62-10.776a4.392 4.392 0 0 1 .045-6.21 4.4 4.4 0 0 1 6.094-.07 161.85 161.85 0 0 0 3.824 4.176l2.638-22.529a7.151 7.151 0 0 1 14.221 1.508 7.766 7.766 0 0 1-.204 1.1l-8.138 30.314z"/>
        <g transform="translate(0 .276)">
            <mask id="G" fill="#fff">
                <use xlink:href="#F"/>
            </mask>
            <path fill="#C3EDFC" d="M59.008 62.216a5.723 5.723 0 1 0-11.447 0 5.723 5.723 0 0 0 11.447 0" mask="url(#G)"/>
        </g>
        <g transform="translate(0 .276)">
            <mask id="I" fill="#fff">
                <use xlink:href="#H"/>
            </mask>
            <path fill="#C3EDFC" d="M104.795 58.638a5.724 5.724 0 1 0-11.447 0 5.724 5.724 0 0 0 11.447 0" mask="url(#I)"/>
        </g>
        <g transform="translate(0 .276)">
            <mask id="K" fill="#fff">
                <use xlink:href="#J"/>
            </mask>
            <path fill="#00CCA3" d="M99.94 89.93c-.14 2.345-.255 3.765-.255 3.765v39.345H51.95s.1-.475.26-1.335c1.005-5.27 4.5-24.99 3.2-37.905-1.52-15.025-3.56-37.305-3.56-37.305 3.23-3.045 10.675-5.01 14.745-5.895.025-.01.045-.01.065-.015 1.39-.3 2.37-.475 2.635-.515l.075-.015c5.625-1.245 11.965-.86 17.325-.03.93.145 1.82.3 2.68.46.16.035.31.06.46.09l.135.03c5.26 1.045 8.955 2.31 8.955 2.31 2.36 9.455 1.51 28.845 1.015 37.015" mask="url(#K)"/>
        </g>
        <g transform="translate(0 .276)">
            <mask id="M" fill="#fff">
                <use xlink:href="#L"/>
            </mask>
            <path fill="#5ECEF9" d="M8.686 80.403h38.24a1.344 1.344 0 0 0 0-2.688H8.686a1.344 1.344 0 0 0 0 2.688" mask="url(#M)"/>
        </g>
        <g transform="translate(0 .276)">
            <mask id="O" fill="#fff">
                <use xlink:href="#N"/>
            </mask>
            <path fill="#B3E7FC" d="M32.96 58.765h10.649l-1.163 18.95h-8.324z" mask="url(#O)"/>
        </g>
        <g transform="translate(0 .276)">
            <mask id="Q" fill="#fff">
                <use xlink:href="#P"/>
            </mask>
            <path fill="#5ECEF9" d="M34.44 62.947h7.688l-.839 13.682h-6.01z" mask="url(#Q)"/>
        </g>
        <g transform="translate(0 .276)">
            <mask id="S" fill="#fff">
                <use xlink:href="#R"/>
            </mask>
            <path fill="#B3E7FC" d="M25.627 51.713a4.91 4.91 0 0 1 4.91 4.91v21.092h-9.82V56.623a4.91 4.91 0 0 1 4.91-4.91" mask="url(#S)"/>
        </g>
        <g transform="translate(0 .276)">
            <mask id="U" fill="#fff">
                <use xlink:href="#T"/>
            </mask>
            <path fill="#B3E7FC" d="M24.294 54.119h2.667V43.072a.173.173 0 0 0-.173-.173h-2.32a.173.173 0 0 0-.174.173v11.047z" mask="url(#U)"/>
        </g>
        <g transform="translate(0 .276)">
            <mask id="W" fill="#fff">
                <use xlink:href="#V"/>
            </mask>
            <path fill="#5ECEF9" d="M24.182 44.578h2.89c.171 0 .31-.138.31-.309v-.514a.308.308 0 0 0-.31-.31h-2.89a.309.309 0 0 0-.31.31v.514c0 .171.14.31.31.31" mask="url(#W)"/>
        </g>
        <g transform="translate(0 .276)">
            <mask id="Y" fill="#fff">
                <use xlink:href="#X"/>
            </mask>
            <path fill="#B3E7FC" d="M19.813 68.881l-.542 8.834h-8.324l-.542-8.834z" mask="url(#Y)"/>
        </g>
        <g transform="translate(0 .276)">
            <mask id="aa" fill="#fff">
                <use xlink:href="#Z"/>
            </mask>
            <path fill="#5ECEF9" d="M18.445 71.743l-.316 5.15h-6.04l-.316-5.15z" mask="url(#aa)"/>
        </g>
        <g transform="translate(0 .276)">
            <mask id="ac" fill="#fff">
                <use xlink:href="#ab"/>
            </mask>
            <path fill="#B3E7FC" d="M78.006 54.722l2.408 5.14-2.408 2.587-2.408-2.586z" mask="url(#ac)"/>
        </g>
        <g transform="translate(0 .276)">
            <mask id="ae" fill="#fff">
                <use xlink:href="#ad"/>
            </mask>
            <path fill="#FFBB87" d="M114.496 135.586s3.095 12.135-.625 17.66l-2.604 1.188c-1.169.534-2.453-.515-2.142-1.762.277-1.108 1.001-5.92.589-6.785-1.063-2.232-2.763-2.969-2.87-7.007l7.652-3.294z" mask="url(#ae)"/>
        </g>
        <g transform="translate(0 .276)">
            <mask id="ag" fill="#fff">
                <use xlink:href="#af"/>
            </mask>
            <path fill="#FFBB87" d="M36.288 82.978c.413-.428.631-1.03.511-1.613-.09-.44-.364-.851-1.054-.907-1.555-.124-16.915 0-16.915 0s-.321 1.142.669 2.067c2.02 1.888 7.157 4.303 11.706 5.707l5.083-5.254z" mask="url(#ag)"/>
        </g>
        <g transform="translate(0 .276)">
            <mask id="ai" fill="#fff">
                <use xlink:href="#ah"/>
            </mask>
            <path fill="#FFBB87" d="M83.996 55.939l-5.99-1.217-6.308.273.987-7.476.544-4.078.357-2.712 9.909-2.718.043 1.466.093 3.277z" mask="url(#ai)"/>
        </g>
        <g transform="translate(0 .276)">
            <mask id="ak" fill="#fff">
                <use xlink:href="#aj"/>
            </mask>
            <path fill="#FFA267" d="M83.66 42.718c-.008.015-.022.022-.03.036-2.54 2.969-6.739 4.679-10.945 4.765l.544-4.078 10.309-3.963h.007l.114 3.24z" mask="url(#ak)"/>
        </g>
        <g transform="translate(0 .276)">
            <mask id="am" fill="#fff">
                <use xlink:href="#al"/>
            </mask>
            <path fill="#333" d="M67.153 15.002s-2.541 1.663-1.913 3.527c.628 1.864-.813 3.552-1.416 3.642 0 0 1.69.963 2.997-.34 1.308-1.305 3.61-6.611 3.61-6.611l-3.278-.218z" mask="url(#am)"/>
        </g>
        <g transform="translate(0 .276)">
            <mask id="ao" fill="#fff">
                <use xlink:href="#an"/>
            </mask>
            <path fill="#FFBB87" d="M71.46 45.662c-6.91-1.858-6.298-14.397-5.193-21.465 1.105-7.069 7.73-11.903 14.799-10.798 7.068 1.106 11.902 7.731 10.797 14.799-1.105 7.068-11.13 19.958-20.404 17.464z" mask="url(#ao)"/>
        </g>
        <g transform="translate(0 .276)">
            <mask id="aq" fill="#fff">
                <use xlink:href="#ap"/>
            </mask>
            <path fill="#FFA267" d="M89.809 25.16l-5.773 8.148s-2.774 10.698-12.676 12.32c.034.01.065.024.1.033 9.274 2.495 19.298-10.395 20.403-17.463.143-.914.184-1.82.137-2.708l-2.191-.33z" mask="url(#aq)"/>
        </g>
        <path fill="#333" d="M86.342 18.682c5.178 2.65-.787 7.383-1.678 10.26-.649 2.094-.966 5.056-1.09 6.516a.951.951 0 1 0 1.899.133c.08-1.394.393-3.756 1.568-4.437 1.7-.985 3.791.224 3.791.224s2.514-1.96 3.527-7.027c1.013-5.067-2.722-8.005-2.722-8.005s2.148-1.795.951-3.26c-1.194-1.463-3.254.104-3.254.104s-3.218-6.243-9.425-6.551c-6.503-.323-7.504 3.757-7.504 3.757s-6.283-3.116-7.637 1.308c-1.354 4.424 6.255 6.947 9.109 7.163 7.611.577 7.286-2.834 12.465-.185z"/>
        <g transform="translate(0 .276)">
            <mask id="at" fill="#fff">
                <use xlink:href="#as"/>
            </mask>
            <path fill="#FFA267" d="M86.101 31.945s1.025-3.261 4.078-2.784c3.053.477.636 10.29-2.864 8.199l-1.84-1.65.626-3.765z" mask="url(#at)"/>
        </g>
        <g transform="translate(0 .276)">
            <mask id="av" fill="#fff">
                <use xlink:href="#au"/>
            </mask>
            <path fill="#E8FCFF" d="M85.373 47.804l2.554 4.303-7.513 7.756-2.408-5.141z" mask="url(#av)"/>
        </g>
        <g transform="translate(0 .276)">
            <mask id="ax" fill="#fff">
                <use xlink:href="#aw"/>
            </mask>
            <path fill="#E8FCFF" d="M70.639 47.804l-2.555 4.303 7.514 7.756 2.408-5.141z" mask="url(#ax)"/>
        </g>
        <g transform="translate(0 .276)">
            <mask id="az" fill="#fff">
                <use xlink:href="#ay"/>
            </mask>
            <path fill="#B3E7FC" d="M89.376 50.483l-1.446 1.624-1.237-2.082c.93.143 1.824.3 2.683.458" mask="url(#az)"/>
        </g>
        <g transform="translate(0 .276)">
            <mask id="aB" fill="#fff">
                <use xlink:href="#aA"/>
            </mask>
            <path fill="#B3E7FC" d="M69.294 50.068l-1.21 2.039-1.423-1.524a57.95 57.95 0 0 1 2.633-.515" mask="url(#aB)"/>
        </g>
        <g transform="translate(0 .276)">
            <mask id="aD" fill="#fff">
                <use xlink:href="#aC"/>
            </mask>
            <path fill="#B3E7FC" d="M70.639 47.804l2.118-.83-.332 2.508z" mask="url(#aD)"/>
        </g>
        <g transform="translate(0 .276)">
            <mask id="aF" fill="#fff">
                <use xlink:href="#aE"/>
            </mask>
            <path fill="#B3E7FC" d="M85.373 47.804l-1.632-1.062.07 2.529z" mask="url(#aF)"/>
        </g>
        <g transform="translate(0 .276)">
            <mask id="aH" fill="#fff">
                <use xlink:href="#aG"/>
            </mask>
            <path stroke="#00BB95" stroke-linecap="round" stroke-linejoin="round" stroke-width=".515" d="M89.32 50.476L78.005 62.448l-11.41-11.85" mask="url(#aH)"/>
        </g>
        <g transform="translate(0 .276)">
            <mask id="aJ" fill="#fff">
                <use xlink:href="#aI"/>
            </mask>
            <path fill="#00B3F4" d="M60.739 137.857v-5.971h2.799z" mask="url(#aJ)"/>
        </g>
        <g transform="translate(0 .276)">
            <mask id="aL" fill="#fff">
                <use xlink:href="#aK"/>
            </mask>
            <path fill="#00B3F4" d="M63.672 135.586l36.08-.51-.067-2.034h-35.82z" mask="url(#aL)"/>
        </g>
        <g transform="translate(0 .276)">
            <mask id="aN" fill="#fff">
                <use xlink:href="#aM"/>
            </mask>
            <path stroke="#71C2DD" stroke-linecap="round" stroke-linejoin="round" stroke-width=".5" d="M42.873 87.14s2.322.787 3.69 3.69" mask="url(#aN)"/>
        </g>
        <g transform="translate(0 .276)">
            <mask id="aP" fill="#fff">
                <use xlink:href="#aO"/>
            </mask>
            <path fill="#00BC93" d="M99.94 89.93c-.14 2.345-.255 3.765-.255 3.765v39.345H51.95s.1-.475.26-1.335c4.05-.45 8.06-1.11 11.97-2.245 9.395-2.735 17.965-8.255 24.345-15.675 5.81-6.765 9.78-15.085 11.415-23.855" mask="url(#aP)"/>
        </g>
        <g transform="translate(0 .276)">
            <mask id="aR" fill="#fff">
                <use xlink:href="#aQ"/>
            </mask>
            <path fill="#B3E7FC" d="M45.861 160.904h12.171a2.706 2.706 0 0 0 2.707-2.706v-27.004a2.706 2.706 0 0 0-2.707-2.707h-12.17a2.707 2.707 0 0 0-2.707 2.707v27.004a2.707 2.707 0 0 0 2.706 2.706" mask="url(#aR)"/>
        </g>
        <g transform="translate(0 .276)">
            <mask id="aT" fill="#fff">
                <use xlink:href="#aS"/>
            </mask>
            <path fill="#3DC6F8" d="M63.538 131.82a2857.057 2857.057 0 0 1-4.734 10.19H42.327v17.59c0 1.536 1.2 2.804 2.732 2.89l11.927.662a5.24 5.24 0 0 0 5.52-4.96l1.36-26.368-.328-.005z" mask="url(#aT)"/>
        </g>
    </g>
</svg>
