<svg xmlns="http://www.w3.org/2000/svg" xmlns:xlink="http://www.w3.org/1999/xlink" width="125" height="126" viewBox="0 0 125 126">
    <defs>
        <path id="a" d="M62.5 0C27.982 0 0 27.982 0 62.5 0 97.017 27.982 125 62.5 125S125 97.017 125 62.5C125 27.982 97.018 0 62.5 0z"/>
    </defs>
    <g fill="none" fill-rule="evenodd">
        <path fill="#FFF" d="M62.5 1C27.982 1 0 28.982 0 63.5S27.982 126 62.5 126 125 98.018 125 63.5 97.018 1 62.5 1z"/>
        <mask id="b" fill="#fff">
            <use xlink:href="#a"/>
        </mask>
        <path fill="#E8F8FE" d="M82.222 125.83h32.26V32.343h-32.26zM13.855 125.83h26.883V37.627H13.855z" mask="url(#b)"/>
        <path fill="#DBEEF8" d="M40.738 125.83h41.674V47H40.738z" mask="url(#b)"/>
        <path fill="#E8F8FE" d="M91.082 32.343h14.54V21.762h-14.54z" mask="url(#b)"/>
        <path fill="#DBEEF8" d="M82.222 35.08h32.26v-2.737h-32.26zM90.767 24.5h15.17a1.369 1.369 0 1 0 0-2.738h-15.17a1.37 1.37 0 1 0 0 2.738M82.222 85.37h32.26v-2.738h-32.26zM82.222 125.83h32.26v-2.738h-32.26zM82.222 47h32.26v-2.738h-32.26z" mask="url(#b)"/>
        <path fill="#E8F8FE" d="M40.738 57.846h41.674v-2.738H40.738zM91.082 21.762a7.27 7.27 0 1 1 14.541 0H91.082z" mask="url(#b)"/>
        <path fill="#E8F8FE" d="M97.663 15.572h1.38v-8.59h-1.38z" mask="url(#b)"/>
        <path fill="#DBEEF8" d="M40.738 47h29.594L40.738 25.465zM92.802 72.276h11.101V54.497H92.802z" mask="url(#b)"/>
        <path fill="#E8F8FE" d="M68.816 75.938h8.291V62.267h-8.291zM46.043 75.938h8.292V62.267h-8.292zM68.816 96.303h8.291v-13.67h-8.291zM46.043 96.303h8.292v-13.67h-8.292zM68.816 116.668h8.291v-13.67h-8.291zM46.043 116.668h8.292v-13.67h-8.292z" mask="url(#b)"/>
        <path fill="#DBEEF8" d="M92.802 111.93h11.101V94.15H92.802zM13.855 85.37h26.883v-2.738H13.855zM13.855 47h26.883v-2.738H13.855zM21.746 72.276h11.101V54.497H21.746zM21.746 111.93h11.101V94.15H21.746z" mask="url(#b)"/>
        <path fill="#E8F8FE" d="M60.17 116.668h2.956v-54.4h-2.957z" mask="url(#b)"/>
        <path fill="#009EF0" d="M94.77 64.219h-.14l13.792-6.344a3.21 3.21 0 0 1 3.588 5.243l-14.935 13.83a4.959 4.959 0 0 1-5.968.585l-1.224-.757-23.36-14.413a8.801 8.801 0 0 1-2.869-12.112c2.553-4.137 2.075-8.112 12.112-2.87.506.265.937.652 1.332 1.01L94.77 64.218zM18.173 75.03l13.494 23.912a3.191 3.191 0 0 1-5.233 3.6L5.483 77.687a5.562 5.562 0 0 1-.18-6.945l.64-.842L21.34 49.62c6.772-5.305 7.87-4.304 11.473-1.57a8.188 8.188 0 0 1 .797 12.354L18.173 75.03z" mask="url(#b)"/>
        <path fill="#005D91" d="M28.6 112.245L73 110v16H28z" mask="url(#b)"/>
        <path fill="#00CCA8" d="M73.854 113.769l-45.989.917c.352-5.142.506-5.891.436-11.164-.042-3.202-.485-6.4-.307-9.545.607-10.69 1.61-16.886 1.61-24.495 0-14.647-2.153-23.478-2.153-23.478s-.639-.068 3.601-1.166c1.208-.313 3.603-.79 7.186-1.431l18.949-.555c3.721.322 6.568.704 8.542 1.148 1.872.42 3.534.773 4.986 1.058-1.691 4.942.039 16.9 0 25.665-.037 8.356 2.916 14.977 2.916 23.254 0 3.38.012 6.602.03 9.545.058 9.223.193 10.247.193 10.247z" mask="url(#b)"/>
        <path fill="#B3E7FC" d="M40.455 39.25l13.135-.56-1.563 2.26H41.805z" mask="url(#b)"/>
        <path fill="#FFB58D" d="M59.297 31.439c-.618 4.674-3.1 5.786-6.346 5.376a16.335 16.335 0 0 1-2.457-.528c-3.802-1.097-7.996-2.304-10.893-4.973-.456-.415-.879-.87-1.264-1.365l-.002-.004c-2.836-3.654-3.73-9.548-1.566-14.32 2.162-4.775 14.097-13.056 21.781-1.27 0 0 1.641 10.294.747 17.084" mask="url(#b)"/>
        <path fill="#FFB58D" d="M54.447 40.986l-2.386 6.788-5.446 1.79-5.919-5.221-.05-3.133c.295-3.619-.79-7.335-1.574-9.465-.392-1.07-.71-1.74-.735-1.796l-.002-.004 3.252-.257 4.281-.339s6.911 5.383 7.083 7.466c.002.028.004.054.004.08 0 1.022.38 2.053.756 2.825.37.758.736 1.266.736 1.266" mask="url(#b)"/>
        <path fill="#005D91" d="M36.768 15.623s-.918-.896-1.202-2.778l24.463-2.986s.655 1.998 0 5.764H36.77z" mask="url(#b)"/>
        <path fill="#009FF1" d="M60.03 15.623l11.78 5.362s-9.689 5.344-21.616-5.362h9.835z" mask="url(#b)"/>
        <path fill="#8A8A8A" d="M41.283 26.711c.85 2.447-2.21 5.034-2.21 5.034-.393-1.07-.711-1.74-.736-1.796l-.002-.004c-2.836-3.654-3.73-9.547-1.566-14.32h10.543s.552 5.355 0 6.694l-6.029 4.392z" mask="url(#b)"/>
        <path fill="#009FF1" d="M35.566 12.845l24.463-2.986S63.7 6.226 64.27.6l-32.331 9.685.934 2.56h2.694z" mask="url(#b)"/>
        <path fill="#E8FCFF" d="M40.455 39.25l7.857 7.075-4.825 6.67-5.248-9.588z" mask="url(#b)"/>
        <path fill="#B3E7FC" d="M53.212 50.833L48.92 62.247l-4.292-10.83 3.684-5.093z" mask="url(#b)"/>
        <path fill="#FFA883" d="M53.711 39.72c-6.663-1.001-11.263-5.833-11.404-5.983 4.116 2.615 10.648 3.157 10.648 3.157 0 1.023.38 2.054.756 2.826" mask="url(#b)"/>
        <path fill="#E8FCFF" d="M58 86.733h5.476l-.909-21.087L58 67z" mask="url(#b)"/>
        <path fill="#E8FCFF" d="M34.973 84.395l5.124-.05 1.423-16.01-4.741-.18z" mask="url(#b)" transform="scale(-1 1) rotate(2 0 -2114.859)"/>
        <path fill="#E8FCFF" d="M28.253 88.545c-.043-2.196.348-4.26.562-6.545h43.282c.55 1.78 1.31 4.527 1.328 6.545H28.253zM28.004 105.545c-.043-2.196 0-4.776 0-6.545h45.683c0 2.318-.018 4.527 0 6.545H28.004zM48.312 46.324l5.278-7.635 3.597 4.164-2.457 9.376z" mask="url(#b)"/>
        <path fill="#FFB58D" d="M40.028 25.99c.88 1.885 2.615 2.938 3.874 2.35 1.258-.588 1.565-2.593.683-4.48-.88-1.885-2.615-2.937-3.873-2.35-1.26.589-1.565 2.594-.684 4.48" mask="url(#b)"/>
        <path stroke="#00BC93" stroke-linecap="round" stroke-linejoin="round" stroke-width=".5" d="M49 62s2.438 39.456.865 52.12" mask="url(#b)"/>
        <path fill="#E8FCFF" d="M34.753 68.723l4.648-.573-2.96-24.436-4.659.934zM58 67.217h4.358l3.222-23.344c-1.158-.298-2.038-.5-2.638-.607-.6-.106-1.367-.195-2.302-.266L58 67.217z" mask="url(#b)"/>
        <path fill="#FFB58D" d="M110.332 57.25l-.519-11.313c-.158-3.462 2.077-3.164 2.876-1.589.8 1.575 2.798 8.163 2.762 11.788-.036 3.625-.779 6.818-4.285 6.978-3.507.161-.834-5.863-.834-5.863" mask="url(#b)"/>
        <path fill="#005D91" d="M104.05 59.394l4.528 7.262 3.826-3.539-2.95-6.482zM27.201 90.853l-4.353 7.615 5.272 5.75s-.165-10.242-.272-11.913l-.647-1.452z" mask="url(#b)"/>
        <path stroke="#0067A7" stroke-linecap="round" stroke-linejoin="round" stroke-width=".5" d="M11.932 75.176c3.104.708 6.317 0 6.317 0s-1.47 1.797-2.723 1.797M96.93 66.624C96.225 64.475 95 64 95 64s.42 1.213.272 2.03" mask="url(#b)"/>
    </g>
</svg>
