<svg xmlns="http://www.w3.org/2000/svg" xmlns:xlink="http://www.w3.org/1999/xlink" width="150" height="152" viewBox="0 0 150 152">
    <defs>
        <path id="a" d="M75 1C33.578 1 0 34.69 0 76.25c0 41.558 33.578 75.249 75 75.249 41.421 0 75-33.69 75-75.25C150 34.69 116.421 1 75 1z"/>
    </defs>
    <g fill="none" fill-rule="evenodd">
        <path fill="#FFF" d="M75 .5C33.578.5 0 34.078 0 75.5c0 41.421 33.578 75 75 75 41.421 0 75-33.579 75-75 0-41.422-33.579-75-75-75z"/>
        <mask id="b" fill="#fff">
            <use xlink:href="#a"/>
        </mask>
        <path fill="#B3E7FC" d="M76.617 164.413h5.117V99.3h-5.117z" mask="url(#b)"/>
        <path fill="#E8F8FE" d="M133.507 164.413h5.117V99.3h-5.117zM76.617 99.299h61.99v-3.273c0-.934-.755-1.69-1.686-1.69H78.303c-.931 0-1.686.756-1.686 1.69V99.3z" mask="url(#b)"/>
        <path fill="#DBEEF8" d="M81.734 162.623h51.773V99.298H81.734z" mask="url(#b)"/>
        <path fill="#FFF" d="M110.161 111.3a2.545 2.545 0 0 0-2.54-2.55 2.546 2.546 0 0 0-2.542 2.55 2.546 2.546 0 0 0 2.541 2.55 2.545 2.545 0 0 0 2.541-2.55" mask="url(#b)"/>
        <path stroke="#E8F8FE" stroke-linecap="round" stroke-linejoin="round" stroke-width=".825" d="M90.825 122.877h42.682" mask="url(#b)"/>
        <path stroke="#DBEEF8" stroke-linecap="round" stroke-linejoin="round" stroke-width=".5" d="M25.037 42.866H44.45M44.45 42.866h1.718" mask="url(#b)"/>
        <path fill="#E8F8FE" d="M33.845 187.621H31.11V34.193a1.37 1.37 0 0 1 1.368-1.372 1.37 1.37 0 0 1 1.367 1.372v153.428z" mask="url(#b)"/>
        <path stroke="#DBEEF8" stroke-linecap="round" stroke-linejoin="round" stroke-width=".5" d="M18.757 61.481c-.79 5.618 2.736 10.558 6.807 14.496 4.07 3.939 8.777 7.726 10.462 13.142 2.094 6.735-1.105 13.892-4.535 20.052-3.43 6.159-7.308 12.703-6.62 19.725 1.096 11.203 13.533 19.908 11.69 31.012-.861 5.182-4.716 9.268-7.122 13.934-2.406 4.665-2.785 11.487 1.724 14.158M20.282 42.866h-1.717" mask="url(#b)"/>
        <path fill="#E8F8FE" d="M18.566 41.376c.807 0 1.46.658 1.46 1.467a1.46 1.46 0 0 1-1.46 1.465 1.46 1.46 0 0 1-1.459-1.465c0-.809.653-1.467 1.46-1.467m7.562-2.616H11c-.944 0-1.709.768-1.709 1.715v11.708c0 5.136 4.152 9.302 9.274 9.302 5.12 0 9.271-4.166 9.271-9.302V40.475c0-.947-.765-1.715-1.708-1.715" mask="url(#b)"/>
        <path fill="#E8F8FE" d="M20.35 38.759c0-.988-.799-1.79-1.783-1.79-.985 0-1.783.802-1.783 1.79s.798 1.789 1.783 1.789c.984 0 1.783-.801 1.783-1.79" mask="url(#b)"/>
        <path fill="#DBEEF8" d="M19.698 61.485c0-.628-.507-1.135-1.131-1.135-.625 0-1.131.507-1.131 1.135 0 .626.506 1.134 1.13 1.134.625 0 1.132-.508 1.132-1.134" mask="url(#b)"/>
        <path fill="#FFF" d="M9.293 44.527h1.809v-.565h-1.81z" mask="url(#b)"/>
        <path fill="#DBEEF8" d="M27.837 45.305v6.878c0 5.136-4.152 9.301-9.27 9.301-5.123 0-9.275-4.165-9.275-9.301v-6.878h18.545z" mask="url(#b)"/>
        <path fill="#FFF" d="M9.293 46.89h1.809v-.566h-1.81zM9.293 49.251h1.809v-.565h-1.81zM9.293 51.613h1.809v-.565h-1.81zM19 56.455h5.511v-6.12H19z" mask="url(#b)"/>
        <path stroke="#DBEEF8" stroke-linecap="round" stroke-linejoin="round" stroke-width=".5" d="M18.567 42.866l-1.322-2.592" mask="url(#b)"/>
        <path fill="#E8F8FE" d="M47.626 42.844a1.46 1.46 0 0 1-1.46 1.463 1.46 1.46 0 0 1-1.458-1.463c0-.81.652-1.468 1.459-1.468.805 0 1.459.658 1.459 1.468m-10.73-2.37v11.709c0 5.135 4.151 9.302 9.27 9.302 5.123 0 9.275-4.167 9.275-9.302V40.474c0-.946-.766-1.714-1.709-1.714H38.604c-.943 0-1.709.768-1.709 1.714" mask="url(#b)"/>
        <path fill="#DBEEF8" d="M45.035 61.485c0-.628.506-1.135 1.13-1.135.626 0 1.132.507 1.132 1.135 0 .626-.506 1.134-1.131 1.134a1.133 1.133 0 0 1-1.131-1.134" mask="url(#b)"/>
        <path fill="#E8F8FE" d="M44.383 38.759c0-.988.799-1.79 1.783-1.79.985 0 1.783.802 1.783 1.79s-.798 1.789-1.783 1.789c-.984 0-1.783-.801-1.783-1.79" mask="url(#b)"/>
        <path fill="#DBEEF8" d="M36.895 50.122v2.06c0 5.137 4.152 9.302 9.271 9.302 5.123 0 9.275-4.165 9.275-9.301v-2.06H36.895z" mask="url(#b)"/>
        <path fill="#FFF" d="M53.631 46.89h1.81v-.566h-1.81zM53.631 49.251h1.81v-.565h-1.81z" mask="url(#b)"/>
        <path stroke="#DBEEF8" stroke-linecap="round" stroke-linejoin="round" stroke-width=".5" d="M46.166 42.866l1.322-2.592" mask="url(#b)"/>
        <path fill="#515151" d="M63.527 18.647c.263-.509.553-.907.895-1.308.34-.392.727-.746 1.155-1.042.424-.304.911-.52 1.409-.663.498-.157 1.023-.162 1.527-.143a.237.237 0 0 1 .012.474l-.027.002c-.452.04-.901.095-1.307.282a3.875 3.875 0 0 0-1.116.698c-.33.294-.622.632-.872 1a5.72 5.72 0 0 0-.606 1.151l-.007.02a.581.581 0 1 1-1.092-.405.595.595 0 0 1 .03-.066" mask="url(#b)"/>
        <path fill="#D3713B" d="M101.45 97.196l7.662-9.535a2.8 2.8 0 0 1 3.943-.438 2.83 2.83 0 0 1 .546 3.81l-12.079 17.34a3.43 3.43 0 0 1-4.785.85 3.437 3.437 0 0 1-1.387-2.08l-.067-.31-4.36-19.928a4.644 4.644 0 0 1 3.529-5.532 4.629 4.629 0 0 1 5.595 4.05l1.402 11.773z" mask="url(#b)"/>
        <path fill="#D3713B" d="M116.377 89.143c1.877-3.403 1.962-6.958.191-7.941-1.771-.983-4.728.978-6.604 4.381-1.877 3.403-1.962 6.958-.19 7.94 1.77.984 4.727-.977 6.603-4.38" mask="url(#b)"/>
        <path fill="#D3713B" d="M110.849 85.608c-.127-1.913-.7-3.432-1.282-3.394-.58.039-.95 1.621-.823 3.534.127 1.913.7 3.432 1.282 3.394.58-.039.95-1.621.823-3.534" mask="url(#b)"/>
        <path fill="#00CCA3" d="M93.855 107.623l1.775 28.61H44.845l1.075-50.698h-1.78l-3.435 2.117c.305-1.68.74-5.448 1.32-7.053 2.1-5.795 3.355-7.912 7.77-11.609.77-.647 2.11-1.314 3.64-1.931 3.78-1.535 8.69-2.814 8.9-2.865l17.95.146-.004.005c3.704.903 6.359 1.68 11.179 4.224a17.589 17.589 0 0 1 2.925 1.951c2.6 2.137 4.575 3.467 5.345 6.407l1.78 9.235-8.95.552.4 6.461.895 14.448z" mask="url(#b)"/>
        <path fill="#005D91" d="M94.022 136.232l-.24 2.951-.343 4.184-7.784 104.47h-5.319l-8.72-95.95-9.728 95.95h-5.157l-7.657-96.622-.256-2.924-.15-1.758-.635-7.318-.261-2.983z" mask="url(#b)"/>
        <path fill="#C56E37" d="M80.28 64.343c-1.648 6.123-4.32 9.833-9.294 13.422-5.512-4.398-7.797-9.187-8.648-13.575l1.93-.352h14.365l1.648.505z" mask="url(#b)"/>
        <path stroke="#00876B" stroke-linecap="round" stroke-linejoin="round" stroke-width=".5" d="M63.938 89.545s-9.932-25.469-.116-27.986c6.177-1.585 8.218-.94 8.218-.94s13.267-1.38 11.999 10.646" mask="url(#b)"/>
        <path fill="#00BC93" d="M67.376 89.545a3.56 3.56 0 0 0-3.554-3.566 3.56 3.56 0 0 0-3.554 3.566 3.56 3.56 0 0 0 3.554 3.566 3.56 3.56 0 0 0 3.554-3.566" mask="url(#b)"/>
        <path fill="#C56E37" d="M78.632 63.839H64.27l1.758-9.198h10.799z" mask="url(#b)"/>
        <path fill="#B9673A" d="M77.85 59.865c-5.21 3.598-10.43 1.525-12.522-1.49l.724-3.735H76.85l.998 5.225z" mask="url(#b)"/>
        <path fill="#333" d="M66.163 53.762a7.356 7.356 0 0 0-5.24-.25c-1.007.333-2.04.896-3.064.624-1.132-.3-1.87-1.547-3.03-1.712-.962-.138-1.937.525-2.875.27-.831-.228-1.329-1.134-1.372-1.997-.043-.864.266-1.7.553-2.516.287-.814.561-1.671.446-2.528-.192-1.417-1.371-2.457-2.44-3.404-1.067-.946-2.18-2.112-2.157-3.541.02-1.322 1.006-2.401 1.931-3.342 1.025-1.043 1.516-2.565 1.4-4.025-.117-1.46-.536-2.927-.28-4.369.275-1.542 1.367-2.913 2.806-3.522 1.133-.479 2.397-.495 3.622-.613 1.224-.119 2.512-.384 3.406-1.23 1.822-1.724 1.234-5.02 3.023-6.778 1.334-1.31 3.447-1.253 5.308-1.109 1.467.114 2.95-.28 4.21-1.043 1.258-.763 2.4-1.74 3.759-2.304 1.358-.564 3.066-.629 4.17.345 1.275 1.124 1.354 3.235 2.707 4.262 1.31.994 3.163.53 4.79.758 2.54.357 4.64 2.74 4.682 5.313.013.846-.17 1.685-.167 2.532.003.845.232 1.755.889 2.285 1.045.843 2.739.422 3.75 1.304 1.016.883.768 2.487 1.05 3.805.423 1.982 2.133 3.414 2.974 5.258 1.243 2.726.226 6.29-2.268 7.943-1.652 1.094-3.823 1.425-5.133 2.915-.773.88-1.13 2.046-1.772 3.025-1.05 1.607-1.672 2.86-3.358 4.522-1.19 1.173-4.13.33-5.725.82-2.477.758-3.173-.437-4.733-.841-3.758-.973-8.062-1.649-11.862-.857" mask="url(#b)"/>
        <path fill="#D3713B" d="M60.584 45.32c1.447 8.34 6.957 14.346 13.111 13.271 5.861-1.023 10.623-8.822 9.176-17.163-1.447-8.341-7.61-14.232-13.763-13.157-6.155 1.074-9.971 8.708-8.524 17.049" mask="url(#b)"/>
        <path fill="#333" d="M57.77 37.264c-.836-.341 2.85-2.847 3.204-3.557.398-.795.637-1.658 1.033-2.454.443-.889 1.095-1.652 1.74-2.406.396-.462.8-.931 1.314-1.254.74-.465 1.638-.584 2.505-.693 1.502-.188 3.037-.376 4.52-.073 1.59.325 3.011 1.191 4.395 2.042 1.049.645 2.104 1.295 3.006 2.133 2.073 1.928 3.159 4.67 4.18 7.315.323.836.633 1.83.142 2.58-.305.465-.873.714-1.429.728-.556.015-1.099-.18-1.586-.448-1.708-.942-2.826-2.876-2.79-4.832.008-.486.083-.972.044-1.457-.04-.485-.213-.989-.598-1.284-.208-.16-.466-.25-.657-.432-.638-.605-.176-1.785-.705-2.488-.497-.66-1.536-.501-2.265-.115-.73.386-1.443.947-2.266.897-.824-.05-1.592-.724-2.39-.512-.728.193-.986 1.044-1.325 1.719-1.278 2.547-3.373 7.331-10.072 4.591" mask="url(#b)"/>
        <path fill="#D3713B" d="M80.123 41.113c-.372 1.265.102 2.521 1.059 2.805.958.283 2.036-.513 2.408-1.778.372-1.266-.102-2.522-1.06-2.805-.957-.283-2.035.513-2.407 1.778" mask="url(#b)"/>
        <path fill="#00876B" d="M66.46 89.545a2.643 2.643 0 0 0-2.638-2.647 2.643 2.643 0 0 0-2.639 2.647 2.643 2.643 0 0 0 2.639 2.648 2.643 2.643 0 0 0 2.638-2.648" mask="url(#b)"/>
        <path stroke="#00BC93" stroke-linecap="round" stroke-linejoin="round" d="M87.887 76.91l1.732 11.866a2.852 2.852 0 0 1-1.076 2.669l-1.84 1.42M79.433 76.278l-3.465 11.478a2.854 2.854 0 0 0 .671 2.8l1.61 1.677" mask="url(#b)"/>
        <path fill="#00876B" d="M78.128 92.81l.323.5a.52.52 0 0 0 .838.051l.222-.266a.525.525 0 0 0-.195-.82l-.545-.231a.52.52 0 0 0-.605.145.525.525 0 0 0-.038.622M86.795 93.458l-.393.445a.52.52 0 0 1-.836-.073l-.18-.296a.524.524 0 0 1 .313-.781l.574-.15a.522.522 0 0 1 .576.234.526.526 0 0 1-.054.621" mask="url(#b)"/>
        <path stroke="#00876B" stroke-linecap="round" stroke-linejoin="round" stroke-width="1.5" d="M77.905 81.236l1.35-4.53a4.477 4.477 0 0 1 4.62-3.193 4.484 4.484 0 0 1 4.1 3.844l.666 4.68" mask="url(#b)"/>
        <path fill="#00BC93" d="M85.591 74.693l.108-1.458a1.803 1.803 0 0 0-1.66-1.933 1.8 1.8 0 0 0-1.926 1.666l-.108 1.457c-.074.994.67 1.86 1.66 1.933a1.8 1.8 0 0 0 1.926-1.665" mask="url(#b)"/>
        <path fill="#00876B" d="M84.876 74.338l.063-.858a1.06 1.06 0 0 0-2.11-.157l-.064.858a1.06 1.06 0 0 0 2.11.157" mask="url(#b)"/>
        <path stroke="#FFC497" stroke-linecap="round" stroke-linejoin="round" stroke-width=".5" d="M68.354 43.217a3.43 3.43 0 0 0-3.425-3.436 3.43 3.43 0 0 0-3.424 3.436 3.43 3.43 0 0 0 3.424 3.436 3.43 3.43 0 0 0 3.425-3.436zM78.656 43.217a3.43 3.43 0 0 0-3.425-3.436 3.43 3.43 0 0 0-3.424 3.436 3.43 3.43 0 0 0 3.424 3.436 3.43 3.43 0 0 0 3.425-3.436zM78.656 42.259l2.942-2.882M68.354 43.217a4.8 4.8 0 0 1 3.453 0" mask="url(#b)"/>
        <path fill="#FF9300" d="M48.773 108.973h.005l-.01.01z" mask="url(#b)"/>
        <path fill="#00BC93" d="M95.63 136.233H46.14c-.24-.457-.48-.918-.73-1.38 7.73.371 15.585.02 23.01-2.177 7.425-2.202 14.43-6.371 19.07-12.582 2.715-3.632 5.215-7.991 6.365-12.47l1.775 28.609z" mask="url(#b)"/>
        <path fill="#D3713B" d="M51.02 87.077c-.04 2.434-.139 4.866-.206 7.299l-.301 7.297c-.091 2.433-.231 4.865-.347 7.297l-.404 7.295-.006-.298c.076 3.95.142 7.901.155 11.856a521.36 521.36 0 0 1-.005 5.932c-.033 1.98-.034 3.957-.095 5.938a2.519 2.519 0 0 1-2.592 2.446 2.52 2.52 0 0 1-2.41-2.149c-.294-1.96-.528-3.923-.793-5.885a519.592 519.592 0 0 1-.702-5.891c-.452-3.928-.85-7.86-1.238-11.791l-.001-.01-.005-.288-.139-7.306c-.028-2.435-.079-4.87-.082-7.304l-.036-7.304c.021-2.433.011-4.868.06-7.3a4.581 4.581 0 0 1 4.665-4.497 4.567 4.567 0 0 1 4.481 4.663" mask="url(#b)"/>
        <path stroke="#00876B" stroke-linecap="round" stroke-linejoin="round" stroke-width=".5" d="M80.28 64.343s-1.315 8.077-9.294 13.422c0 0-7.235-5.12-8.648-13.575" mask="url(#b)"/>
        <path fill="#D3713B" d="M51.175 141.189c.3 3.877-1.092 7.148-3.11 7.305-2.018.157-3.897-2.858-4.198-6.735-.3-3.877 1.092-7.147 3.11-7.305 2.018-.157 3.898 2.858 4.198 6.735" mask="url(#b)"/>
        <path fill="#D3713B" d="M49.899 139.983c.906 1.688 2.056 2.832 2.569 2.555.513-.277.194-1.87-.712-3.558-.906-1.688-2.056-2.832-2.569-2.555-.513.277-.194 1.87.712 3.558" mask="url(#b)"/>
        <path stroke="#00876B" stroke-linecap="round" stroke-linejoin="round" stroke-width=".5" d="M92.18 86.826l9.33-.572" mask="url(#b)"/>
        <path fill="#00CCA3" d="M54.236 87.651H40.708c.3-1.678.737-5.445 1.316-7.05 2.101-5.799 3.356-7.913 7.77-11.609.769-.648 2.112-1.314 3.64-1.934l.802 20.593z" mask="url(#b)"/>
        <path stroke="#00876B" stroke-linecap="round" stroke-linejoin="round" stroke-width=".5" d="M40.708 87.651h11.81" mask="url(#b)"/>
    </g>
</svg>
