<svg xmlns="http://www.w3.org/2000/svg" xmlns:xlink="http://www.w3.org/1999/xlink" width="125" height="126" viewBox="0 0 125 126">
    <defs>
        <path id="a" d="M62.5.343C27.982.343 0 28.363 0 62.926s27.982 62.583 62.5 62.583S125 97.489 125 62.926 97.018.343 62.5.343z"/>
        <path id="c" d="M62.5.343C27.982.343 0 28.363 0 62.926s27.982 62.583 62.5 62.583S125 97.489 125 62.926 97.018.343 62.5.343z"/>
        <path id="e" d="M62.5.418C27.982.418 0 28.437 0 63c0 34.564 27.982 62.583 62.5 62.583S125 97.563 125 63 97.018.418 62.5.418z"/>
    </defs>
    <g fill="none" fill-rule="evenodd">
        <path fill="#FFF" d="M62.5 0C27.982 0 0 27.982 0 62.5S27.982 125 62.5 125 125 97.018 125 62.5 97.018 0 62.5 0z"/>
        <g transform="translate(0 .074)">
            <mask id="b" fill="#fff">
                <use xlink:href="#a"/>
            </mask>
            <path fill="#E8F8FE" d="M95.93 34.715H20.679V17.42c0-1.152.933-2.086 2.083-2.086h71.086c1.15 0 2.084.934 2.084 2.086v17.294z" mask="url(#b)"/>
        </g>
        <g transform="translate(0 .074)">
            <mask id="d" fill="#fff">
                <use xlink:href="#c"/>
            </mask>
            <path fill="#DBEEF8" d="M24.261 31.03h-3.583V17.421c0-1.152.932-2.086 2.083-2.086h1.5V31.03z" mask="url(#d)"/>
        </g>
        <mask id="f" fill="#fff">
            <use xlink:href="#e"/>
        </mask>
        <path fill="#E8F8FE" d="M24.261 19.094h3.584V15.41H24.26z" mask="url(#f)"/>
        <path fill="#DBEEF8" d="M27.845 19.094h3.583V15.41h-3.583z" mask="url(#f)"/>
        <path fill="#E8F8FE" d="M31.428 19.094h3.584V15.41h-3.584z" mask="url(#f)"/>
        <path fill="#DBEEF8" d="M35.012 19.094h3.583V15.41h-3.583z" mask="url(#f)"/>
        <path fill="#E8F8FE" d="M38.595 19.094h3.584V15.41h-3.584z" mask="url(#f)"/>
        <path fill="#DBEEF8" d="M42.179 19.094h3.583V15.41H42.18z" mask="url(#f)"/>
        <path fill="#E8F8FE" d="M45.762 19.094h3.583V15.41h-3.583z" mask="url(#f)"/>
        <path fill="#DBEEF8" d="M49.345 19.094h3.584V15.41h-3.584z" mask="url(#f)"/>
        <path fill="#E8F8FE" d="M52.929 19.094h3.584V15.41h-3.584z" mask="url(#f)"/>
        <path fill="#DBEEF8" d="M56.513 19.094h3.583V15.41h-3.583z" mask="url(#f)"/>
        <path fill="#E8F8FE" d="M60.096 19.094h3.584V15.41h-3.584z" mask="url(#f)"/>
        <path fill="#DBEEF8" d="M63.68 19.094h3.583V15.41H63.68z" mask="url(#f)"/>
        <path fill="#E8F8FE" d="M67.263 19.094h3.583V15.41h-3.584z" mask="url(#f)"/>
        <path fill="#DBEEF8" d="M70.846 19.094h3.584V15.41h-3.584z" mask="url(#f)"/>
        <path fill="#E8F8FE" d="M74.43 19.094h3.583V15.41H74.43z" mask="url(#f)"/>
        <path fill="#DBEEF8" d="M78.013 19.094h3.584V15.41h-3.584z" mask="url(#f)"/>
        <path fill="#E8F8FE" d="M81.597 19.094h3.583V15.41h-3.583z" mask="url(#f)"/>
        <path fill="#DBEEF8" d="M85.18 19.094h3.584V15.41H85.18z" mask="url(#f)"/>
        <path fill="#E8F8FE" d="M88.764 19.094h3.583V15.41h-3.583z" mask="url(#f)"/>
        <path fill="#DBEEF8" d="M20.677 34.789h3.584v-3.685h-3.584z" mask="url(#f)"/>
        <path fill="#E8F8FE" d="M24.261 34.789h3.584v-3.685H24.26z" mask="url(#f)"/>
        <path fill="#DBEEF8" d="M27.845 34.789h3.583v-3.685h-3.583z" mask="url(#f)"/>
        <path fill="#E8F8FE" d="M31.428 34.789h3.584v-3.685h-3.584z" mask="url(#f)"/>
        <path fill="#DBEEF8" d="M35.012 34.789h3.583v-3.685h-3.583z" mask="url(#f)"/>
        <path fill="#E8F8FE" d="M38.595 34.789h3.584v-3.685h-3.584z" mask="url(#f)"/>
        <path fill="#DBEEF8" d="M42.179 34.789h3.583v-3.685H42.18z" mask="url(#f)"/>
        <path fill="#E8F8FE" d="M45.762 34.789h3.583v-3.685h-3.583z" mask="url(#f)"/>
        <path fill="#DBEEF8" d="M49.345 34.789h3.584v-3.685h-3.584z" mask="url(#f)"/>
        <path fill="#E8F8FE" d="M52.929 34.789h3.584v-3.685h-3.584z" mask="url(#f)"/>
        <path fill="#DBEEF8" d="M56.513 34.789h3.583v-3.685h-3.583z" mask="url(#f)"/>
        <path fill="#E8F8FE" d="M60.096 34.789h3.584v-3.685h-3.584z" mask="url(#f)"/>
        <path fill="#DBEEF8" d="M63.68 34.789h3.583v-3.685H63.68z" mask="url(#f)"/>
        <path fill="#E8F8FE" d="M67.263 34.789h3.583v-3.685h-3.584z" mask="url(#f)"/>
        <path fill="#DBEEF8" d="M70.846 34.789h3.584v-3.685h-3.584z" mask="url(#f)"/>
        <path fill="#E8F8FE" d="M74.43 34.789h3.583v-3.685H74.43z" mask="url(#f)"/>
        <path fill="#DBEEF8" d="M78.013 34.789h3.584v-3.685h-3.584z" mask="url(#f)"/>
        <path fill="#E8F8FE" d="M81.597 34.789h3.583v-3.685h-3.583z" mask="url(#f)"/>
        <path fill="#DBEEF8" d="M85.18 34.789h3.584v-3.685H85.18z" mask="url(#f)"/>
        <path fill="#E8F8FE" d="M88.764 34.789h3.583v-3.685h-3.583z" mask="url(#f)"/>
        <path fill="#DBEEF8" d="M95.93 31.104h-3.583V15.41h1.5c1.15 0 2.084.934 2.084 2.086v13.608zM92.347 34.789h3.583v-3.685h-3.583z" mask="url(#f)"/>
        <path fill="#E8F8FE" d="M20.677 136.176H95.93V93.73H20.677z" mask="url(#f)"/>
        <path fill="#DBEEF8" d="M20.677 136.176h3.584V93.73h-3.584zM27.845 136.176h3.583V93.73h-3.583zM35.012 136.176h3.583V93.73h-3.583zM42.179 136.176h3.583V93.73H42.18zM49.345 136.176h3.584V93.73h-3.584zM56.513 136.176h3.583V93.73h-3.583zM63.68 136.176h3.583V93.73H63.68zM70.846 136.176h3.584V93.73h-3.584zM78.013 136.176h3.584V93.73h-3.584zM85.18 136.176h3.584V93.73H85.18zM92.347 136.176h3.583V93.73h-3.583zM96.849 37.876h-77.09a1.543 1.543 0 1 1 0-3.087h77.09a1.543 1.543 0 0 1 0 3.087" mask="url(#f)"/>
        <path fill="#DBEEF8" d="M96.849 96.816h-77.09a1.543 1.543 0 0 1-1.541-1.544c0-.853.69-1.543 1.541-1.543h77.09a1.543 1.543 0 0 1 0 3.087" mask="url(#f)"/>
        <path fill="#E8F8FE" d="M20.677 93.729H95.93V37.876H20.677z" mask="url(#f)"/>
        <path fill="#FFF" d="M54.72 89.019H29.929a2.085 2.085 0 0 1-2.083-2.086v-42.45c0-1.152.932-2.086 2.083-2.086h24.793c1.15 0 2.083.934 2.083 2.086v42.45a2.085 2.085 0 0 1-2.083 2.086M86.68 89.019H61.888a2.085 2.085 0 0 1-2.084-2.086v-42.45c0-1.152.933-2.086 2.084-2.086H86.68c1.15 0 2.084.934 2.084 2.086v42.45a2.085 2.085 0 0 1-2.084 2.086" mask="url(#f)"/>
        <path stroke="#DBEEF8" stroke-width=".5" d="M45.762 90.081h-6.875a1.062 1.062 0 0 1-1.062-1.062v-7.6a4.502 4.502 0 0 1 4.5-4.505 4.502 4.502 0 0 1 4.498 4.506v7.599c0 .586-.475 1.062-1.061 1.062zM77.867 90.081h-6.875a1.062 1.062 0 0 1-1.061-1.062v-3.443a4.502 4.502 0 0 1 4.499-4.505 4.502 4.502 0 0 1 4.499 4.505v3.443c0 .586-.475 1.062-1.062 1.062z" mask="url(#f)"/>
        <path fill="#B6E8FC" d="M88.887 59.666c-.275-.68-.901-1.263-1.634-1.286-.425-.013-.852.157-1.269.073-.556-.113-.919-.63-1.27-1.076-.35-.447-.851-.898-1.409-.792-.568.106-.909.748-1.47.885-.598.146-1.15-.32-1.631-.703a8.577 8.577 0 0 0-2.029-1.202c-.322-.135-.66-.251-1.008-.257-.349-.007-.714.111-.94.378-.234.279-.282.664-.32 1.025l-.2 1.899c-.053.509-.107 1.024-.034 1.53.073.508.287 1.012.683 1.336.517.421 1.235.464 1.902.488l2.751.1 4.484.163c1.472.054 1.167.64 2.63.474-.193-.077 1.152-.693 1.018-.85-.117-.137-.033-.418-.026-.586.02-.54-.024-1.093-.228-1.599" mask="url(#f)"/>
        <path fill="#65D0F9" d="M78.325 61.23h11.587l-2.094 13.094h-9.493z" mask="url(#f)"/>
        <path fill="#00B3F4" d="M85.41 68.302a2.424 2.424 0 0 0-2.422-2.426 2.424 2.424 0 0 0-2.423 2.426 2.424 2.424 0 0 0 2.423 2.426 2.424 2.424 0 0 0 2.423-2.426" mask="url(#f)"/>
        <path fill="#009FF1" d="M114.142 72.646l-11.355 1.607a.837.837 0 0 1-.933-.655l-.929-4.456c.446 2.75.53 8.286.554 14.644.038 7.301-.012 15.687.321 22.2.033.764.08 1.49.13 2.195.212 2.983.374 5.403.478 6.909.071 1.08.113 1.681.113 1.681-.521.092-1.038.18-1.554.259-24.313 3.884-42.205.617-42.58.55h-.008c.275-1.092.5-2.995.688-5.427a188.485 188.485 0 0 0 .217-3.188c.058-1.001.124-2.053.2-3.137v-.005c.908-13.668 2.95-33.26 2.95-33.26l-12.05-7.126a.563.563 0 0 1-.226-.722l5.396-11.978a12.967 12.967 0 0 1 7.725-6.955l9.125-3.009 8.204 9.484 6.442-10.59 5.733 1.257c7.025 1.54 14.871 5.578 17.471 11.419 2.192 4.91 4.058 14.436 4.592 17.327a.832.832 0 0 1-.704.976" mask="url(#f)"/>
        <path fill="#009FF1" d="M102.52 116.773c-.522.091-1.039.176-1.555.256-24.311 3.887-42.204.62-42.578.551h-.006c.272-1.09.5-2.994.687-5.427l42.731-6.165c.034.762.08 1.489.13 2.193.21 2.984.375 5.404.478 6.91l.113 1.682" mask="url(#f)"/>
        <path fill="#006598" d="M87.81 40.43s-9.516-2.46-16.381 1.194l8.05 9.327 1.132 1.305 7.2-11.826z" mask="url(#f)"/>
        <path fill="#005D91" d="M103.131 170.609l-20.526.13-2.883-33.253-2.565 33.123-20.843-.33.374-9.586.8-20.24.165-4.302.732-18.57 44.139-.807.21 18.729.05 4.398.228 20.155z" mask="url(#f)"/>
        <path fill="#FFB58D" d="M56.318 81.29l-.283.587a3.965 3.965 0 0 1-3.085 2.195l-20.46 2.36a3.012 3.012 0 1 1-1.136-5.897L48.41 75.95l2.983-8.978a5.35 5.35 0 0 1 6.744-3.443 5.36 5.36 0 0 1 3.167 7.43L56.318 81.29zM87.054 41.672l-6.446 10.58-8.204-9.475.163-1.606.279-2.816.175-1.757-.008-.208c4.245-5.17 10.05-9.28 12.029-3.784-.246 5.24 2.012 9.066 2.012 9.066" mask="url(#f)"/>
        <path fill="#005991" d="M81.454 50.873l-.843 1.384-1.131-1.306-1.333 1.931 2.358 2.01 2.401-2.38z" mask="url(#f)"/>
        <path fill="#009FF1" d="M62.434 72.565l1.769-18.948-5.1-.823-7.966 13.087z" mask="url(#f)"/>
        <path fill="#0067A7" d="M87.81 40.43l3.225 3.058c.548.52.684 1.34.334 2.01L85.92 55.915l-4.466-5.042L87.81 40.43zM79.48 50.951l-3.907 5.662-6.695-10.144a1.539 1.539 0 0 1 .09-1.819l2.46-3.026 8.052 9.327" mask="url(#f)"/>
        <path fill="#FFB58D" d="M114.503 90.177l.039.577a2.67 2.67 0 0 1-.06.753l-7.402 32.13a2.607 2.607 0 0 1-3.126 1.957 2.62 2.62 0 0 1-1.992-2.927l4.847-31.94-5.335-20.862a5.867 5.867 0 1 1 11.55-1.803l1.479 22.115z" mask="url(#f)"/>
        <path fill="#008CF3" d="M102.52 116.771c-.52.092-1.037.18-1.553.259-24.313 3.884-42.205.617-42.58.55h-.008c.275-1.093.5-2.995.688-5.427.025-.305.05-.614.07-.935 8.513-.818 16.834-3.642 24.063-8.22 2.192-1.426 4.3-2.953 6.283-4.66a55.266 55.266 0 0 0 9.575-10.676 54.167 54.167 0 0 0 2.421-3.876c.038 7.301-.012 15.687.32 22.2.034.764.08 1.49.13 2.195.213 2.983.375 5.403.48 6.909.07 1.08.112 1.681.112 1.681" mask="url(#f)"/>
        <path fill="#00324E" d="M65.083 119.693l-5.356-.371a1.704 1.704 0 0 1-1.58-1.82l.96-13.878 7.054.49c.938.064 1.646.878 1.58 1.817l-.842 12.18a1.703 1.703 0 0 1-1.816 1.582" mask="url(#f)"/>
        <path fill="#00324E" d="M59.107 103.624l.248-4.507a.877.877 0 0 1 1.75.054l-.028 4.59-1.97-.137z" mask="url(#f)"/>
        <path stroke="#007ACC" stroke-width="1.135" d="M58.74 108.924l8.758.528" mask="url(#f)"/>
        <path stroke="#0067A7" stroke-linecap="round" stroke-linejoin="round" stroke-width=".5" d="M62.433 72.564l1.023-10.942" mask="url(#f)"/>
        <path fill="#FFB58D" d="M26.96 89.267s2.6 2.184 6.759-1.845c3.008-2.917-3.819-6.217-3.819-6.217l2.752 4.772-5.692 3.29z" mask="url(#f)"/>
        <path fill="#00B5FF" d="M20.839 90.907l-1.577-3.7a1.137 1.137 0 0 1 .6-1.492l9.87-4.214a1.135 1.135 0 0 1 1.489.6l1.576 3.7a1.136 1.136 0 0 1-.6 1.49l-9.87 4.216a1.134 1.134 0 0 1-1.488-.6" mask="url(#f)"/>
        <path fill="#FFB58D" d="M31.706 80.469c.463.126.464.555-.426.68-.746.106-2.832 1.945-3.466 3.08-.674 1.206-1.941.494-1.171-1.232.995-2.229 3.165-3.045 5.063-2.528" mask="url(#f)"/>
        <path fill="#009FF1" d="M102.897 74.235l11.177-1.58a.834.834 0 0 0 .69-1.037l-3.541-13.52-8.95 1.872-2.011 4.644 1.563 7.123.125 1.732c.034.482.47.834.947.766" mask="url(#f)"/>
        <path stroke="#0067A7" stroke-linecap="round" stroke-linejoin="round" stroke-width=".5" d="M100.925 69.143l-1.534-10.46" mask="url(#f)"/>
        <path fill="#00B5FF" d="M94.781 63.387c0-1.138-1.679-2.06-3.75-2.06-2.072 0-3.75.922-3.75 2.06 0 1.137 1.678 2.06 3.75 2.06 2.071 0 3.75-.923 3.75-2.06" mask="url(#f)"/>
        <path fill="#FFB58D" d="M91.4 21.176c.718-7.208-4.904-13.254-12.136-13.451-6.631-.18-12.242 4.608-13.28 10.988-1.445 5.371-3.902 16.35-.634 18.863 1.426 1.096 4.733 1.193 8.522.653 4.7-.671 6.91-5.622 6.91-5.622s9.735-2.555 10.619-11.431" mask="url(#f)"/>
        <path fill="#4F0400" d="M75.853 20.633l.352 2.794a3.067 3.067 0 0 0 2.153 2.553l.075.024 4.205 2.554s-1.58 5.307 1.043 6.428c4.874 2.083 7.353-10.77 7.353-10.77s-7.019-3.788-15.18-3.583" mask="url(#f)"/>
        <path fill="#0079C8" d="M65.25 17.546s14.188 4.81 26.257 7.17c0 0 4.4-15.565-9.33-18.363C67.917 3.446 65.25 17.546 65.25 17.546" mask="url(#f)"/>
        <path fill="#0067A7" d="M73.955 20.26s-6.702 1.032-11.75-.03c-5.124-1.08-6.73-3.523-7.018-4.386-.528-1.574 11.037-1.298 11.037-1.298s1.64 4.09 7.731 5.714" mask="url(#f)"/>
        <path fill="#FFB58D" d="M83.515 28.061c-1.19 2.09-3.36 3.096-4.85 2.247-1.489-.85-1.732-3.233-.543-5.323 1.189-2.09 3.36-3.095 4.849-2.246 1.49.85 1.733 3.232.544 5.322" mask="url(#f)"/>
        <path fill="#FFA883" d="M80.743 35.903s-2.79 4.63-8.176 5.268l.279-2.816c.854-.113 3.052-.309 7.897-2.452" mask="url(#f)"/>
        <path stroke="#FFA883" stroke-linecap="round" stroke-linejoin="round" stroke-width=".5" d="M50.76 77.38c-.655-.984-2.216-1.545-2.216-1.545s.739.984.794 1.607" mask="url(#f)"/>
    </g>
</svg>
