<svg xmlns="http://www.w3.org/2000/svg" xmlns:xlink="http://www.w3.org/1999/xlink" width="150" height="151" viewBox="0 0 150 151">
    <defs>
        <path id="a" d="M75 .42C33.578.42 0 34 0 75.42c0 41.422 33.578 75 75 75 41.421 0 75-33.578 75-75"/>
        <path id="c" d="M75 .42C33.578.42 0 34 0 75.42c0 41.422 33.578 75 75 75 41.421 0 75-33.578 75-75"/>
        <path id="e" d="M75 .42C33.578.42 0 34 0 75.42c0 41.422 33.578 75 75 75 41.421 0 75-33.578 75-75"/>
        <path id="g" d="M75 .42C33.578.42 0 34 0 75.42c0 41.422 33.578 75 75 75 41.421 0 75-33.578 75-75 0-41.421-33.579-75-75-75z"/>
        <path id="i" d="M75 .42C33.578.42 0 34 0 75.42c0 41.422 33.578 75 75 75 41.421 0 75-33.578 75-75 0-41.421-33.579-75-75-75z"/>
        <path id="k" d="M75 .42C33.578.42 0 34 0 75.42c0 41.422 33.578 75 75 75 41.421 0 75-33.578 75-75"/>
        <path id="m" d="M75 .42C33.578.42 0 34 0 75.42c0 41.422 33.578 75 75 75 41.421 0 75-33.578 75-75"/>
        <path id="o" d="M75 .42C33.578.42 0 34 0 75.42c0 41.422 33.578 75 75 75 41.421 0 75-33.578 75-75"/>
        <path id="q" d="M75 .42C33.578.42 0 34 0 75.42c0 41.422 33.578 75 75 75 41.421 0 75-33.578 75-75"/>
        <path id="s" d="M75 .42C33.578.42 0 34 0 75.42c0 41.422 33.578 75 75 75 41.421 0 75-33.578 75-75 0-41.421-33.579-75-75-75z"/>
        <path id="u" d="M75 .42C33.578.42 0 34 0 75.42c0 41.422 33.578 75 75 75 41.421 0 75-33.578 75-75 0-41.421-33.579-75-75-75z"/>
        <path id="w" d="M75 .42C33.578.42 0 34 0 75.42c0 41.422 33.578 75 75 75 41.421 0 75-33.578 75-75 0-41.421-33.579-75-75-75z"/>
        <path id="y" d="M75 .42C33.578.42 0 34 0 75.42c0 41.422 33.578 75 75 75 41.421 0 75-33.578 75-75 0-41.421-33.579-75-75-75z"/>
        <path id="A" d="M75 .42C33.578.42 0 34 0 75.42c0 41.422 33.578 75 75 75 41.421 0 75-33.578 75-75"/>
        <path id="C" d="M75 .42C33.578.42 0 34 0 75.42c0 41.422 33.578 75 75 75 41.421 0 75-33.578 75-75 0-41.421-33.579-75-75-75z"/>
        <path id="E" d="M75 .42C33.578.42 0 34 0 75.42c0 41.422 33.578 75 75 75 41.421 0 75-33.578 75-75 0-41.421-33.579-75-75-75z"/>
        <path id="G" d="M75 .42C33.578.42 0 34 0 75.42c0 41.422 33.578 75 75 75 41.421 0 75-33.578 75-75 0-41.421-33.579-75-75-75z"/>
        <path id="I" d="M75 .42C33.578.42 0 34 0 75.42c0 41.422 33.578 75 75 75 41.421 0 75-33.578 75-75"/>
        <path id="K" d="M75 .42C33.578.42 0 34 0 75.42c0 41.422 33.578 75 75 75 41.421 0 75-33.578 75-75"/>
        <path id="M" d="M75 .42C33.578.42 0 34 0 75.42c0 41.422 33.578 75 75 75 41.421 0 75-33.578 75-75 0-41.421-33.579-75-75-75z"/>
        <path id="O" d="M75 .42C33.578.42 0 34 0 75.42c0 41.422 33.578 75 75 75 41.421 0 75-33.578 75-75 0-41.421-33.579-75-75-75z"/>
        <path id="Q" d="M75 .42C33.578.42 0 34 0 75.42c0 41.422 33.578 75 75 75 41.421 0 75-33.578 75-75"/>
        <path id="S" d="M75 .42C33.578.42 0 34 0 75.42c0 41.422 33.578 75 75 75 41.421 0 75-33.578 75-75"/>
        <path id="U" d="M75 .42C33.578.42 0 34 0 75.42c0 41.422 33.578 75 75 75 41.421 0 75-33.578 75-75"/>
        <path id="W" d="M75 .42C33.578.42 0 34 0 75.42c0 41.422 33.578 75 75 75 41.421 0 75-33.578 75-75"/>
        <path id="Y" d="M75 .42C33.578.42 0 34 0 75.42c0 41.422 33.578 75 75 75 41.421 0 75-33.578 75-75"/>
        <path id="aa" d="M75 .42C33.578.42 0 34 0 75.42c0 41.422 33.578 75 75 75 41.421 0 75-33.578 75-75 0-41.421-33.579-75-75-75z"/>
        <path id="ac" d="M75 .42C33.578.42 0 34 0 75.42c0 41.422 33.578 75 75 75 41.421 0 75-33.578 75-75 0-41.421-33.579-75-75-75z"/>
        <path id="ae" d="M75 .42C33.578.42 0 34 0 75.42c0 41.422 33.578 75 75 75 41.421 0 75-33.578 75-75"/>
        <path id="ag" d="M75 .42C33.578.42 0 34 0 75.42c0 41.422 33.578 75 75 75 41.421 0 75-33.578 75-75 0-41.421-33.579-75-75-75z"/>
        <path id="ai" d="M75 .42C33.578.42 0 34 0 75.42c0 41.422 33.578 75 75 75 41.421 0 75-33.578 75-75"/>
        <path id="ak" d="M75 .42C33.578.42 0 34 0 75.42c0 41.422 33.578 75 75 75 41.421 0 75-33.578 75-75"/>
        <path id="am" d="M75 .42C33.578.42 0 34 0 75.42c0 41.422 33.578 75 75 75 41.421 0 75-33.578 75-75"/>
        <path id="ao" d="M75 .42C33.578.42 0 34 0 75.42c0 41.422 33.578 75 75 75 41.421 0 75-33.578 75-75"/>
        <path id="aq" d="M75 .42C33.578.42 0 34 0 75.42c0 41.422 33.578 75 75 75 41.421 0 75-33.578 75-75"/>
        <path id="as" d="M75 .42C33.578.42 0 34 0 75.42c0 41.422 33.578 75 75 75 41.421 0 75-33.578 75-75 0-41.421-33.579-75-75-75z"/>
        <path id="au" d="M75 .42C33.578.42 0 34 0 75.42c0 41.422 33.578 75 75 75 41.421 0 75-33.578 75-75 0-41.421-33.579-75-75-75z"/>
        <path id="aw" d="M75 .42C33.578.42 0 34 0 75.42c0 41.422 33.578 75 75 75 41.421 0 75-33.578 75-75"/>
        <path id="ay" d="M75 .42C33.578.42 0 34 0 75.42c0 41.422 33.578 75 75 75 41.421 0 75-33.578 75-75"/>
        <path id="aA" d="M75 .42C33.578.42 0 34 0 75.42c0 41.422 33.578 75 75 75 41.421 0 75-33.578 75-75"/>
        <path id="aC" d="M75 .42C33.578.42 0 34 0 75.42c0 41.422 33.578 75 75 75 41.421 0 75-33.578 75-75 0-41.421-33.579-75-75-75z"/>
        <path id="aE" d="M75 .42C33.578.42 0 34 0 75.42c0 41.422 33.578 75 75 75 41.421 0 75-33.578 75-75 0-41.421-33.579-75-75-75z"/>
        <path id="aG" d="M75 .42C33.578.42 0 34 0 75.42c0 41.422 33.578 75 75 75 41.421 0 75-33.578 75-75"/>
        <path id="aI" d="M75 .42C33.578.42 0 34 0 75.42c0 41.422 33.578 75 75 75 41.421 0 75-33.578 75-75"/>
        <path id="aK" d="M75 .42C33.578.42 0 34 0 75.42c0 41.422 33.578 75 75 75 41.421 0 75-33.578 75-75"/>
        <path id="aM" d="M75 .42C33.578.42 0 34 0 75.42c0 41.422 33.578 75 75 75 41.421 0 75-33.578 75-75"/>
    </defs>
    <g fill="none" fill-rule="evenodd">
        <path fill="#FFF" d="M75 .5C33.578.5 0 34.078 0 75.5c0 41.421 33.578 75 75 75 41.421 0 75-33.579 75-75 0-41.422-33.579-75-75-75z"/>
        <g transform="translate(0 .08)">
            <mask id="b" fill="#fff">
                <use xlink:href="#a"/>
            </mask>
            <path fill="#E8F8FE" d="M76.567 120.063v35.192c0 .2.044.394.125.576.293.688 1.113 1.187 2.073 1.187h57.665c.96 0 1.78-.5 2.073-1.187.08-.182.125-.376.125-.576v-35.192c0-.206-.044-.4-.125-.582-.3-.688-1.113-1.181-2.073-1.181H78.765c-.96 0-1.773.493-2.073 1.181-.08.182-.125.376-.125.582" mask="url(#b)"/>
        </g>
        <g transform="translate(0 .08)">
            <mask id="d" fill="#fff">
                <use xlink:href="#c"/>
            </mask>
            <path fill="#DBEEF8" d="M76.567 120.063v.718l21.903 12.422 1.201.682 7.502 4.25c.124.07.278.112.425.112a.907.907 0 0 0 .424-.112l7.501-4.25 1.195-.682 21.91-12.422v-.718c0-.206-.044-.4-.125-.582a.842.842 0 0 0-.293.1l-22.914 12.999c-.036.017-.073.035-.11.058l-7.588 4.298-7.59-4.298c-.036-.023-.073-.04-.11-.058L76.985 119.58a.842.842 0 0 0-.293-.1c-.08.182-.125.376-.125.582" mask="url(#d)"/>
        </g>
        <g transform="translate(0 .08)">
            <mask id="f" fill="#fff">
                <use xlink:href="#e"/>
            </mask>
            <path fill="#DBEEF8" d="M115.091 133.467l.432.417 22.54 21.747a.852.852 0 0 0 .44.2c.08-.182.125-.376.125-.576v-.923l-21.91-21.13-.506-.487c-.227-.224-.615-.27-.916-.135a1.023 1.023 0 0 0-.11.058c-.314.206-.358.576-.095.83" mask="url(#f)"/>
        </g>
        <g transform="translate(0 .08)">
            <mask id="h" fill="#fff">
                <use xlink:href="#g"/>
            </mask>
            <path fill="#00B3F4" d="M76.567 154.332v.923c0 .2.044.394.125.576a.8.8 0 0 0 .432-.2l22.547-21.747.432-.417c.257-.253.22-.623-.095-.829-.036-.023-.073-.04-.11-.058-.3-.136-.688-.089-.923.135l-.505.488-21.903 21.129z" mask="url(#h)"/>
        </g>
        <g transform="translate(0 .08)">
            <mask id="j" fill="#fff">
                <use xlink:href="#i"/>
            </mask>
            <path fill="#DBEEF8" d="M107.598 118.298h4.935v9.984c0 .474-.663.753-1.15.484l-3.37-1.866a.882.882 0 0 0-.831 0l-3.37 1.866c-.487.269-1.15-.01-1.15-.484v-9.984h4.936z" mask="url(#j)"/>
        </g>
        <g transform="translate(0 .08)">
            <mask id="l" fill="#fff">
                <use xlink:href="#k"/>
            </mask>
            <path fill="#B4E6FB" d="M119.452 154.57h6.146c.65 0 1.176-.526 1.176-1.175v-2.95c0-.649-.527-1.175-1.176-1.175h-6.146c-.65 0-1.176.526-1.176 1.175v2.95c0 .649.526 1.175 1.176 1.175" mask="url(#l)"/>
        </g>
        <g transform="translate(0 .08)">
            <mask id="n" fill="#fff">
                <use xlink:href="#m"/>
            </mask>
            <path fill="#E8F8FE" d="M133.024 81.348v35.186c0 .976-.787 1.764-1.763 1.764H84.975c-.97 0-1.763-.788-1.763-1.764V81.348c0-.976.793-1.763 1.763-1.763h46.286a1.76 1.76 0 0 1 1.763 1.763" mask="url(#n)"/>
        </g>
        <g transform="translate(0 .08)">
            <mask id="p" fill="#fff">
                <use xlink:href="#o"/>
            </mask>
            <path fill="#5ECEF9" d="M87.567 112.58h4.468c.65 0 1.176-.527 1.176-1.177v-2.949c0-.65-.527-1.176-1.176-1.176h-4.468c-.65 0-1.176.527-1.176 1.176v2.95c0 .649.526 1.175 1.176 1.175" mask="url(#p)"/>
        </g>
        <g transform="translate(0 .08)">
            <mask id="r" fill="#fff">
                <use xlink:href="#q"/>
            </mask>
            <path fill="#DBEEF8" d="M87.567 96.621h22.263c.65 0 1.176-.526 1.176-1.176v-10.3c0-.65-.527-1.176-1.176-1.176H87.567c-.65 0-1.176.526-1.176 1.175v10.301c0 .65.526 1.176 1.176 1.176" mask="url(#r)"/>
        </g>
        <g transform="translate(0 .08)">
            <mask id="t" fill="#fff">
                <use xlink:href="#s"/>
            </mask>
            <path fill="#DBEEF8" d="M125.776 79.582h3.96v15.862a.588.588 0 0 1-.922.484l-2.704-1.866a.589.589 0 0 0-.668 0l-2.705 1.866a.588.588 0 0 1-.922-.484V79.582h3.96z" mask="url(#t)"/>
        </g>
        <g transform="translate(0 .08)">
            <mask id="v" fill="#fff">
                <use xlink:href="#u"/>
            </mask>
            <path fill="#DBEEF8" d="M133.024 116.258v.276c0 .976-.787 1.764-1.763 1.764H84.975c-.97 0-1.763-.788-1.763-1.764v-.276h49.812z" mask="url(#v)"/>
        </g>
        <g transform="translate(0 .08)">
            <mask id="x" fill="#fff">
                <use xlink:href="#w"/>
            </mask>
            <path fill="#FFA267" d="M56.13 72.038l-12.525 22.99 9.934 11.212 12.397-11.674-.822-19.725z" mask="url(#x)"/>
        </g>
        <g transform="translate(0 .08)">
            <mask id="z" fill="#fff">
                <use xlink:href="#y"/>
            </mask>
            <path fill="#008CF3" d="M70.4 49.277s-7.298 1.906-15.828 22.397l9.69 5.47L70.4 49.276z" mask="url(#z)"/>
        </g>
        <g transform="translate(0 .08)">
            <mask id="B" fill="#fff">
                <use xlink:href="#A"/>
            </mask>
            <path fill="#009FF1" d="M105.82 81.18h-.005c-.02.09-.035.176-.055.266a515.436 515.436 0 0 1-2.1 9.65c-.56 2.465-1.13 4.935-1.705 7.35C98.75 112 95.61 123.82 95.61 123.82H56.42s.065-1.99.235-5.33c.065-1.245.14-2.68.235-4.265.08-1.285.165-2.67.265-4.14 1.41-20.67 5.225-57.785 14.585-61.61 5.545-2.27 9.045-2.62 17.665-1.16 8.63 1.46 17.065 6.46 19.08 12.22.85 2.435-.53 11.27-2.665 21.645" mask="url(#B)"/>
        </g>
        <g transform="translate(0 .08)">
            <mask id="D" fill="#fff">
                <use xlink:href="#C"/>
            </mask>
            <path fill="#005087" d="M77.147 151.181c4.391-13.548 0-27.361 0-27.361H56.42c-2.657 18.064-2.39 35.065-1.207 52.586h22.079l-.144-25.225z" mask="url(#D)"/>
        </g>
        <g transform="translate(0 .08)">
            <mask id="F" fill="#fff">
                <use xlink:href="#E"/>
            </mask>
            <path fill="#FFBB87" d="M98.028 32.185l-1.68 17.832-14.29-2.266 3.104-9.64z" mask="url(#F)"/>
        </g>
        <g transform="translate(0 .08)">
            <mask id="H" fill="#fff">
                <use xlink:href="#G"/>
            </mask>
            <path fill="#005589" d="M95.61 151.181c4.39-13.548 0-27.361 0-27.361H59.607c0 10.625 3.72 27.627 3.72 27.627 1.117 4.473 2.55 10.76 5.033 24.96h28.407L95.61 151.18z" mask="url(#H)"/>
        </g>
        <g transform="translate(0 .08)">
            <mask id="J" fill="#fff">
                <use xlink:href="#I"/>
            </mask>
            <path fill="#00324E" d="M95.61 123.82H56.42c-.14.968-.264 1.692-.476 3.463 0 0 35.044-2.359 41.288 4.925-.556-5.028-1.622-8.388-1.622-8.388" mask="url(#J)"/>
        </g>
        <g transform="translate(0 .08)">
            <mask id="L" fill="#fff">
                <use xlink:href="#K"/>
            </mask>
            <path fill="#B6E8FC" d="M9.509 51.208l58.802-6.71a3.5 3.5 0 0 1 3.877 3.11l6.191 58.7a3.5 3.5 0 0 1-3.084 3.845l-58.801 6.71a3.5 3.5 0 0 1-3.878-3.111l-6.191-58.7a3.5 3.5 0 0 1 3.084-3.844" mask="url(#L)"/>
        </g>
        <g transform="translate(0 .08)">
            <mask id="N" fill="#fff">
                <use xlink:href="#M"/>
            </mask>
            <path fill="#FFBB87" d="M78.832 57.71l17.515-7.694-10.378-5.368-3.911 3.103z" mask="url(#N)"/>
        </g>
        <g transform="translate(0 .08)">
            <mask id="P" fill="#fff">
                <use xlink:href="#O"/>
            </mask>
            <path fill="#FF8D63" d="M82.73 45.664c1.098-.384 8.152-2.94 10.716-6.104h-8.751l-1.965 6.104z" mask="url(#P)"/>
        </g>
        <g transform="translate(0 .08)">
            <mask id="R" fill="#fff">
                <use xlink:href="#Q"/>
            </mask>
            <path fill="#FFBB87" d="M111.637 31.9c4.264-6.988 1.496-15.905-5.782-19.656-6.673-3.439-14.742-1.317-18.928 4.67-4.107 4.761-11.995 14.735-9.894 18.899.916 1.816 4.24 3.54 8.369 4.848 5.122 1.625 9.803-2.332 9.803-2.332s11.18 2.177 16.432-6.429" mask="url(#R)"/>
        </g>
        <g transform="translate(0 .08)">
            <mask id="T" fill="#fff">
                <use xlink:href="#S"/>
            </mask>
            <path fill="#005995" d="M96.049 23.715l-1.01 3.018a3.468 3.468 0 0 0 .942 3.657l.066.06 3.035 4.666s-4.212 4.63-2.088 7.058c3.949 4.514 12.779-7.358 12.779-7.358s-5.3-7.303-13.724-11.101" mask="url(#T)"/>
        </g>
        <path fill="#00324E" d="M86.75 15.445s12.11 11.864 23.26 20.192c0 0 12.117-13.69-.512-23.28-13.116-9.961-22.749 3.088-22.749 3.088"/>
        <g transform="translate(0 .08)">
            <mask id="V" fill="#fff">
                <use xlink:href="#U"/>
            </mask>
            <path fill="#00324E" d="M95.205 22.605s-8.25-2.44-12.875-6c-4.697-3.615-5.136-6.892-5.008-7.912.234-1.862 11.832 4.064 11.832 4.064s.359 5.292 6.05 9.848" mask="url(#V)"/>
        </g>
        <g transform="translate(0 .08)">
            <mask id="X" fill="#fff">
                <use xlink:href="#W"/>
            </mask>
            <path fill="#FFBB87" d="M100.22 35.041c-2.237 1.545-4.944 1.503-6.046-.093-1.103-1.596-.183-4.142 2.055-5.687 2.236-1.545 4.943-1.503 6.045.093 1.103 1.596.183 4.142-2.054 5.687" mask="url(#X)"/>
        </g>
        <g transform="translate(0 .08)">
            <mask id="Z" fill="#fff">
                <use xlink:href="#Y"/>
            </mask>
            <path fill="#65D0F9" d="M66.233 77.603l-16.22 7.317a1.836 1.836 0 0 1-2.428-.919l-2.466-5.465a1.836 1.836 0 0 1 .919-2.428l16.22-7.318a1.836 1.836 0 0 1 2.428.919l2.466 5.465a1.836 1.836 0 0 1-.919 2.429" mask="url(#Z)"/>
        </g>
        <g transform="translate(0 .08)">
            <mask id="ab" fill="#fff">
                <use xlink:href="#aa"/>
            </mask>
            <path fill="#00B5FF" d="M76.864 66.15l1.252-1.848 6.035 4.091-1.252 1.848z" mask="url(#ab)"/>
        </g>
        <g transform="translate(0 .08)">
            <mask id="ad" fill="#fff">
                <use xlink:href="#ac"/>
            </mask>
            <path fill="#005991" d="M78.832 57.71l5.852-7.143s12.618-1.547 12.169-5.919c0 0 1.7 1.64 2.152 5.807 0 0-8.283 8.512-12.75 10.83l-1.311-6.26-6.112 2.685z" mask="url(#ad)"/>
        </g>
        <g transform="translate(0 .08)">
            <mask id="af" fill="#fff">
                <use xlink:href="#ae"/>
            </mask>
            <path fill="#008CF3" d="M101.955 98.445c-3.205 13.556-6.345 25.376-6.345 25.376H73.495a59.896 59.896 0 0 0 9.975-5.456 60.54 60.54 0 0 0 9.06-7.544 61.131 61.131 0 0 0 9.425-12.376" mask="url(#af)"/>
        </g>
        <g transform="translate(0 .08)">
            <mask id="ah" fill="#fff">
                <use xlink:href="#ag"/>
            </mask>
            <path fill="#005991" d="M78.832 57.71l2.492-7.694 2.388-7.404s-4.295.586-9.384 8.245l4.2-.145.304 6.998z" mask="url(#ah)"/>
        </g>
        <g transform="translate(0 .08)">
            <mask id="aj" fill="#fff">
                <use xlink:href="#ai"/>
            </mask>
            <path fill="#00B8F5" d="M99.264 144.812l-9.91 1.245a2.11 2.11 0 0 1-2.357-1.83l-2.874-22.878a2.11 2.11 0 0 1 1.83-2.357l9.91-1.245a2.11 2.11 0 0 1 2.358 1.831l2.873 22.878a2.11 2.11 0 0 1-1.83 2.356" mask="url(#aj)"/>
        </g>
        <g transform="translate(0 .08)">
            <mask id="al" fill="#fff">
                <use xlink:href="#ak"/>
            </mask>
            <path fill="#B4E6FB" d="M97.045 130.964l-8.967 1.127a.885.885 0 0 1-.988-.768l-1.126-8.967a.884.884 0 0 1 .767-.987l8.967-1.127a.884.884 0 0 1 .988.767l1.126 8.967a.884.884 0 0 1-.767.988" mask="url(#al)"/>
        </g>
        <g transform="translate(0 .08)">
            <mask id="an" fill="#fff">
                <use xlink:href="#am"/>
            </mask>
            <path fill="#009FF1" d="M97.391 135.247l-8.59 1.079a.863.863 0 0 1-.962-.749l-.037-.286a.863.863 0 0 1 .749-.963l8.59-1.08a.863.863 0 0 1 .963.75l.036.285a.863.863 0 0 1-.749.964" mask="url(#an)"/>
        </g>
        <g transform="translate(0 .08)">
            <mask id="ap" fill="#fff">
                <use xlink:href="#ao"/>
            </mask>
            <path fill="#009FF1" d="M97.783 138.369l-8.59 1.079a.863.863 0 0 1-.962-.749l-.037-.286a.863.863 0 0 1 .749-.963l8.59-1.08a.863.863 0 0 1 .963.75l.036.285a.863.863 0 0 1-.749.964" mask="url(#ap)"/>
        </g>
        <g transform="translate(0 .08)">
            <mask id="ar" fill="#fff">
                <use xlink:href="#aq"/>
            </mask>
            <path fill="#009FF1" d="M98.175 141.49l-8.59 1.08a.863.863 0 0 1-.962-.749l-.036-.286a.862.862 0 0 1 .748-.963l8.59-1.08a.862.862 0 0 1 .963.749l.036.286a.863.863 0 0 1-.749.964" mask="url(#ar)"/>
        </g>
        <g transform="translate(0 .08)">
            <mask id="at" fill="#fff">
                <use xlink:href="#as"/>
            </mask>
            <path fill="#FFBB87" d="M99.397 88.518l-25.783 18.124-1.08.758c-.242.17-.514.299-.783.38L30.99 119.948 29 114.913l38.077-18.965-1.862 1.138L86.5 73.843l12.897 14.675z" mask="url(#at)"/>
        </g>
        <g transform="translate(0 .08)">
            <mask id="av" fill="#fff">
                <use xlink:href="#au"/>
            </mask>
            <path fill="#009FF1" d="M83.024 75.766l17.84 14.687s5.203-7.197 8.692-11.806c2.625-3.466 5.851-11.801-1.288-20.468-8.379-10.172-19.736 6.13-19.736 6.13l-5.508 11.457z" mask="url(#av)"/>
        </g>
        <g transform="translate(0 .08)">
            <mask id="ax" fill="#fff">
                <use xlink:href="#aw"/>
            </mask>
            <path stroke="#0067A7" stroke-linecap="round" stroke-linejoin="round" stroke-width=".5" d="M85.73 72.038l8.421-9.02" mask="url(#ax)"/>
        </g>
        <g transform="translate(0 .08)">
            <mask id="az" fill="#fff">
                <use xlink:href="#ay"/>
            </mask>
            <path fill="#0067A7" d="M80.729 77.61l16.707 15.58a.641.641 0 0 0 .906-.032l2.523-2.705a.64.64 0 0 0-.032-.906L84.127 73.966a.642.642 0 0 0-.907.032l-2.522 2.705a.642.642 0 0 0 .031.907" mask="url(#az)"/>
        </g>
        <g transform="translate(0 .08)">
            <mask id="aB" fill="#fff">
                <use xlink:href="#aA"/>
            </mask>
            <path fill="#FFBB87" d="M26.125 110.948c-.213-.28-.434-.565-.735-.747-.301-.182-.705-.239-.999-.046-.302.197-.408.595-.391.956.042.896.685 1.747.477 2.62-.137.572-.625 1.007-1.168 1.233-.543.226-1.14.275-1.726.323l-6.605.531c-.425.034-.899.094-1.162.428-.255.324-.214.789-.103 1.185.467 1.665 1.917 2.92 3.53 3.54 1.615.618 3.385.683 5.113.627a39.619 39.619 0 0 0 6.28-.706c.709-.137 2.149-.785 2.65-1.305.641-.666 0-1.27-.323-2.136-.405-1.084-1.271-1.935-1.995-2.813-.986-1.197-1.9-2.459-2.843-3.69" mask="url(#aB)"/>
        </g>
        <g transform="translate(0 .08)">
            <mask id="aD" fill="#fff">
                <use xlink:href="#aC"/>
            </mask>
            <path fill="#FFBB87" d="M28.758 118.19s1.46 1.62 3.969.965l-3.093 1.408-.876-2.374z" mask="url(#aD)"/>
        </g>
        <g transform="translate(0 .08)">
            <mask id="aF" fill="#fff">
                <use xlink:href="#aE"/>
            </mask>
            <path fill="#FFF" d="M18.613 47.61l4.9-.56 2.672 23.472c.043.472-.59.81-1.1.587l-3.527-1.547a.883.883 0 0 0-.829.077l-3.184 2.169c-.459.313-1.144.096-1.188-.376l-2.584-23.27 4.84-.553z" mask="url(#aF)"/>
        </g>
        <g transform="translate(0 .08)">
            <mask id="aH" fill="#fff">
                <use xlink:href="#aG"/>
            </mask>
            <path stroke="#66D0F8" stroke-width=".5" d="M17.818 92.836c3.227-.998 3.818.913 7.045-.085 3.23-.999 2.638-2.91 5.867-3.908 3.23-.999 3.82.912 7.05-.087" mask="url(#aH)"/>
        </g>
        <g transform="translate(0 .08)">
            <mask id="aJ" fill="#fff">
                <use xlink:href="#aI"/>
            </mask>
            <path stroke="#66D0F8" stroke-width=".5" d="M19.076 96.904c3.227-.998 3.818.913 7.045-.085 3.23-.999 2.638-2.91 5.867-3.909 3.23-.998 3.82.913 7.05-.086" mask="url(#aJ)"/>
        </g>
        <g transform="translate(0 .08)">
            <mask id="aL" fill="#fff">
                <use xlink:href="#aK"/>
            </mask>
            <path stroke="#66D0F8" stroke-width=".5" d="M20.334 100.972c3.227-.998 3.818.913 7.045-.085 3.229-.999 2.638-2.91 5.867-3.908 3.23-.999 3.82.912 7.05-.087" mask="url(#aL)"/>
        </g>
        <g transform="translate(0 .08)">
            <mask id="aN" fill="#fff">
                <use xlink:href="#aM"/>
            </mask>
            <path stroke="#FFA267" stroke-linecap="round" stroke-linejoin="round" stroke-width=".5" d="M69.736 99.66c-1.03-1.863-3.724-2.734-3.724-2.734s1.142.981 1.612 2.274" mask="url(#aN)"/>
        </g>
    </g>
</svg>
