<svg xmlns="http://www.w3.org/2000/svg" xmlns:xlink="http://www.w3.org/1999/xlink" width="125" height="130" viewBox="0 0 125 130">
    <defs>
        <path id="a" d="M0 .081v87.19c0 34.403 27.89 62.292 62.292 62.292 34.404 0 62.293-27.89 62.293-62.293V.081"/>
        <path id="c" d="M0 .081v87.19c0 34.403 27.89 62.292 62.292 62.292 34.404 0 62.293-27.89 62.293-62.293V.081"/>
        <path id="e" d="M0 .081v87.19c0 34.403 27.89 62.292 62.292 62.292 34.404 0 62.293-27.89 62.293-62.293V.081"/>
        <path id="g" d="M0 .081v87.19c0 34.403 27.89 62.292 62.292 62.292 34.404 0 62.293-27.89 62.293-62.293V.081"/>
        <path id="i" d="M0 .081v87.19c0 34.403 27.89 62.292 62.292 62.292 34.404 0 62.293-27.89 62.293-62.293V.081"/>
        <path id="k" d="M0 .081v87.19c0 34.403 27.89 62.292 62.292 62.292 34.404 0 62.293-27.89 62.293-62.293V.081"/>
        <path id="m" d="M0 .081v87.19c0 34.403 27.89 62.292 62.292 62.292 34.404 0 62.293-27.89 62.293-62.293V.081"/>
        <path id="o" d="M0 .081v87.19c0 34.403 27.89 62.292 62.292 62.292 34.404 0 62.293-27.89 62.293-62.293V.081"/>
        <path id="q" d="M0 .081v87.19c0 34.403 27.89 62.292 62.292 62.292 34.404 0 62.293-27.89 62.293-62.293V.081H0z"/>
        <path id="s" d="M0 .081v87.19c0 34.403 27.89 62.292 62.292 62.292 34.404 0 62.293-27.89 62.293-62.293V.081H0z"/>
        <path id="u" d="M0 .081v87.19c0 34.403 27.89 62.292 62.292 62.292 34.404 0 62.293-27.89 62.293-62.293V.081H0z"/>
        <path id="w" d="M0 .081v87.19c0 34.403 27.89 62.292 62.292 62.292 34.404 0 62.293-27.89 62.293-62.293V.081H0z"/>
        <path id="y" d="M0 .081v87.19c0 34.403 27.89 62.292 62.292 62.292 34.404 0 62.293-27.89 62.293-62.293V.081"/>
        <path id="A" d="M0 .081v87.19c0 34.403 27.89 62.292 62.292 62.292 34.404 0 62.293-27.89 62.293-62.293V.081"/>
        <path id="C" d="M0 .081v87.19c0 34.403 27.89 62.292 62.292 62.292 34.404 0 62.293-27.89 62.293-62.293V.081"/>
        <path id="E" d="M0 .081v87.19c0 34.403 27.89 62.292 62.292 62.292 34.404 0 62.293-27.89 62.293-62.293V.081"/>
        <path id="G" d="M0 .081v87.19c0 34.403 27.89 62.292 62.292 62.292 34.404 0 62.293-27.89 62.293-62.293V.081"/>
        <path id="I" d="M0 .081v87.19c0 34.403 27.89 62.292 62.292 62.292 34.404 0 62.293-27.89 62.293-62.293V.081"/>
        <path id="K" d="M0 .081v87.19c0 34.403 27.89 62.292 62.292 62.292 34.404 0 62.293-27.89 62.293-62.293V.081"/>
        <path id="M" d="M0 .081v87.19c0 34.403 27.89 62.292 62.292 62.292 34.404 0 62.293-27.89 62.293-62.293V.081H0z"/>
        <path id="O" d="M0 .081v87.19c0 34.403 27.89 62.292 62.292 62.292 34.404 0 62.293-27.89 62.293-62.293V.081H0z"/>
        <path id="Q" d="M0 .081v87.19c0 34.403 27.89 62.292 62.292 62.292 34.404 0 62.293-27.89 62.293-62.293V.081H0z"/>
        <path id="S" d="M0 .081v87.19c0 34.403 27.89 62.292 62.292 62.292 34.404 0 62.293-27.89 62.293-62.293V.081"/>
        <path id="U" d="M0 .081v87.19c0 34.403 27.89 62.292 62.292 62.292 34.404 0 62.293-27.89 62.293-62.293V.081"/>
        <path id="W" d="M0 .081v87.19c0 34.403 27.89 62.292 62.292 62.292 34.404 0 62.293-27.89 62.293-62.293V.081"/>
        <path id="Y" d="M0 .081v87.19c0 34.403 27.89 62.292 62.292 62.292 34.404 0 62.293-27.89 62.293-62.293V.081H0z"/>
        <path id="aa" d="M0 .081v87.19c0 34.403 27.89 62.292 62.292 62.292 34.404 0 62.293-27.89 62.293-62.293V.081H0z"/>
        <path id="ac" d="M0 .081v87.19c0 34.403 27.89 62.292 62.292 62.292 34.404 0 62.293-27.89 62.293-62.293V.081"/>
        <path id="ae" d="M0 .081v87.19c0 34.403 27.89 62.292 62.292 62.292 34.404 0 62.293-27.89 62.293-62.293V.081"/>
        <path id="ag" d="M0 .081v87.19c0 34.403 27.89 62.292 62.292 62.292 34.404 0 62.293-27.89 62.293-62.293V.081H0z"/>
        <path id="ai" d="M0 .081v87.19c0 34.403 27.89 62.292 62.292 62.292 34.404 0 62.293-27.89 62.293-62.293V.081"/>
        <path id="ak" d="M0 .081v87.19c0 34.403 27.89 62.292 62.292 62.292 34.404 0 62.293-27.89 62.293-62.293V.081"/>
        <path id="am" d="M0 .081v87.19c0 34.403 27.89 62.292 62.292 62.292 34.404 0 62.293-27.89 62.293-62.293V.081"/>
        <path id="ao" d="M0 .081v87.19c0 34.403 27.89 62.292 62.292 62.292 34.404 0 62.293-27.89 62.293-62.293V.081"/>
        <path id="aq" d="M0 .415v87.19c0 34.403 27.89 62.292 62.292 62.292 34.404 0 62.293-27.89 62.293-62.292V.415H0z"/>
    </defs>
    <g fill="none" fill-rule="evenodd" transform="translate(0 -21)">
        <path fill="#FFF" d="M62.5 26C27.982 26 0 53.982 0 88.5S27.982 151 62.5 151 125 123.018 125 88.5 97.018 26 62.5 26z"/>
        <g transform="translate(0 .334)">
            <mask id="b" fill="#fff">
                <use xlink:href="#a"/>
            </mask>
            <path fill="#B6E8FC" d="M6.843 95.388h81.035c.913 0 1.653-.74 1.653-1.653V36.238c0-.913-.74-1.653-1.653-1.653H6.843c-.913 0-1.653.74-1.653 1.653v57.497c0 .913.74 1.653 1.653 1.653" mask="url(#b)"/>
        </g>
        <g transform="translate(0 .334)">
            <mask id="d" fill="#fff">
                <use xlink:href="#c"/>
            </mask>
            <path fill="#E8F8FE" d="M6.843 95.388h81.035c.913 0 1.653-.74 1.653-1.653V36.238c0-.913-.74-1.653-1.653-1.653H6.843c-.913 0-1.653.74-1.653 1.653v57.497c0 .913.74 1.653 1.653 1.653" mask="url(#d)"/>
        </g>
        <g transform="translate(0 .334)">
            <mask id="f" fill="#fff">
                <use xlink:href="#e"/>
            </mask>
            <path fill="#DBEEF8" d="M91.18 95.388H3.542c-.914 0-1.654-.74-1.654-1.653V91.32c0-.913.74-1.653 1.654-1.653h87.636c.913 0 1.653.74 1.653 1.653v2.416c0 .913-.74 1.653-1.653 1.653" mask="url(#f)"/>
        </g>
        <g transform="translate(0 .334)">
            <mask id="h" fill="#fff">
                <use xlink:href="#g"/>
            </mask>
            <path fill="#DBEEF8" d="M25.07 89.666H11.55c-.716 0-1.297-.58-1.297-1.297v-2.885c0-.716.581-1.296 1.297-1.296h13.52c.717 0 1.298.58 1.298 1.296v2.885c0 .716-.58 1.297-1.298 1.297" mask="url(#h)"/>
        </g>
        <g transform="translate(0 .334)">
            <mask id="j" fill="#fff">
                <use xlink:href="#i"/>
            </mask>
            <path fill="#DBEEF8" d="M12.592 50.09h62.122c.58 0 1.05-.47 1.05-1.05v-3.324c0-.58-.47-1.05-1.05-1.05H12.592c-.58 0-1.05.47-1.05 1.05v3.324c0 .58.47 1.05 1.05 1.05" mask="url(#j)"/>
        </g>
        <g transform="translate(0 .334)">
            <mask id="l" fill="#fff">
                <use xlink:href="#k"/>
            </mask>
            <path fill="#003855" d="M86.338 40.265s-2.784 8.313 3.675 12.522c4.144 2.701 14.75 18.724-3.213 22.89-17.962 4.165-21.953-7.679-21.354-22.111.599-14.434 20.892-13.301 20.892-13.301" mask="url(#l)"/>
        </g>
        <g transform="translate(0 .334)">
            <mask id="n" fill="#fff">
                <use xlink:href="#m"/>
            </mask>
            <path fill="#009FF1" d="M79.433 63.314l6.962 16.96s4.437-1.719 10.516-2.784L95.5 63.963c-7.747-.115-16.067-.65-16.067-.65" mask="url(#n)"/>
        </g>
        <g transform="translate(0 .334)">
            <mask id="p" fill="#fff">
                <use xlink:href="#o"/>
            </mask>
            <path fill="#FFB58D" d="M117.564 34.074l-5.005.681s-.052 27.048-4.841 28.559c-1.94.611-6.946.727-12.218.65l1.411 13.525c8.846-1.55 20.627-3.045 22.774-6.866 3.623-6.445-2.121-36.55-2.121-36.55" mask="url(#p)"/>
        </g>
        <g transform="translate(0 .334)">
            <mask id="r" fill="#fff">
                <use xlink:href="#q"/>
            </mask>
            <path fill="#009FF1" d="M68.35 63.6s-13.77 3.142-16.314 10.476c-.805 2.319-1.07 6.51-1.252 11.326l13.591 2.792L68.349 63.6z" mask="url(#r)"/>
        </g>
        <g transform="translate(0 .334)">
            <mask id="t" fill="#fff">
                <use xlink:href="#s"/>
            </mask>
            <path fill="#FFB58D" d="M50.784 85.402c-.392 10.414-.39 23.754-4.585 27.438l14.218-.15 3.958-24.496-13.591-2.792z" mask="url(#t)"/>
        </g>
        <g transform="translate(0 .334)">
            <mask id="v" fill="#fff">
                <use xlink:href="#u"/>
            </mask>
            <path fill="#00CCA8" d="M61.95 123.268l-31.06-6.217 5.46-27.281 31.023 6.14z" mask="url(#v)"/>
        </g>
        <g transform="translate(0 .334)">
            <mask id="x" fill="#fff">
                <use xlink:href="#w"/>
            </mask>
            <path fill="#00BA9A" d="M67.373 95.91l-20.642-4.086 2.493 28.897 12.725 2.547z" mask="url(#x)"/>
        </g>
        <g transform="translate(0 .334)">
            <mask id="z" fill="#fff">
                <use xlink:href="#y"/>
            </mask>
            <path fill="#FFB58D" d="M34.774 117.794s-.046-1.837 1.409-3.6c.52-.633 1.353-.922 2.162-.786l4.212.71a1.359 1.359 0 0 1 1.107 1.62c-.265 1.245-.447 3.012.37 3.858l2.423.485s-3.415 1.907-7.095 1.08c-4.589-1.031-4.588-3.367-4.588-3.367" mask="url(#z)"/>
        </g>
        <g transform="translate(0 .334)">
            <mask id="B" fill="#fff">
                <use xlink:href="#A"/>
            </mask>
            <path fill="#009FF1" d="M93.795 127.957H51.386s-.058-.12-.075-.527c-.066-1.533.432-7.147 6.657-25.88.898-14.187-1.744-30.948-.593-32.962 2.392-4.19 29.335-9.78 30.531.2.25 2.088-.204 6.47-.673 11.848-.552 6.337-1.133 14.057-.627 21.046 5.989 14.9 7.189 26.275 7.189 26.275" mask="url(#B)"/>
        </g>
        <g transform="translate(0 .334)">
            <mask id="D" fill="#fff">
                <use xlink:href="#C"/>
            </mask>
            <path fill="#C57240" d="M93.693 127.615l-42.306.199s-.843 20.067 7.886 71.064H72.93c-.906-20.485-1.395-40.952-.39-50.667 0 0 2.389 24.892 4.852 50.667h14.845c1.302-25.039 2.27-52.938 1.456-71.263" mask="url(#D)"/>
        </g>
        <g transform="translate(0 .334)">
            <mask id="F" fill="#fff">
                <use xlink:href="#E"/>
            </mask>
            <path fill="#FFB58D" d="M81.275 65.367c.126 1.814-3.648 3.556-8.43 3.89-4.783.335-8.763-.864-8.89-2.678-.127-1.815 3.647-3.556 8.43-3.891 4.782-.334 8.763.865 8.89 2.679" mask="url(#F)"/>
        </g>
        <g transform="translate(0 .334)">
            <mask id="H" fill="#fff">
                <use xlink:href="#G"/>
            </mask>
            <path fill="#A6E3FC" d="M69.641 102.853l-6.702-.483a1.127 1.127 0 0 1-1.043-1.206l.888-12.32a1.129 1.129 0 0 1 1.207-1.044l6.701.484c.621.045 1.089.585 1.044 1.206l-.89 12.32a1.128 1.128 0 0 1-1.205 1.043" mask="url(#H)"/>
        </g>
        <g transform="translate(0 .334)">
            <mask id="J" fill="#fff">
                <use xlink:href="#I"/>
            </mask>
            <path fill="#00B8F5" d="M67.861 87.479a.566.566 0 1 1-1.132 0 .566.566 0 0 1 1.132 0" mask="url(#J)"/>
        </g>
        <g transform="translate(0 .334)">
            <mask id="L" fill="#fff">
                <use xlink:href="#K"/>
            </mask>
            <path stroke="#0067A7" stroke-linecap="round" stroke-linejoin="round" stroke-width=".5" d="M76.97 62.939s6.117-.393 3.618 7.025c-2.6 7.713-13.293 17.515-13.293 17.515s-7.586-22.853 1.693-24.025" mask="url(#L)"/>
        </g>
        <g transform="translate(0 .334)">
            <mask id="N" fill="#fff">
                <use xlink:href="#M"/>
            </mask>
            <path fill="#FFB58D" d="M112.56 34.755s2.52-6.476 3.127-11.47c.464-3.817 6.75-.759 7.14 2.428.389 3.187-5.122 12.642-5.122 12.642l-5.146-3.6z" mask="url(#N)"/>
        </g>
        <g transform="translate(0 .334)">
            <mask id="P" fill="#fff">
                <use xlink:href="#O"/>
            </mask>
            <path fill="#FFB58D" d="M112.56 34.755s-1.466-8.335.226-8.735c1.284-.303 1.986 3.243 1.986 3.243l-2.213 5.492z" mask="url(#P)"/>
        </g>
        <g transform="translate(0 .334)">
            <mask id="R" fill="#fff">
                <use xlink:href="#Q"/>
            </mask>
            <path fill="#009FF1" d="M58.699 73.676s-11.104 14.06-.56 23.446l3.307-6.672-2.747-16.774z" mask="url(#R)"/>
        </g>
        <g transform="translate(0 .334)">
            <mask id="T" fill="#fff">
                <use xlink:href="#S"/>
            </mask>
            <path fill="#005D91" d="M98.633 194.111H51.885c-4.028-32.41-2.36-53.2-1.232-61.793.334-2.463.616-3.925.705-4.36.013-.09.027-.142.027-.142l42.31-.205c.013.115.04.23.052.346.552 3.258 1.141 6.054 1.36 10.184.179 3.347.115 7.567-.41 13.608-1.207 13.774 3.936 42.362 3.936 42.362" mask="url(#T)"/>
        </g>
        <g transform="translate(0 .334)">
            <mask id="V" fill="#fff">
                <use xlink:href="#U"/>
            </mask>
            <path stroke="#0067A7" stroke-linecap="round" stroke-linejoin="round" stroke-width=".5" d="M53.926 83.244s.443-3.307 2.552-7.567" mask="url(#V)"/>
        </g>
        <g transform="translate(0 .334)">
            <mask id="X" fill="#fff">
                <use xlink:href="#W"/>
            </mask>
            <path fill="#FFB58D" d="M85.27 40.898c-1.266 6.646-11.329 18.583-17.975 17.316-6.646-1.267-7.358-15.258-6.091-21.904 1.267-6.646 7.681-11.006 14.328-9.74 6.645 1.268 11.006 7.682 9.739 14.328" mask="url(#X)"/>
        </g>
        <g transform="translate(0 .334)">
            <mask id="Z" fill="#fff">
                <use xlink:href="#Y"/>
            </mask>
            <path fill="#FFB58D" d="M70.867 54.658L67.9 64.946h10.178l-.973-14.03z" mask="url(#Z)"/>
        </g>
        <g transform="translate(0 .334)">
            <mask id="ab" fill="#fff">
                <use xlink:href="#aa"/>
            </mask>
            <path fill="#FFA883" d="M79.166 42.924c-4.601 11.59-11.298 14.689-12.904 14.97.328.142.671.251 1.033.32 5.538 1.056 13.448-7.056 16.664-13.636l-4.793-1.654z" mask="url(#ab)"/>
        </g>
        <g transform="translate(0 .334)">
            <mask id="ad" fill="#fff">
                <use xlink:href="#ac"/>
            </mask>
            <path fill="#003855" d="M60.956 37.037s2.095-4.19 3.792-4.49c0 0 3.392 8.681 14.667 10.676l3.792 3.293s3.691-4.09 3.592-10.177c-.1-6.087-6.098-10.53-12.373-11.076-6.885-.598-13.87 3.693-13.47 11.774" mask="url(#ad)"/>
        </g>
        <g transform="translate(0 .334)">
            <mask id="af" fill="#fff">
                <use xlink:href="#ae"/>
            </mask>
            <path fill="#FFA883" d="M83.554 45.618c0 1.9-1.156 3.441-2.581 3.441s-2.581-1.54-2.581-3.44 1.156-3.441 2.58-3.441c1.426 0 2.582 1.54 2.582 3.44" mask="url(#af)"/>
        </g>
        <g transform="translate(0 .334)">
            <mask id="ah" fill="#fff">
                <use xlink:href="#ag"/>
            </mask>
            <path fill="#FFA883" d="M70.263 56.751l-1.153 4c1.16-.416 5.242-2.066 8.284-5.653l-.196-2.826-6.935 4.48z" mask="url(#ah)"/>
        </g>
        <g transform="translate(0 .334)">
            <mask id="aj" fill="#fff">
                <use xlink:href="#ai"/>
            </mask>
            <path stroke="#F68A6B" stroke-linecap="round" stroke-linejoin="round" stroke-width=".5" d="M113.014 64.73c-1.668-1.235-4.844-1.644-4.844-1.644s1.708-.659 2.91-.592" mask="url(#aj)"/>
        </g>
        <g transform="translate(0 .334)">
            <mask id="al" fill="#fff">
                <use xlink:href="#ak"/>
            </mask>
            <path stroke="#00B8F5" stroke-linecap="round" stroke-linejoin="round" stroke-width=".5" d="M95.5 63.963l1.41 13.527" mask="url(#al)"/>
        </g>
        <g transform="translate(0 .334)">
            <mask id="an" fill="#fff">
                <use xlink:href="#am"/>
            </mask>
            <path stroke="#00B8F5" stroke-linecap="round" stroke-linejoin="round" stroke-width=".5" d="M50.784 85.402l2.86.588" mask="url(#an)"/>
        </g>
        <g transform="translate(0 .334)">
            <mask id="ap" fill="#fff">
                <use xlink:href="#ao"/>
            </mask>
            <path fill="#008CF3" d="M93.795 127.957H51.386s-.058-.12-.075-.527a238.723 238.723 0 0 0 20.254-16.678c3.156-2.903 6.27-5.939 8.488-9.61 3.223-5.344 4.332-11.648 5.91-17.687.236-.922.506-1.868 1.092-2.616.054-.07.116-.137.178-.203-.552 6.337-1.133 14.057-.627 21.046 5.989 14.9 7.189 26.275 7.189 26.275" mask="url(#ap)"/>
        </g>
        <mask id="ar" fill="#fff">
            <use xlink:href="#aq"/>
        </mask>
        <text fill="#DBEEF8" font-family="LucidaGrande, Lucida Grande" font-size="14.839" letter-spacing=".668" mask="url(#ar)">
            <tspan x="12.373" y="69.973">˜</tspan> <tspan x="22.155" y="69.973">˚</tspan> <tspan x="31.27" y="69.973" letter-spacing=".46">˛</tspan> <tspan x="40.845" y="69.973">˚˝</tspan>
        </text>
    </g>
</svg>
