<svg xmlns="http://www.w3.org/2000/svg" xmlns:xlink="http://www.w3.org/1999/xlink" width="125" height="125" viewBox="0 0 125 125">
    <defs>
        <path id="a" d="M62.5.09C27.982.09 0 28.11 0 62.673s27.982 62.582 62.5 62.582S125 97.236 125 62.673C125 28.109 97.018.09 62.5.09z"/>
        <path id="c" d="M62.5.09C27.982.09 0 28.11 0 62.673s27.982 62.582 62.5 62.582S125 97.236 125 62.673"/>
        <path id="e" d="M62.5.09C27.982.09 0 28.072 0 62.59s27.982 62.5 62.5 62.5S125 97.108 125 62.59 97.018.09 62.5.09z"/>
        <path id="g" d="M62.5.09C27.982.09 0 28.11 0 62.673s27.982 62.582 62.5 62.582S125 97.236 125 62.673C125 28.109 97.018.09 62.5.09z"/>
        <path id="i" d="M62.5.09C27.982.09 0 28.11 0 62.673s27.982 62.582 62.5 62.582S125 97.236 125 62.673"/>
        <path id="k" d="M62.5.09C27.982.09 0 28.11 0 62.673s27.982 62.582 62.5 62.582S125 97.236 125 62.673"/>
        <path id="m" d="M62.5.09C27.982.09 0 28.072 0 62.59s27.982 62.5 62.5 62.5S125 97.108 125 62.59"/>
        <path id="o" d="M62.5.09C27.982.09 0 28.11 0 62.673s27.982 62.582 62.5 62.582S125 97.236 125 62.673C125 28.109 97.018.09 62.5.09z"/>
        <path id="q" d="M62.5.09C27.982.09 0 28.072 0 62.59s27.982 62.5 62.5 62.5S125 97.108 125 62.59"/>
        <path id="s" d="M62.5.09C27.982.09 0 28.11 0 62.673s27.982 62.582 62.5 62.582S125 97.236 125 62.673"/>
        <path id="u" d="M62.5.09C27.982.09 0 28.11 0 62.673s27.982 62.582 62.5 62.582S125 97.236 125 62.673C125 28.109 97.018.09 62.5.09z"/>
        <path id="w" d="M62.5.09C27.982.09 0 28.11 0 62.673s27.982 62.582 62.5 62.582S125 97.236 125 62.673"/>
        <path id="y" d="M62.5.09C27.982.09 0 28.11 0 62.673s27.982 62.582 62.5 62.582S125 97.236 125 62.673"/>
        <path id="A" d="M62.5.09C27.982.09 0 28.11 0 62.673s27.982 62.582 62.5 62.582S125 97.236 125 62.673"/>
        <path id="C" d="M62.5.417C27.982.417 0 28.437 0 63s27.982 62.582 62.5 62.582S125 97.563 125 63C125 28.436 97.018.417 62.5.417z"/>
    </defs>
    <g fill="none" fill-rule="evenodd">
        <path fill="#FFF" d="M62.5 0C27.982 0 0 27.982 0 62.5S27.982 125 62.5 125 125 97.018 125 62.5 97.018 0 62.5 0z"/>
        <g transform="translate(0 .327)">
            <mask id="b" fill="#fff">
                <use xlink:href="#a"/>
            </mask>
            <path fill="#DBEEF8" d="M66.03 36.661c0 11.712-9.479 21.206-21.175 21.206-11.693 0-21.174-9.494-21.174-21.206 0-11.708 9.481-21.202 21.174-21.202v21.202H66.03z" mask="url(#b)"/>
        </g>
        <g transform="translate(0 .327)">
            <mask id="d" fill="#fff">
                <use xlink:href="#c"/>
            </mask>
            <path fill="#E8F8FE" d="M69.517 33.169H48.343V11.967c11.696 0 21.174 9.494 21.174 21.202" mask="url(#d)"/>
        </g>
        <g transform="translate(0 .327)">
            <mask id="f" fill="#fff">
                <use xlink:href="#e"/>
            </mask>
            <path fill="#005A94" d="M76.39 98.492l-13.4 58.288h60.54l-11.688-58.288z" mask="url(#f)"/>
        </g>
        <g transform="translate(0 .327)">
            <mask id="h" fill="#fff">
                <use xlink:href="#g"/>
            </mask>
            <path fill="#333" d="M110.563 35.743s10.828 9.092 1.738 21.614c-5.704 7.857-26.32 2.159-26.32 2.159s-5.937-12.609 2.42-19.984l17.28-4.963 4.882 1.174z" mask="url(#h)"/>
        </g>
        <g transform="translate(0 .327)">
            <mask id="j" fill="#fff">
                <use xlink:href="#i"/>
            </mask>
            <path fill="#B3703E" d="M91.26 65c-3.713 7.017-10.605 20.958-12.891 26.185-2.287 5.227-1.236 2.793-1.3 2.953-.7 1.73-2.463 3.101-4.326 2.997-7.23-.402-14.004 0-21.088-.068-1.508-.014-1.767-1.63-1.739-2.842.03-1.211.595-2.472 1.83-2.823 5.75-1.636 11.462-3.291 17.326-4.479 2.552-9.111 5.005-19.112 8.2-27.8 1.79-4.874 4.908-5.913 9.352-4.87 4.445 1.043 5.583 5.28 5.231 9.28-.03.35-.438 1.169-.596 1.467" mask="url(#j)"/>
        </g>
        <g transform="translate(0 .327)">
            <mask id="l" fill="#fff">
                <use xlink:href="#k"/>
            </mask>
            <path fill="#B3703E" d="M55.072 92.91c-1.04-1.087-2.088-2.236-3.24-3.15-.92-.731-1.686-.901-2.863-.88-.606.012-1.434.052-2.073.206-1.262.303-2.064.67-2.97 1.72-1.519 1.761-2.793 3.787-3.263 6.147 2.12-.044 4.244-.173 6.365-.271.451-.392.892-.82 1.297-1.238 1.421.596 2.536 2.334 4.265 1.882 1.728-.453 1.959-2.957 2.482-4.416" mask="url(#l)"/>
        </g>
        <g transform="translate(0 .327)">
            <mask id="n" fill="#fff">
                <use xlink:href="#m"/>
            </mask>
            <path fill="#005A94" d="M116.91 63.143c.681-4.06-1.748-7.875-5.609-9.29-2.242-.823-6.033-2.428-9.044-2.804-4.234-.53-8.81-1.026-12.043.018-6.348 2.05-8.353 2.623-12.318 11.166-3.477 5.67-6.46 8.457-6.45 13.691.013 6.973 7.647 7.868 4.874 29.676l37.234 3.587s-1.056-4.813-2.49-16.83c.757-7.175 4.88-23.467 5.845-29.214" mask="url(#n)"/>
        </g>
        <g transform="translate(0 .327)">
            <mask id="p" fill="#fff">
                <use xlink:href="#o"/>
            </mask>
            <path fill="#C98C61" d="M90.214 51.067l1.102-11.817 8.124-2.621 2.817 14.42z" mask="url(#p)"/>
        </g>
        <g transform="translate(0 .327)">
            <mask id="r" fill="#fff">
                <use xlink:href="#q"/>
            </mask>
            <path fill="#005A94" d="M116.908 63.142a43.65 43.65 0 0 1-.217 1.19c-.708 3.725-2.2 10.1-3.487 16.146-.98 4.585-1.834 8.974-2.142 11.878.492 1.898 1.246 11.853 1.713 13.242l-14.438-3.358-2.354-.55-19.013-4.424c.067-3.596-.22-6.362-.679-8.59 23.75-.814 34.854-30.833 36.075-34.354 3.23 1.677 5.159 5.149 4.542 8.82" mask="url(#r)"/>
        </g>
        <g transform="translate(0 .327)">
            <mask id="t" fill="#fff">
                <use xlink:href="#s"/>
            </mask>
            <path fill="#005482" d="M116.691 64.331c-.708 3.726-2.2 10.101-3.487 16.146-.471.985-.954 1.966-1.434 2.946-.891 1.824-1.787 3.642-2.741 5.437-1.2 2.261-6.5 12.274-10.692 13.38-.842.225-1.642.087-2.354-.55a2.675 2.675 0 0 1-.27-.268c-.822-.914-1.072-2.22-.997-3.442.163-2.616 1.621-4.953 3.034-7.155 2.312-3.601 4.62-7.202 6.933-10.802 1.604-2.504 3.212-5.007 4.833-7.497a622.099 622.099 0 0 1 3.88-5.879c.47-.71.966-1.436 1.679-1.903.47-.308 1.066-.475 1.616-.413" mask="url(#t)"/>
        </g>
        <g transform="translate(0 .327)">
            <mask id="v" fill="#fff">
                <use xlink:href="#u"/>
            </mask>
            <path fill="#B3703E" d="M91.315 39.25l8.125-2.622 1.196 6.122c-2.058 2.242-5.564 5.143-10.158 5.487l.837-8.987z" mask="url(#v)"/>
        </g>
        <g transform="translate(0 .327)">
            <mask id="x" fill="#fff">
                <use xlink:href="#w"/>
            </mask>
            <path fill="#C98C61" d="M105.675 51.83S93.727 65.85 85.729 64.07c-4.382-.976.633-11.554.633-11.554s7.65-4.488 19.313-.684" mask="url(#x)"/>
        </g>
        <g transform="translate(0 .327)">
            <mask id="z" fill="#fff">
                <use xlink:href="#y"/>
            </mask>
            <path fill="#C98C61" d="M96.082 100.295c-10.978-.893-22.388-.89-33.188-2.496-2.17-.323-2.768-1.482-2.514-3.322.233-1.685 1.031-2.35 3.014-2.397 9.498-.224 19.313-1.255 28.97-2.154 1.643-6.084 5.604-18.01 7.29-22.59 1.687-4.579 1.844-5.802 2.887-8.083 2.356-5.153 4.073-6.392 8.76-5.4 4.687.991 6.665 6.737 6.036 9.463-.373 1.612-1.34 3.278-1.502 3.577-4.244 7.891-10.595 21.064-13.154 27.17-2.137 4.019-3.731 5.96-6.6 6.232" mask="url(#z)"/>
        </g>
        <g transform="translate(0 .327)">
            <mask id="B" fill="#fff">
                <use xlink:href="#A"/>
            </mask>
            <path fill="#C98C61" d="M68.074 94.042c-1.796-1.176-3.726-2.67-5.43-3.808-1.364-.912-2.285-1.123-3.832-1.27a15.814 15.814 0 0 0-2.685-.002c-1.536.151-2.559.445-3.67 1.544-1.859 1.841-3.241 3.941-3.981 6.488 2.442-.057 4.881-.128 7.322-.191.507-.428.988-.907 1.518-1.292 2.072 1.013 4.087 2.84 6.497 2.727 2.41-.113 3.138-2.463 4.26-4.196" mask="url(#B)"/>
        </g>
        <path fill="#C98C61" d="M107.483 27.444c-.528 6.822-9.117 19.857-18.134 18.168-6.716-1.26-7.065-13.26-6.536-20.082.528-6.822 6.478-11.923 13.29-11.395 6.813.529 11.908 6.487 11.38 13.31"/>
        <path fill="#333" d="M82.813 25.53s-.469-10.024 9.544-11.847c13.564-2.47 14.896 9.53 14.896 9.53s8.441 6.717 3.476 14.335c-6.006 9.214-7.912 6.422-7.912 6.422-8.598-5.138-6.35-14.46-6.35-14.46s-9.261-1.094-11.682-7.209c0 0-1.427 1.119-1.972 3.229"/>
        <mask id="D" fill="#fff">
            <use xlink:href="#C"/>
        </mask>
        <path fill="#B3E7FC" d="M35.28 99.69h29.724v-2.73H35.28z" mask="url(#D)"/>
        <path fill="#5ECEF9" d="M32.332 99.69h16.384l6.464-7.327H38.797zM21.263 92.362h51.783c.445 0 .806-.36.806-.806V53.969a.806.806 0 0 0-.806-.807H21.263a.806.806 0 0 0-.805.807v37.587c0 .446.36.806.805.806" mask="url(#D)"/>
        <path fill="#5ECEF9" d="M54.442 98.212h-9.569v1.478h9.569a.739.739 0 0 0 0-1.478" mask="url(#D)"/>
        <path fill="#B3E7FC" d="M19.705 92.362h51.149c.62 0 1.122-.502 1.122-1.123V54.286c0-.621-.502-1.124-1.122-1.124h-51.15c-.62 0-1.122.503-1.122 1.124v36.953c0 .62.503 1.123 1.123 1.123" mask="url(#D)"/>
        <path fill="#5ECEF9" d="M32.07 99.69h14.493l6.464-7.327H36.644l-5.213 5.909a.854.854 0 0 0 .639 1.418" mask="url(#D)"/>
        <path fill="#5ECEF9" d="M36.644 92.362h16.383l-1.99 2.257H34.652zM65.252 96.966l10.046.997a1.1 1.1 0 0 1 .99 1.095v.632h-11.17a1.365 1.365 0 1 1 .135-2.724" mask="url(#D)"/>
        <path fill="#B3E7FC" d="M43.306 80.397h-2.154v11.972l2.154.022z" mask="url(#D)"/>
        <path fill="#B3E7FC" d="M36.62 92.39h16.407V80.398H36.62z" mask="url(#D)"/>
        <path fill="#E8F8FE" d="M132.887 107.436H28.09c-.597 0-1.08-.484-1.08-1.081v-5.76c0-.597.483-1.081 1.08-1.081h104.796c.596 0 1.08.484 1.08 1.082v5.759c0 .597-.484 1.081-1.08 1.081" mask="url(#D)"/>
        <path fill="#DBEEF8" d="M32 114.175h92.164v-7.084H32z" mask="url(#D)"/>
        <path fill="#E8F8FE" d="M43 171.375h4.97V114.09H43z" mask="url(#D)"/>
        <path fill="#65D0F9" d="M109.524 171.804h4.97v-58.118h-4.97z" mask="url(#D)"/>
        <path fill="#00B3F4" d="M109.524 119.011h4.97v-5.325h-4.97z" mask="url(#D)"/>
        <path fill="#DBEEF8" d="M43 118.582h4.97v-4.49H43z" mask="url(#D)"/>
        <path stroke="#B3703E" stroke-linecap="round" stroke-linejoin="round" stroke-width=".5" d="M97.368 91.35c-2.22-1.128-5.003-1.096-5.003-1.096s2.053-.885 3.604-.52" mask="url(#D)"/>
    </g>
</svg>
