<svg xmlns="http://www.w3.org/2000/svg" xmlns:xlink="http://www.w3.org/1999/xlink" width="125" height="127" viewBox="0 0 125 127">
    <defs>
        <path id="a" d="M62.5 2C27.982 2 0 29.982 0 64.5 0 99.017 27.982 127 62.5 127S125 99.017 125 64.5C125 29.982 97.018 2 62.5 2z"/>
    </defs>
    <g fill="none" fill-rule="evenodd">
        <path fill="#FFF" d="M62.5 0C27.982 0 0 27.982 0 62.5S27.982 125 62.5 125 125 97.018 125 62.5 97.018 0 62.5 0z"/>
        <mask id="b" fill="#fff">
            <use xlink:href="#a"/>
        </mask>
        <path fill="#E8F8FE" d="M9.553 133.063h48.643V40.534H9.553z" mask="url(#b)"/>
        <path fill="#DBEEF8" d="M57.392 54.454H10.357a2.665 2.665 0 0 1-2.665-2.666V43.2a2.666 2.666 0 0 1 2.665-2.666h47.035a2.666 2.666 0 0 1 2.665 2.666v8.588a2.665 2.665 0 0 1-2.665 2.666M57.392 74.148H10.357a2.665 2.665 0 0 1-2.665-2.665v-8.59a2.666 2.666 0 0 1 2.665-2.665h47.035a2.666 2.666 0 0 1 2.665 2.666v8.589a2.665 2.665 0 0 1-2.665 2.665M57.392 93.843H10.357a2.665 2.665 0 0 1-2.665-2.666v-8.589a2.665 2.665 0 0 1 2.665-2.665h47.035a2.665 2.665 0 0 1 2.665 2.665v8.59a2.665 2.665 0 0 1-2.665 2.665M57.392 113.537H10.357a2.665 2.665 0 0 1-2.665-2.666v-8.588a2.665 2.665 0 0 1 2.665-2.666h47.035a2.665 2.665 0 0 1 2.665 2.666v8.588a2.665 2.665 0 0 1-2.665 2.666" mask="url(#b)"/>
        <path fill="#E8F8FE" d="M15.434 47.494a1.65 1.65 0 1 0-3.298 0 1.65 1.65 0 0 0 3.298 0M19.5 47.494a1.1 1.1 0 1 0-2.199 0 1.1 1.1 0 0 0 2.2 0M24.116 47.494a1.1 1.1 0 1 0-2.199 0 1.1 1.1 0 0 0 2.199 0M15.434 67.188a1.649 1.649 0 1 0-3.297 0 1.649 1.649 0 0 0 3.297 0M19.5 67.188a1.1 1.1 0 1 0-2.199 0 1.1 1.1 0 0 0 2.2 0M24.116 67.188a1.1 1.1 0 1 0-2.199 0 1.1 1.1 0 0 0 2.199 0M15.434 86.883a1.65 1.65 0 1 0-3.298 0 1.65 1.65 0 0 0 3.298 0M19.5 86.883a1.1 1.1 0 1 0-2.2 0 1.1 1.1 0 0 0 2.2 0M24.116 86.883a1.1 1.1 0 1 0-2.2 0 1.1 1.1 0 0 0 2.2 0M15.434 106.577a1.65 1.65 0 1 0-3.298 0 1.65 1.65 0 0 0 3.298 0M19.5 106.577a1.1 1.1 0 1 0-2.199 0 1.1 1.1 0 0 0 2.2 0M24.116 106.577a1.1 1.1 0 1 0-2.199 0 1.1 1.1 0 0 0 2.199 0" mask="url(#b)"/>
        <path stroke="#E8F8FE" stroke-linecap="round" stroke-linejoin="round" stroke-width="1.553" d="M54.519 46.858v1.271M51.69 46.858v1.271M48.86 46.858v1.271M54.519 66.553v1.27M51.69 66.553v1.27M48.86 66.553v1.27M54.519 86.247v1.271M51.69 86.247v1.271M48.86 86.247v1.271M54.519 105.942v1.27M51.69 105.942v1.27M48.86 105.942v1.27" mask="url(#b)"/>
        <path fill="#E8F8FE" d="M64.238 133.063h48.644V40.534H64.238z" mask="url(#b)"/>
        <path fill="#DBEEF8" d="M112.077 54.454H65.042a2.665 2.665 0 0 1-2.665-2.666V43.2a2.666 2.666 0 0 1 2.665-2.666h47.035a2.666 2.666 0 0 1 2.666 2.666v8.588a2.665 2.665 0 0 1-2.666 2.666M112.077 74.148H65.042a2.665 2.665 0 0 1-2.665-2.665v-8.59a2.666 2.666 0 0 1 2.665-2.665h47.035a2.666 2.666 0 0 1 2.666 2.666v8.589a2.665 2.665 0 0 1-2.666 2.665M112.077 93.843H65.042a2.665 2.665 0 0 1-2.665-2.666v-8.589a2.665 2.665 0 0 1 2.665-2.665h47.035a2.665 2.665 0 0 1 2.666 2.665v8.59a2.665 2.665 0 0 1-2.666 2.665M112.077 113.537H65.042a2.665 2.665 0 0 1-2.665-2.666v-8.588a2.665 2.665 0 0 1 2.665-2.666h47.035a2.665 2.665 0 0 1 2.666 2.666v8.588a2.665 2.665 0 0 1-2.666 2.666" mask="url(#b)"/>
        <path fill="#E8F8FE" d="M70.12 47.494a1.65 1.65 0 1 0-3.298 0 1.65 1.65 0 0 0 3.298 0M74.186 47.494a1.1 1.1 0 1 0-2.2 0 1.1 1.1 0 0 0 2.2 0M78.801 47.494a1.1 1.1 0 1 0-2.199 0 1.1 1.1 0 0 0 2.2 0M70.12 67.188a1.649 1.649 0 1 0-3.298 0 1.649 1.649 0 0 0 3.298 0M74.186 67.188a1.1 1.1 0 1 0-2.2 0 1.1 1.1 0 0 0 2.2 0M78.801 67.188a1.1 1.1 0 1 0-2.199 0 1.1 1.1 0 0 0 2.2 0M70.12 86.883a1.65 1.65 0 1 0-3.298 0 1.65 1.65 0 0 0 3.298 0M74.186 86.883a1.1 1.1 0 1 0-2.2 0 1.1 1.1 0 0 0 2.2 0M78.801 86.883a1.1 1.1 0 1 0-2.2 0 1.1 1.1 0 0 0 2.2 0M70.12 106.577a1.65 1.65 0 1 0-3.298 0 1.65 1.65 0 0 0 3.298 0M74.186 106.577a1.1 1.1 0 1 0-2.2 0 1.1 1.1 0 0 0 2.2 0M78.801 106.577a1.1 1.1 0 1 0-2.199 0 1.1 1.1 0 0 0 2.2 0" mask="url(#b)"/>
        <path stroke="#E8F8FE" stroke-linecap="round" stroke-linejoin="round" stroke-width="1.553" d="M109.204 46.858v1.271M106.375 46.858v1.271M103.546 46.858v1.271M109.204 66.553v1.27M106.375 66.553v1.27M103.546 66.553v1.27M109.204 86.247v1.271M106.375 86.247v1.271M103.546 86.247v1.271M109.204 105.942v1.27M106.375 105.942v1.27M103.546 105.942v1.27" mask="url(#b)"/>
        <path fill="#005A94" d="M91.726 61.576C89.432 50.18 77.717 46.298 77.717 46.298l4.62 32.786 13.004-2.028c-1.25-4.957-2.613-10.503-3.615-15.48" mask="url(#b)"/>
        <path fill="#FFB682" d="M95.341 77.056l-13.004 2.028.456 17.662c4.806 3.871 10.084 4.018 12.789 2.122 3.49-2.445 3.478-7.67 2.372-11.785a680.57 680.57 0 0 1-2.613-10.027" mask="url(#b)"/>
        <path fill="#005A94" d="M86.769 62.822c-1.892 5.858-3.317 13.879-4.371 21.812-1.933 14.583-2.617 28.871-2.617 28.871s-6.633 4.717-21.3 4.717c-14.666 0-19.92-4.717-19.92-4.717s.179-1.296.458-3.492c.979-7.833 3.17-27.112 2.708-39.8l-3.387 7.9-14.28-5.987 7.388-15.504c10.05-14.759 33.03-13.067 33.03-13.067 5.062-.217 12.995.93 17.095 5.917l5.196 13.35z" mask="url(#b)"/>
        <path fill="#0079C8" d="M38.559 113.503s-.505 36.175-21.759 122.58l8.087 2.027s28.389-60.48 34.745-110.657c0 0 19.57 48.439 20.893 113.346l9.08-3.268s5.412-64.568-9.823-124.028H38.56z" mask="url(#b)"/>
        <path fill="#FFB682" d="M59.02 43.39l-3.752.573 9.909 9.984 7.928-10.284s-8.938-.838-14.085-.273" mask="url(#b)"/>
        <path fill="#009FF1" d="M64.913 84.118l6.964-.499c.645-.046 1.182-.603 1.198-1.244l.319-12.712c.016-.641-.494-1.124-1.14-1.077l-6.964.499c-.645.046-1.182.603-1.198 1.244l-.319 12.713c-.016.64.494 1.123 1.14 1.076" mask="url(#b)"/>
        <path stroke="#009FF1" stroke-width=".536" d="M59.504 42.818s-4.916-.314-3.082 7.342c1.908 7.959 12.455 18.35 12.455 18.35s11.855-25.016 2.452-25.406" mask="url(#b)"/>
        <path fill="#00B8F5" d="M68.293 68.51a.52.52 0 0 0 .527.583c.323 0 .61-.261.64-.584a.52.52 0 0 0-.527-.584.658.658 0 0 0-.64.584" mask="url(#b)"/>
        <path fill="#005480" d="M82.398 84.634c-1.933 14.583-2.617 28.871-2.617 28.871s-6.633 4.717-21.3 4.717c-14.666 0-19.92-4.717-19.92-4.717s.179-1.296.458-3.492c7.733.504 15.558.43 22.654-2.496a29.952 29.952 0 0 0 7.68-4.62c5.8-4.809 9.54-11.571 13.045-18.263" mask="url(#b)"/>
        <path fill="#FFB682" d="M38.341 78.112l-3.03 6.881 30.086 6.27-5.884 5.44s-33.203.282-37.384-4.453c-2.833-3.207 1.932-20.126 1.932-20.126l14.28 5.988z" mask="url(#b)"/>
        <path fill="#00B8F5" d="M82.317 100.49L74.7 98.634c-.555-.135-.854-.714-.667-1.294l5.734-17.796c.187-.58.788-.94 1.343-.805l7.618 1.856c.555.135.853.714.667 1.294L83.66 99.685c-.187.58-.788.94-1.343.805" mask="url(#b)"/>
        <path fill="#009FF1" d="M83.074 100.661l-7.619-1.856c-.555-.135-.853-.714-.666-1.294l5.733-17.796c.187-.58.788-.94 1.343-.806l7.619 1.857c.555.135.853.714.666 1.294l-5.734 17.796c-.186.58-.787.94-1.342.805" mask="url(#b)"/>
        <path fill="#FFB682" d="M88.541 96.406a5.858 5.858 0 0 0 1.078-4.878l-.247-1.087c-.26-1.147-1.032-2.088-2.049-2.497-2.01-.808-5.26-1.973-6.145-1.45-.837.493-1.432 3.955-1.753 6.388-.184 1.39.579 2.758 1.806 3.245l3.405 1.35a3.367 3.367 0 0 0 3.905-1.071M70.188 27.077h-9.17l-1.749 16.83h12.668z" mask="url(#b)"/>
        <path fill="#FAAC7C" d="M70.5 30.593l-1.229-2.99-4.241-.526h-3.285l-.85.667-.56 5.391.053.375s1.03 6.233 4.442 7.37c3.514 1.172 6.02 1.345 6.888 1.44L70.5 30.593z" mask="url(#b)"/>
        <path fill="#FFB682" d="M55.44 20.402c.6 6.206 6.12 10.749 12.326 10.147 6.206-.602 10.75-6.121 10.147-12.327-.602-6.206-6.12-10.749-12.327-10.147-6.206.602-10.749 6.12-10.147 12.327" mask="url(#b)"/>
        <path fill="#FFB682" d="M55.44 20.402c.6 6.206 10.96 19.945 17.165 19.343 6.206-.602 5.91-15.317 5.308-21.523-.602-6.206-6.12-10.749-12.327-10.147-6.206.602-10.749 6.12-10.147 12.327" mask="url(#b)"/>
        <path fill="#FAAC7C" d="M65.513 21.258c6.736-1.61 10.362-6.112 10.362-6.112l-11.582-5.31-7.436 3.816a11.234 11.234 0 0 0-1.472 6.75c.602 6.206 10.96 19.945 17.166 19.343.267-.026.52-.08.764-.155-4.595-2.832-14.022-16.845-7.802-18.332" mask="url(#b)"/>
        <path fill="#333" d="M59.364 24.507s2.058 11.694 4.988 13.476c2.654 1.614 5.306 2.658 8.658 2.45 3.068-.188 4.672-3.523 4.898-8.272.184-3.857-8.013-3.21-10.876.796-2.392 3.347-5.463-6.322-6.019-10.185l-1.65 1.735z" mask="url(#b)"/>
        <path fill="#333" d="M57.93 22.78s2.36 1.581 2.479 2.689c0 0 1.687-3.758-.275-6.875 0 0 2.154 1.128 4.305 1.292 2.718.207 7.56-1.094 11.49-4.74 0 0 2.04 2.357 2.155 5.264 0 0 2.195-4.304.91-8.055-1.714-5.007-5.02-4.804-5.02-4.804s-4.034-5.125-12.886-2.48a10.33 10.33 0 0 0-4.105 2.335c-1.386 1.277-.319 3.15-.319 3.15s-1.862-.394-2.419 1.039c-1.412 3.636-1.13 7.304-1.13 7.304s-.441 8.852 5.757 13.867c0 0-.253 3.623 1.558 4.02l.89-7.642-3.39-6.364z" mask="url(#b)"/>
        <path fill="#FFB682" d="M60.409 25.469s-.794-3.415-3.423-2.883c-2.639.534-.072 9.276 3.078 7.633l.697-1.442-.352-3.308zM76.602 33.312c-.153 1.635-1.278 2.44-2.843 2.537-1.93.119-3.812-.823-3.892-2.123-.08-1.3 1.672-2.465 3.602-2.584 2.356-.145 3.255.873 3.133 2.17M56.605 90.029l6.651-4.6a4.526 4.526 0 0 1 4.74-.252l6.637 3.616a.602.602 0 0 1 .054 1.025c-.54.37-1.295.735-1.953.518-1.186-.39-4.017-1.94-4.017-1.94s2.57 1.85.847 4.554c-1.722 2.703-3.552 3.89-4.874 4.062-2.586.337-6.657-.6-6.657-.6l-1.428-6.383z" mask="url(#b)"/>
        <path stroke="#00B7F6" stroke-linecap="round" stroke-width=".5" d="M116.144 87.036c.957.795 1.516 2.11 1.382 3.348-.37 3.435-3.607 5.59-6.448 6.963-1.69.817-3.442 1.544-4.964 2.643-2.055 1.486-3.58 3.547-5.337 5.345-1.875 1.919-4.186 3.362-6.672 4.357-.37.149-.744.286-1.122.412-2.27.759-4.72 1.12-7.073.671-2.352-.449-4.594-1.777-5.826-3.83-1.233-2.053-1.515-4.912-.183-6.831" mask="url(#b)"/>
        <path fill="#0079C8" d="M79.398 101.457a.794.794 0 0 0 .964-.578l.203-.812-1.542-.386-.203.813a.794.794 0 0 0 .578.963" mask="url(#b)"/>
        <path fill="#E8F8FE" d="M116.3 87.068a.795.795 0 0 0-.794-.794h-.883v1.589h.883a.795.795 0 0 0 .795-.795" mask="url(#b)"/>
        <path stroke="#003855" stroke-linecap="round" stroke-linejoin="round" stroke-width=".5" d="M41.784 71.452l-.153-6.34" mask="url(#b)"/>
        <path stroke="#FAAC7C" stroke-linecap="round" stroke-linejoin="round" stroke-width=".5" d="M31.28 85.983c1.894.02 4.032-.99 4.032-.99s.161 1.126-.767 1.724" mask="url(#b)"/>
    </g>
</svg>
