<svg id="Layer_1" data-name="Layer 1" xmlns="http://www.w3.org/2000/svg" xmlns:xlink="http://www.w3.org/1999/xlink" viewBox="0 0 140 120"><defs><style>.cls-1,.cls-2,.cls-3{fill:none;}.cls-1{clip-rule:evenodd;}.cls-2{fill-rule:evenodd;}.cls-4{fill:#78ddc9;}.cls-5{clip-path:url(#clip-path);}.cls-6{clip-path:url(#clip-path-2);}.cls-7{clip-path:url(#clip-path-3);}.cls-8{clip-path:url(#clip-path-4);}.cls-9{clip-path:url(#clip-path-5);}.cls-10{clip-path:url(#clip-path-6);}.cls-11{clip-path:url(#clip-path-7);}.cls-12{clip-path:url(#clip-path-8);}.cls-13{clip-path:url(#clip-path-9);}.cls-14{clip-path:url(#clip-path-10);}.cls-15{clip-path:url(#clip-path-11);}.cls-16{opacity:0.3;}.cls-17{fill:#60b6eb;}.cls-18{clip-path:url(#clip-path-12);}.cls-19{fill:#fff;}.cls-20{clip-path:url(#clip-path-14);}.cls-21{clip-path:url(#clip-path-15);}.cls-22{clip-path:url(#clip-path-16);}.cls-23{clip-path:url(#clip-path-17);}.cls-24{clip-path:url(#clip-path-18);}.cls-25{clip-path:url(#clip-path-19);}.cls-26{clip-path:url(#clip-path-20);}.cls-27{clip-path:url(#clip-path-21);}.cls-28{clip-path:url(#clip-path-22);}.cls-29{clip-path:url(#clip-path-23);}.cls-30{clip-path:url(#clip-path-24);}.cls-31{clip-path:url(#clip-path-25);}.cls-32{clip-path:url(#clip-path-26);}.cls-33{clip-path:url(#clip-path-27);}.cls-34{fill:#e9f5fc;}.cls-35{fill:#a8d7f4;}.cls-36{fill:#259be4;}.cls-37{fill:#d3ebfa;}.cls-38{fill:#87c4ea;}.cls-39{fill:#c8e6f8;}.cls-40{fill:#f0faff;}.cls-41{fill:#3cc3a9;}.cls-42{clip-path:url(#clip-path-28);}.cls-43{clip-path:url(#clip-path-29);}.cls-44{clip-path:url(#clip-path-30);}.cls-45{clip-path:url(#clip-path-31);}.cls-46{clip-path:url(#clip-path-32);}.cls-47{clip-path:url(#clip-path-33);}.cls-48{clip-path:url(#clip-path-34);}.cls-49{clip-path:url(#clip-path-35);}.cls-50{clip-path:url(#clip-path-36);}.cls-51{clip-path:url(#clip-path-37);}.cls-52{clip-path:url(#clip-path-41);}.cls-53{clip-path:url(#clip-path-42);}.cls-54{clip-path:url(#clip-path-43);}.cls-55{clip-path:url(#clip-path-44);}.cls-56{clip-path:url(#clip-path-45);}.cls-57{clip-path:url(#clip-path-46);}.cls-58{clip-path:url(#clip-path-47);}.cls-59{clip-path:url(#clip-path-48);}.cls-60{clip-path:url(#clip-path-49);}.cls-61{clip-path:url(#clip-path-50);}.cls-62{clip-path:url(#clip-path-51);}.cls-63{clip-path:url(#clip-path-52);}.cls-64{clip-path:url(#clip-path-53);}.cls-65{clip-path:url(#clip-path-54);}.cls-66{clip-path:url(#clip-path-58);}.cls-67{clip-path:url(#clip-path-59);}.cls-68{clip-path:url(#clip-path-60);}.cls-69{clip-path:url(#clip-path-61);}.cls-70{clip-path:url(#clip-path-62);}.cls-71{clip-path:url(#clip-path-63);}.cls-72{clip-path:url(#clip-path-64);}.cls-73{clip-path:url(#clip-path-65);}.cls-74{clip-path:url(#clip-path-66);}.cls-75{clip-path:url(#clip-path-67);}.cls-76{clip-path:url(#clip-path-68);}.cls-77{clip-path:url(#clip-path-69);}.cls-78{clip-path:url(#clip-path-70);}</style><clipPath id="clip-path"><path class="cls-1" d="M111-63.1H31.57a2.51,2.51,0,0,1-2.37-2.63v-33a2.5,2.5,0,0,1,2.37-2.63H111a2.5,2.5,0,0,1,2.37,2.63v33A2.51,2.51,0,0,1,111-63.1"/></clipPath><clipPath id="clip-path-2"><path class="cls-1" d="M108.07-78.92a9.26,9.26,0,0,1-9.17,9.33,9.26,9.26,0,0,1-9.18-9.33,9.25,9.25,0,0,1,9.18-9.33A9.25,9.25,0,0,1,108.07-78.92Z"/></clipPath><clipPath id="clip-path-3"><path class="cls-1" d="M53.17-89.45H38.42a2.79,2.79,0,0,0-2.76,2.81v15a2.79,2.79,0,0,0,2.76,2.81H53.17a2.79,2.79,0,0,0,2.77-2.81v-15a2.79,2.79,0,0,0-2.77-2.81"/></clipPath><clipPath id="clip-path-4"><path class="cls-1" d="M47.44-79.67l1.68-1.71a.83.83,0,0,0,.21-.54v-1.94a.76.76,0,0,0-.75-.76h-5a.75.75,0,0,0-.74.75v2a.79.79,0,0,0,.22.54l1.68,1.71a.77.77,0,0,1,0,1.07l-1.68,1.71a.75.75,0,0,0-.22.53v2a.75.75,0,0,0,.74.76h5a.76.76,0,0,0,.75-.76v-2a.75.75,0,0,0-.22-.53L47.44-78.6a.77.77,0,0,1,0-1.07"/></clipPath><clipPath id="clip-path-5"><path class="cls-1" d="M117.4-93.7H25.15c-1.52,0-2.75-1.55-2.75-3.45v-43.26c0-1.9,1.23-3.44,2.75-3.44H117.4c1.52,0,2.75,1.54,2.75,3.44v43.26c0,1.9-1.23,3.45-2.75,3.45"/></clipPath><clipPath id="clip-path-6"><path class="cls-1" d="M50.78-131.95H32.71a3.43,3.43,0,0,0-3.39,3.46V-110a3.43,3.43,0,0,0,3.39,3.47H50.78A3.42,3.42,0,0,0,54.17-110v-18.5a3.42,3.42,0,0,0-3.39-3.46"/></clipPath><clipPath id="clip-path-7"><path class="cls-1" d="M93.2-120.2a10.87,10.87,0,0,0,10.74,11,10.87,10.87,0,0,0,10.73-11,10.87,10.87,0,0,0-10.73-11A10.87,10.87,0,0,0,93.2-120.2Z"/></clipPath><clipPath id="clip-path-8"><path class="cls-1" d="M39.71-53c2.73-.17,5.46-.28,8.2-.39l4.1-.13,4.1-.1c1.37,0,2.73-.05,4.1-.08l4.1-.05,4.1,0c1.37,0,2.73,0,4.1,0,5.47,0,10.93,0,16.4.14s10.94.25,16.4.54c.22,0,.4.29.39.61s-.18.56-.39.57c-5.46.29-10.93.44-16.4.54s-10.93.14-16.4.14c-1.37,0-2.73,0-4.1,0l-4.1,0-4.1-.06c-1.37,0-2.73,0-4.1-.08l-4.1-.1-4.1-.13c-2.74-.11-5.47-.21-8.2-.39-.18,0-.32-.24-.31-.5s.14-.44.31-.46"/></clipPath><clipPath id="clip-path-9"><path class="cls-1" d="M-351.71,108c2.73-.17,5.46-.28,8.2-.39l4.1-.13,4.1-.1c1.37,0,2.73,0,4.1-.08l4.1,0,4.1,0c1.37,0,2.73,0,4.1,0,5.47,0,10.93,0,16.4.14s10.94.25,16.4.54c.22,0,.4.29.39.61s-.18.56-.39.57c-5.46.29-10.93.44-16.4.54s-10.93.14-16.4.14c-1.37,0-2.73,0-4.1,0l-4.1,0-4.1-.06c-1.37,0-2.73,0-4.1-.08l-4.1-.1-4.1-.13c-2.74-.11-5.47-.21-8.2-.39-.18,0-.32-.24-.31-.5s.14-.44.31-.46"/></clipPath><clipPath id="clip-path-10"><path class="cls-1" d="M39.29,108c2.73-.17,5.46-.28,8.2-.39l4.1-.13,4.1-.1c1.37,0,2.73,0,4.1-.08l4.1,0,4.1,0c1.37,0,2.73,0,4.1,0,5.47,0,10.93,0,16.4.14s10.94.25,16.4.54c.22,0,.4.29.39.61s-.18.56-.39.57c-5.46.29-10.93.44-16.4.54s-10.93.14-16.4.14c-1.37,0-2.73,0-4.1,0l-4.1,0-4.1-.06c-1.37,0-2.73,0-4.1-.08l-4.1-.1-4.1-.13c-2.74-.11-5.47-.21-8.2-.39-.18,0-.32-.24-.31-.5s.14-.44.31-.46"/></clipPath><clipPath id="clip-path-11"><rect class="cls-3" x="-420.02" y="-1475.45" width="1224" height="2239.75"/></clipPath><clipPath id="clip-path-12"><path class="cls-1" d="M16.88,58.8a5.1,5.1,0,1,1-5.1-5.1,5.1,5.1,0,0,1,5.1,5.1"/></clipPath><clipPath id="clip-path-14"><path class="cls-1" d="M-351.71-53c2.73-.17,5.46-.28,8.2-.39l4.1-.13,4.1-.1c1.37,0,2.73-.05,4.1-.08l4.1-.05,4.1,0c1.37,0,2.73,0,4.1,0,5.47,0,10.93,0,16.4.14s10.94.25,16.4.54c.22,0,.4.29.39.61s-.18.56-.39.57c-5.46.29-10.93.44-16.4.54s-10.93.14-16.4.14c-1.37,0-2.73,0-4.1,0l-4.1,0-4.1-.06c-1.37,0-2.73,0-4.1-.08l-4.1-.1-4.1-.13c-2.74-.11-5.47-.21-8.2-.39-.18,0-.32-.24-.31-.5s.14-.44.31-.46"/></clipPath><clipPath id="clip-path-15"><rect class="cls-3" x="-366.47" y="-140.45" width="93.5" height="76.5" rx="3.4"/></clipPath><clipPath id="clip-path-16"><path class="cls-1" d="M-349.47-133.23a3.83,3.83,0,0,1-3.83,3.83,3.83,3.83,0,0,1-3.82-3.83A3.82,3.82,0,0,1-353.3-137a3.82,3.82,0,0,1,3.83,3.82"/></clipPath><clipPath id="clip-path-17"><path class="cls-1" d="M-332.47-133.23a3.83,3.83,0,0,1-3.83,3.83,3.83,3.83,0,0,1-3.82-3.83A3.82,3.82,0,0,1-336.3-137a3.82,3.82,0,0,1,3.83,3.82"/></clipPath><clipPath id="clip-path-18"><path class="cls-1" d="M-315.47-133.23a3.83,3.83,0,0,1-3.83,3.83,3.83,3.83,0,0,1-3.82-3.83A3.82,3.82,0,0,1-319.3-137a3.82,3.82,0,0,1,3.83,3.82"/></clipPath><clipPath id="clip-path-19"><path class="cls-1" d="M-298.47-133.23a3.83,3.83,0,0,1-3.83,3.83,3.83,3.83,0,0,1-3.82-3.83A3.82,3.82,0,0,1-302.3-137a3.82,3.82,0,0,1,3.83,3.82"/></clipPath><clipPath id="clip-path-20"><path class="cls-1" d="M-281.47-133.23a3.83,3.83,0,0,1-3.83,3.83,3.83,3.83,0,0,1-3.82-3.83A3.82,3.82,0,0,1-285.3-137a3.82,3.82,0,0,1,3.83,3.82"/></clipPath><clipPath id="clip-path-21"><path class="cls-1" d="M-257-105.6h-49c-.55,0-1-.65-1-1.45v-13.26c0-.8.45-1.44,1-1.44h49c.55,0,1,.64,1,1.44V-107c0,.8-.45,1.45-1,1.45"/></clipPath><clipPath id="clip-path-22"><path class="cls-1" d="M-291.67-113.25a5.1,5.1,0,0,1-5.1,5.1,5.1,5.1,0,0,1-5.1-5.1,5.1,5.1,0,0,1,5.1-5.1,5.1,5.1,0,0,1,5.1,5.1"/></clipPath><clipPath id="clip-path-23"><path class="cls-1" d="M-339.2-94.55h-47.75A1.55,1.55,0,0,1-388.57-96v-13.26a1.54,1.54,0,0,1,1.62-1.44h47.75a1.54,1.54,0,0,1,1.63,1.44V-96a1.55,1.55,0,0,1-1.63,1.45"/></clipPath><clipPath id="clip-path-24"><path class="cls-1" d="M-374.12-102.2a5.1,5.1,0,0,1-5.1,5.1,5.1,5.1,0,0,1-5.1-5.1,5.1,5.1,0,0,1,5.1-5.1,5.1,5.1,0,0,1,5.1,5.1"/></clipPath><clipPath id="clip-path-25"><path class="cls-1" d="M-316.63-80.95A1.42,1.42,0,0,1-318-82.4V-95.66a1.41,1.41,0,0,1,1.39-1.44h48.22A1.42,1.42,0,0,1-267-95.66V-82.4a1.43,1.43,0,0,1-1.39,1.45Z"/></clipPath><clipPath id="clip-path-26"><path class="cls-1" d="M-303.57-88.6a5.1,5.1,0,0,1-5.1,5.1,5.1,5.1,0,0,1-5.1-5.1,5.1,5.1,0,0,1,5.1-5.1,5.1,5.1,0,0,1,5.1,5.1"/></clipPath><clipPath id="clip-path-27"><path class="cls-1" d="M-156.71,108c2.73-.17,5.46-.28,8.2-.39l4.1-.13,4.1-.1c1.37,0,2.73,0,4.1-.08l4.1,0,4.1,0c1.37,0,2.73,0,4.1,0,5.47,0,10.93,0,16.4.14s10.94.25,16.4.54c.22,0,.4.29.39.61s-.18.56-.39.57c-5.46.29-10.93.44-16.4.54s-10.93.14-16.4.14c-1.37,0-2.73,0-4.1,0l-4.1,0-4.1-.06c-1.37,0-2.73,0-4.1-.08l-4.1-.1-4.1-.13c-2.74-.11-5.47-.21-8.2-.39-.18,0-.32-.24-.31-.5s.14-.44.31-.46"/></clipPath><clipPath id="clip-path-28"><path class="cls-1" d="M-157.73-52.77c2.73-.18,5.46-.28,8.2-.39l4.1-.13,4.1-.1c1.36,0,2.73-.06,4.1-.08l4.1-.06,4.1,0c1.37,0,2.73,0,4.1,0,5.47,0,10.93,0,16.4.14s10.93.25,16.4.54c.22,0,.39.28.39.61s-.18.56-.39.57c-5.47.29-10.93.43-16.4.54s-10.93.14-16.4.14c-1.37,0-2.73,0-4.1,0l-4.1,0-4.1,0c-1.37,0-2.74,0-4.1-.08l-4.1-.1-4.1-.13c-2.74-.11-5.47-.22-8.2-.39-.18,0-.32-.24-.31-.5s.14-.45.31-.46"/></clipPath><clipPath id="clip-path-29"><path class="cls-1" d="M-79.44-106.59h-88.2a2.64,2.64,0,0,1-2.63-2.64v-33.22a2.64,2.64,0,0,1,2.63-2.64h88.2a2.64,2.64,0,0,1,2.63,2.64v33.22a2.64,2.64,0,0,1-2.63,2.64"/></clipPath><clipPath id="clip-path-30"><path class="cls-1" d="M-79.44-60.65h-88.2a2.64,2.64,0,0,1-2.63-2.64V-96.51a2.64,2.64,0,0,1,2.63-2.64h88.2a2.64,2.64,0,0,1,2.63,2.64v33.22a2.64,2.64,0,0,1-2.63,2.64"/></clipPath><clipPath id="clip-path-31"><path class="cls-1" d="M-82.55-79.7A14.5,14.5,0,0,1-97-65.19,14.5,14.5,0,0,1-111.53-79.7,14.51,14.51,0,0,1-97-94.22,14.51,14.51,0,0,1-82.55-79.7"/></clipPath><clipPath id="clip-path-32"><path class="cls-1" d="M-118.48-91.06a2.38,2.38,0,0,1-3.34,1.36c-1.39-.5-1.9-1.13-1.23-3s1.46-1.92,2.85-1.42,2.28,1.53,1.72,3.08"/></clipPath><clipPath id="clip-path-33"><path class="cls-1" d="M-120.18-91.7a6.19,6.19,0,0,1,1.36-2.72c.3-.36.81-1,1.34-.93s.59.77.27,1.15a5.08,5.08,0,0,0-1.15,2.59,1,1,0,0,1-.82.94.92.92,0,0,1-1-1"/></clipPath><clipPath id="clip-path-34"><path class="cls-1" d="M-98.67-71-115-74.19l-.41-.08a2.48,2.48,0,0,1-1.86-1.65l-4.63-14.57,2.65-1.14L-113-79.8h0l15.38,1.3Z"/></clipPath><clipPath id="clip-path-35"><path class="cls-1" d="M-107.19-72.6l7.52,1.69a4.26,4.26,0,0,0,4.52-2.93c.73-2.24,2.07-3.53-.17-4.26-.79-.25-1.73-1-2.48-.76l-8.8-.5Z"/></clipPath><clipPath id="clip-path-36"><ellipse class="cls-3" cx="-97.02" cy="-79.67" rx="14.49" ry="14.51"/></clipPath><clipPath id="clip-path-37"><path class="cls-1" d="M-111.52-79.67A14.51,14.51,0,0,0-97-65.15,14.51,14.51,0,0,0-82.53-79.67,14.5,14.5,0,0,0-97-94.18a14.51,14.51,0,0,0-14.5,14.51"/></clipPath><clipPath id="clip-path-41"><polygon class="cls-1" points="-93.88 -77.44 -100.01 -77.89 -98.42 -86.45 -93.7 -87.15 -93.88 -77.44"/></clipPath><clipPath id="clip-path-42"><path class="cls-1" d="M-99.62-80c.65-.25,4.89-1.7,6.6-3.85l-6.16,1.47Z"/></clipPath><clipPath id="clip-path-43"><path class="cls-1" d="M-89.06-86.57a6,6,0,0,1-2.85,2.67c-.84.37-1.08,1.13-2,1.38-1.43.41-4.33,1-5.21.76-1.27-.3-2.72-.78-3.09-1.66a3.27,3.27,0,0,1-.09-1.6,12.44,12.44,0,0,1,.57-2.28,34.6,34.6,0,0,1,2.1-4.86c1.54-2.91,5.54-3.83,8.46-2.29s3.62,5,2.08,7.88"/></clipPath><clipPath id="clip-path-44"><path class="cls-1" d="M-94.86-84.72s-1.25,2.37-5.87,2.46a11.13,11.13,0,0,0,1.64.5c.86.21,3.7-.33,5.14-.74Z"/></clipPath><clipPath id="clip-path-45"><path class="cls-1" d="M-99.89-91.37l-2.49,2.45a.54.54,0,0,0,0,.79l.88.7Z"/></clipPath><clipPath id="clip-path-46"><path class="cls-1" d="M-97.09-94.66l2.19,1.16s2.21.71.56,2.85a2.39,2.39,0,0,0-2.12,3l1.25,2.53s.19,2,1.28,2.71A8.58,8.58,0,0,0-88.53-87c1.83-3.46.12-6.42-2.74-7.93a5.41,5.41,0,0,0-5.82.26"/></clipPath><clipPath id="clip-path-47"><path class="cls-1" d="M-94.06-86.1a1.63,1.63,0,0,1-2.18.8,1.79,1.79,0,0,1-.22-2.4,1.63,1.63,0,0,1,2.18-.8,1.77,1.77,0,0,1,.22,2.4"/></clipPath><clipPath id="clip-path-48"><path class="cls-1" d="M-136-125.68a14.5,14.5,0,0,1-14.48,14.51A14.5,14.5,0,0,1-165-125.68a14.49,14.49,0,0,1,14.49-14.51A14.49,14.49,0,0,1-136-125.68"/></clipPath><clipPath id="clip-path-49"><path class="cls-1" d="M-146.27-123l10.43,6.05h0l10.41-5.38,1.05,1.69-10.44,7.77a1.76,1.76,0,0,1-1.79.19l-.24-.11-11.88-5.42Z"/></clipPath><clipPath id="clip-path-50"><path class="cls-1" d="M-146-116.79l3.14,1.29,2.2-4.38-4.15-2.61a18.12,18.12,0,0,0-2.73-1.45Z"/></clipPath><clipPath id="clip-path-51"><path class="cls-1" d="M-127-121s-1.58-3.31-.92-3.68c.5-.27,1.3,1.3,1.3,1.3Z"/></clipPath><clipPath id="clip-path-52"><path class="cls-1" d="M-125.62-126.51c-1,1-1.55,5.71-1.55,5.71l2.14.61.17,0a2,2,0,0,0,1.19-1.68,13.5,13.5,0,0,1,.7-3.55c.5-1.35-1.68-2-2.65-1"/></clipPath><clipPath id="clip-path-53"><path class="cls-1" d="M-165-125.68a14.51,14.51,0,0,0,14.5,14.52A14.51,14.51,0,0,0-136-125.68a14.51,14.51,0,0,0-14.5-14.52A14.51,14.51,0,0,0-165-125.68"/></clipPath><clipPath id="clip-path-54"><path class="cls-1" d="M-165-125.68a14.51,14.51,0,0,0,14.5,14.52A14.51,14.51,0,0,0-136-125.68a14.51,14.51,0,0,0-14.5-14.52A14.51,14.51,0,0,0-165-125.68Z"/></clipPath><clipPath id="clip-path-58"><polygon class="cls-1" points="-153.93 -123.23 -149.16 -122 -148.04 -129.41 -151.41 -131.17 -153.93 -123.23"/></clipPath><clipPath id="clip-path-59"><path class="cls-1" d="M-148.06-129.24l-.14-.25-2.74-1.43-.56,0-.32,1s.52,4.46,2.89,6.37Z"/></clipPath><clipPath id="clip-path-60"><path class="cls-1" d="M-152.65-136.08c-.52-.14-.36-.68-1.15-.57s-1.51.63-1.39,2.54a12.22,12.22,0,0,0,.51,2.13,5.45,5.45,0,0,1,.17,3.12,3.2,3.2,0,0,1-1,1.46c-.76.63-.6.23-.52-.47.26-2.49-1.8-4.37-2.36-6.69-.45-1.92.18-4.55,2.35-5.1a3.1,3.1,0,0,1,3.17,1.41,3.27,3.27,0,0,1,.69,1.54c0,.33-.23.41-.51.63"/></clipPath><clipPath id="clip-path-61"><path class="cls-1" d="M-153.38-135.94l-.15-.19a.85.85,0,0,1-.05-1l.35-.56a.83.83,0,0,1,.87-.37l.24,0a.4.4,0,0,1,.25.6l-.86,1.38a.4.4,0,0,1-.65,0"/></clipPath><clipPath id="clip-path-62"><path class="cls-1" d="M-153.07-135.4a5.41,5.41,0,0,0,0,3.6,19.45,19.45,0,0,0,1.37,2.11c.65,1.21,1.12,3.42,1.8,3.91,1,.74,2.12,1.53,2.94,1.18,1.75-.75,3.8-5.9,4.28-7.36.95-2.88-1-5.8-3.9-6.75a5,5,0,0,0-6.54,3.31"/></clipPath><clipPath id="clip-path-63"><path class="cls-1" d="M-143.25-131l-1.39,3.62h.94a.54.54,0,0,0,.54-.6,18.56,18.56,0,0,1-.09-3"/></clipPath><clipPath id="clip-path-64"><path class="cls-1" d="M-151.15-129l-.22-.08c.51,1.24.94,2.91,1.52,3.33.91.65,1.86,1.34,2.64,1.25a7.22,7.22,0,0,1-3.94-4.5"/></clipPath><clipPath id="clip-path-65"><path class="cls-1" d="M-142.56-135.17a5.29,5.29,0,0,0-3-1.18c-1.31,0-2.94.48-2,4.33,0,0-2.7,3.72-4.69,3.76-1-.56-2.27-5.14-1.06-7.92s3.46-4.35,6.65-3.3a5.56,5.56,0,0,1,4.09,4.31"/></clipPath><clipPath id="clip-path-66"><path class="cls-1" d="M-150.2-131.78a1.51,1.51,0,0,0,.87,2,1.64,1.64,0,0,0,1.73-1.38,1.5,1.5,0,0,0-.86-2,1.64,1.64,0,0,0-1.74,1.38"/></clipPath><clipPath id="clip-path-67"><path class="cls-1" d="M-155.55-115.28a4.54,4.54,0,0,1-4.54,4.55,4.54,4.54,0,0,1-4.54-4.55,4.54,4.54,0,0,1,4.54-4.54,4.54,4.54,0,0,1,4.54,4.54"/></clipPath><clipPath id="clip-path-68"><path class="cls-1" d="M-161.73-113.06l-1-1a.61.61,0,0,1,0-.85.61.61,0,0,1,.85,0l.59.59,2.89-2.89a.61.61,0,0,1,.85,0,.61.61,0,0,1,0,.85l-3.25,3.25a.69.69,0,0,1-1,0"/></clipPath><clipPath id="clip-path-69"><path class="cls-1" d="M-83.23-69.33a4.55,4.55,0,0,1-4.54,4.55,4.55,4.55,0,0,1-4.54-4.55,4.55,4.55,0,0,1,4.54-4.55,4.55,4.55,0,0,1,4.54,4.55"/></clipPath><clipPath id="clip-path-70"><path class="cls-1" d="M-85.6-68.15l-1.17-1.18,1.17-1.18a.66.66,0,0,0,0-.94.66.66,0,0,0-.94,0l-1.17,1.18-1.18-1.18a.66.66,0,0,0-.94,0,.66.66,0,0,0,0,.94l1.17,1.18-1.17,1.18a.66.66,0,0,0,0,.94.66.66,0,0,0,.94,0l1.18-1.18,1.17,1.18a.66.66,0,0,0,.94,0,.66.66,0,0,0,0-.94"/></clipPath></defs><title>payroll-integration</title><rect class="cls-4" x="31.03" y="41.18" width="1.79" height="1.34"/><path class="cls-4" d="M83.16,90.07H80.49V88.29h2.67Zm-5.33,0H75.16V88.29h2.67Zm-5.33,0H69.83V88.29H72.5Zm-5.33,0H64.5V88.29h2.67Zm-5.33,0H59.17V88.29h2.67Zm-5.33,0H53.84V88.29h2.67Zm-5.33,0H48.51V88.29h2.67Zm-5.33,0H43.18V88.29h2.67Zm-5.33,0H37.85V88.29h2.67ZM35,89.85a5.43,5.43,0,0,1-2.62-1.72L33.69,87a3.76,3.76,0,0,0,1.77,1.16Zm-3.88-4.59a4.87,4.87,0,0,1,0-.66V82.49h1.78V84.6a3.52,3.52,0,0,0,0,.45Zm1.74-5.44H31V77.16h1.78Zm0-5.33H31V71.83h1.78Zm0-5.33H31V66.5h1.78Zm0-5.33H31V61.17h1.78Zm0-5.33H31V55.84h1.78Zm0-5.33H31V50.51h1.78Zm0-5.33H31V45.18h1.78Z"/><rect class="cls-4" x="85.83" y="88.29" width="1.34" height="1.78"/><rect class="cls-4" x="117.81" y="51.93" width="1.79" height="1.34"/><path class="cls-4" d="M119.59,49.29h-1.78V46.65h1.78Zm0-5.28h-1.78V41.38h1.78Zm0-5.27h-1.78V36.1h1.78Zm-2-5a3.59,3.59,0,0,0-1.2-1.7l1.1-1.4a5.27,5.27,0,0,1,1.79,2.54Zm-3.15-2.45h-2.56V29.52h2.28l.42,0Zm-5.2,0h-2.64V29.52h2.64Zm-5.27,0h-2.64V29.52H104Z"/><rect class="cls-4" x="97.38" y="29.52" width="1.34" height="1.78"/><g class="cls-14"><g class="cls-15"><g class="cls-16"><rect class="cls-17" x="34.73" y="103" width="74.8" height="11.05"/></g></g></g><g class="cls-18"><g class="cls-15"><rect class="cls-19" x="2.43" y="49.45" width="18.7" height="18.7"/></g></g><path class="cls-34" d="M106.54,17.92H16.07a1.16,1.16,0,0,0-1.16,1.16v5.66H107.7V19.08A1.16,1.16,0,0,0,106.54,17.92Z"/><circle class="cls-35" cx="104.29" cy="21.43" r="1.01"/><rect class="cls-36" x="14.91" y="24.72" width="92.78" height="12.13"/><path class="cls-19" d="M23.92,29.83a.3.3,0,0,1-.18-.06l-1.33,1,.47,1.57a.32.32,0,0,1,.24.13l0,0,1.41-1.08L24,29.81h-.11"/><path class="cls-19" d="M22.53,32.71a.25.25,0,0,1,0-.08l-1.32-1-1.34,1a.19.19,0,0,1,0,.08.3.3,0,0,1-.06.18v0l1.39,1,1.39-1v0a.27.27,0,0,1-.07-.2"/><path class="cls-19" d="M21.42,27.81l.52,1.57h1.67c0-.12.11-.16.22-.19h0l-.52-1.65H21.55a.34.34,0,0,1-.13.27"/><path class="cls-19" d="M19.55,32.4,20,30.81l-1.34-1a.41.41,0,0,1-.19.05H18.4l-.52,1.64,1.42,1.08a.31.31,0,0,1,.25-.13"/><path class="cls-19" d="M20.89,27.54H19.12l-.52,1.64h0a.33.33,0,0,1,.22.21H20.5L21,27.81A.34.34,0,0,1,20.89,27.54Z"/><path class="cls-37" d="M14.92,36.29V75a3.31,3.31,0,0,0,3.32,3.31h86.23a3.23,3.23,0,0,0,3.23-3.23V36.29Z"/><circle class="cls-35" cx="100.91" cy="21.43" r="1.01"/><circle class="cls-35" cx="97.52" cy="21.43" r="1.01"/><rect class="cls-38" x="88.17" y="48.8" width="34.36" height="49.64" rx="0.88"/><rect class="cls-39" x="89.5" y="47.46" width="34.36" height="49.64" rx="0.88"/><rect class="cls-40" x="90.7" y="46.09" width="34.36" height="49.64" rx="0.88"/><path class="cls-36" d="M107.84,65.79H95.68a.56.56,0,0,1,0-1.12h12.16a.56.56,0,0,1,0,1.12Z"/><path class="cls-36" d="M119.63,71.73H95.68a.56.56,0,0,1,0-1.12h23.95a.56.56,0,0,1,0,1.12Z"/><path class="cls-36" d="M105,78.85H95.68a.56.56,0,1,1,0-1.11H105a.56.56,0,1,1,0,1.11Z"/><path class="cls-36" d="M113.79,78.85h-4.67a.56.56,0,1,1,0-1.11h4.67a.56.56,0,1,1,0,1.11Z"/><circle class="cls-41" cx="99.71" cy="55.24" r="4.69"/><path class="cls-19" d="M99.33,57.93a4.93,4.93,0,0,1-.74-.08,2.2,2.2,0,0,1-.5-.17l.28-.85a2.14,2.14,0,0,0,.38.15,2.79,2.79,0,0,0,.57.1v-1.5a4,4,0,0,1-.46-.23,1.68,1.68,0,0,1-.4-.3,1.26,1.26,0,0,1-.29-.42,1.48,1.48,0,0,1-.11-.59,1.36,1.36,0,0,1,.32-1,1.68,1.68,0,0,1,.91-.46v-.67h.77v.65a2.89,2.89,0,0,1,.57.08,2.76,2.76,0,0,1,.46.15l-.26.82-.32-.12a1.91,1.91,0,0,0-.44-.08V54.8a3.29,3.29,0,0,1,.46.23,1.6,1.6,0,0,1,.42.3,1.55,1.55,0,0,1,.3.41,1.28,1.28,0,0,1,.12.58,1.54,1.54,0,0,1-.34,1.06,1.6,1.6,0,0,1-.93.5v.69h-.77ZM99,54a.48.48,0,0,0,.17.37,1.84,1.84,0,0,0,.44.27v-1.2a.67.67,0,0,0-.48.17A.65.65,0,0,0,99,54Zm1.4,2.48a.49.49,0,0,0-.19-.39,3.74,3.74,0,0,0-.46-.27v1.31a.77.77,0,0,0,.48-.21A.61.61,0,0,0,100.41,56.43Z"/></svg>