<svg id="Layer_1" data-name="Layer 1" xmlns="http://www.w3.org/2000/svg" xmlns:xlink="http://www.w3.org/1999/xlink" viewBox="0 0 140 120"><defs><style>.cls-1,.cls-2,.cls-3{fill:none;}.cls-1{clip-rule:evenodd;}.cls-2{fill-rule:evenodd;}.cls-4{fill:#259be4;}.cls-5{clip-path:url(#clip-path);}.cls-6{clip-path:url(#clip-path-2);}.cls-7{clip-path:url(#clip-path-3);}.cls-8{clip-path:url(#clip-path-4);}.cls-9{clip-path:url(#clip-path-5);}.cls-10{clip-path:url(#clip-path-6);}.cls-11{clip-path:url(#clip-path-7);}.cls-12{clip-path:url(#clip-path-8);}.cls-13{clip-path:url(#clip-path-9);}.cls-14{clip-path:url(#clip-path-10);}.cls-15{opacity:0.3;}.cls-16{fill:#60b6eb;}.cls-17{clip-path:url(#clip-path-11);}.cls-18{clip-path:url(#clip-path-12);}.cls-19{clip-path:url(#clip-path-13);}.cls-20{clip-path:url(#clip-path-14);}.cls-21{clip-path:url(#clip-path-15);}.cls-22{clip-path:url(#clip-path-16);}.cls-23{clip-path:url(#clip-path-17);}.cls-24{clip-path:url(#clip-path-18);}.cls-25{clip-path:url(#clip-path-19);}.cls-26{clip-path:url(#clip-path-20);}.cls-27{clip-path:url(#clip-path-21);}.cls-28{clip-path:url(#clip-path-22);}.cls-29{clip-path:url(#clip-path-23);}.cls-30{clip-path:url(#clip-path-24);}.cls-31{clip-path:url(#clip-path-25);}.cls-32{clip-path:url(#clip-path-26);}.cls-33{fill:#d3ebfa;}.cls-34{fill:#c8e6f8;}.cls-35{fill:#f0faff;}.cls-36{fill:#fff;}.cls-37{fill:#87c4ea;}.cls-38{clip-path:url(#clip-path-27);}.cls-39{fill:#78ddc9;}.cls-40{fill:#ffb682;}.cls-41{fill:#eb9b78;}.cls-42{fill:#0d578c;}.cls-43{fill:#1f77bc;}.cls-44{fill:#7cc3ef;}.cls-45{clip-path:url(#clip-path-28);}.cls-46{clip-path:url(#clip-path-29);}.cls-47{clip-path:url(#clip-path-30);}.cls-48{clip-path:url(#clip-path-31);}.cls-49{clip-path:url(#clip-path-32);}.cls-50{clip-path:url(#clip-path-33);}.cls-51{clip-path:url(#clip-path-34);}.cls-52{clip-path:url(#clip-path-35);}.cls-53{clip-path:url(#clip-path-36);}.cls-54{clip-path:url(#clip-path-37);}.cls-55{clip-path:url(#clip-path-41);}.cls-56{clip-path:url(#clip-path-42);}.cls-57{clip-path:url(#clip-path-43);}.cls-58{clip-path:url(#clip-path-44);}.cls-59{clip-path:url(#clip-path-45);}.cls-60{clip-path:url(#clip-path-46);}.cls-61{clip-path:url(#clip-path-47);}.cls-62{clip-path:url(#clip-path-48);}.cls-63{clip-path:url(#clip-path-49);}.cls-64{clip-path:url(#clip-path-50);}.cls-65{clip-path:url(#clip-path-51);}.cls-66{clip-path:url(#clip-path-52);}.cls-67{clip-path:url(#clip-path-53);}.cls-68{clip-path:url(#clip-path-54);}.cls-69{clip-path:url(#clip-path-58);}.cls-70{clip-path:url(#clip-path-59);}.cls-71{clip-path:url(#clip-path-60);}.cls-72{clip-path:url(#clip-path-61);}.cls-73{clip-path:url(#clip-path-62);}.cls-74{clip-path:url(#clip-path-63);}.cls-75{clip-path:url(#clip-path-64);}.cls-76{clip-path:url(#clip-path-65);}.cls-77{clip-path:url(#clip-path-66);}.cls-78{clip-path:url(#clip-path-67);}.cls-79{clip-path:url(#clip-path-68);}.cls-80{clip-path:url(#clip-path-69);}.cls-81{clip-path:url(#clip-path-70);}</style><clipPath id="clip-path"><path class="cls-1" d="M502-63.1H422.57a2.51,2.51,0,0,1-2.37-2.63v-33a2.5,2.5,0,0,1,2.37-2.63H502a2.5,2.5,0,0,1,2.37,2.63v33A2.51,2.51,0,0,1,502-63.1"/></clipPath><clipPath id="clip-path-2"><path class="cls-1" d="M499.07-78.92a9.26,9.26,0,0,1-9.17,9.33,9.26,9.26,0,0,1-9.18-9.33,9.25,9.25,0,0,1,9.18-9.33A9.25,9.25,0,0,1,499.07-78.92Z"/></clipPath><clipPath id="clip-path-3"><path class="cls-1" d="M444.17-89.45H429.42a2.79,2.79,0,0,0-2.76,2.81v15a2.79,2.79,0,0,0,2.76,2.81h14.75a2.79,2.79,0,0,0,2.77-2.81v-15a2.79,2.79,0,0,0-2.77-2.81"/></clipPath><clipPath id="clip-path-4"><path class="cls-1" d="M438.44-79.67l1.68-1.71a.83.83,0,0,0,.21-.54v-1.94a.76.76,0,0,0-.75-.76h-5a.75.75,0,0,0-.74.75v2a.79.79,0,0,0,.22.54l1.68,1.71a.77.77,0,0,1,0,1.07l-1.68,1.71a.75.75,0,0,0-.22.53v2a.75.75,0,0,0,.74.76h5a.76.76,0,0,0,.75-.76v-2a.75.75,0,0,0-.22-.53l-1.68-1.71a.77.77,0,0,1,0-1.07"/></clipPath><clipPath id="clip-path-5"><path class="cls-1" d="M508.4-93.7H416.15c-1.52,0-2.75-1.55-2.75-3.45v-43.26c0-1.9,1.23-3.44,2.75-3.44H508.4c1.52,0,2.75,1.54,2.75,3.44v43.26c0,1.9-1.23,3.45-2.75,3.45"/></clipPath><clipPath id="clip-path-6"><path class="cls-1" d="M441.78-131.95H423.71a3.43,3.43,0,0,0-3.39,3.46V-110a3.43,3.43,0,0,0,3.39,3.47h18.07a3.42,3.42,0,0,0,3.39-3.47v-18.5a3.42,3.42,0,0,0-3.39-3.46"/></clipPath><clipPath id="clip-path-7"><path class="cls-1" d="M484.2-120.2a10.87,10.87,0,0,0,10.74,11,10.87,10.87,0,0,0,10.73-11,10.87,10.87,0,0,0-10.73-11A10.87,10.87,0,0,0,484.2-120.2Z"/></clipPath><clipPath id="clip-path-8"><path class="cls-1" d="M430.71-53c2.73-.17,5.46-.28,8.2-.39l4.1-.13,4.1-.1c1.37,0,2.73-.05,4.1-.08l4.1-.05,4.1,0c1.37,0,2.73,0,4.1,0,5.47,0,10.93,0,16.4.14s10.94.25,16.4.54c.22,0,.4.29.39.61s-.18.56-.39.57c-5.46.29-10.93.44-16.4.54s-10.93.14-16.4.14c-1.37,0-2.73,0-4.1,0l-4.1,0-4.1-.06c-1.37,0-2.73,0-4.1-.08l-4.1-.1-4.1-.13c-2.74-.11-5.47-.21-8.2-.39-.18,0-.32-.24-.31-.5s.14-.44.31-.46"/></clipPath><clipPath id="clip-path-9"><path class="cls-1" d="M39.29,108c2.73-.17,5.46-.28,8.2-.39l4.1-.13,4.1-.1c1.37,0,2.73,0,4.1-.08l4.1,0,4.1,0c1.37,0,2.73,0,4.1,0,5.47,0,10.93,0,16.4.14s10.94.25,16.4.54c.22,0,.4.29.39.61s-.18.56-.39.57c-5.46.29-10.93.44-16.4.54s-10.93.14-16.4.14c-1.37,0-2.73,0-4.1,0l-4.1,0-4.1-.06c-1.37,0-2.73,0-4.1-.08l-4.1-.1-4.1-.13c-2.74-.11-5.47-.21-8.2-.39-.18,0-.32-.24-.31-.5s.14-.44.31-.46"/></clipPath><clipPath id="clip-path-10"><rect class="cls-3" x="-420.02" y="-1475.45" width="1224" height="2239.75"/></clipPath><clipPath id="clip-path-11"><path class="cls-1" d="M430.29,108c2.73-.17,5.46-.28,8.2-.39l4.1-.13,4.1-.1c1.37,0,2.73,0,4.1-.08l4.1,0,4.1,0c1.37,0,2.73,0,4.1,0,5.47,0,10.93,0,16.4.14s10.94.25,16.4.54c.22,0,.4.29.39.61s-.18.56-.39.57c-5.46.29-10.93.44-16.4.54s-10.93.14-16.4.14c-1.37,0-2.73,0-4.1,0l-4.1,0-4.1-.06c-1.37,0-2.73,0-4.1-.08l-4.1-.1-4.1-.13c-2.74-.11-5.47-.21-8.2-.39-.18,0-.32-.24-.31-.5s.14-.44.31-.46"/></clipPath><clipPath id="clip-path-12"><path class="cls-1" d="M407.88,58.8a5.1,5.1,0,1,1-5.1-5.1,5.1,5.1,0,0,1,5.1,5.1"/></clipPath><clipPath id="clip-path-13"><path class="cls-1" d="M39.29-53c2.73-.17,5.46-.28,8.2-.39l4.1-.13,4.1-.1c1.37,0,2.73-.05,4.1-.08l4.1-.05,4.1,0c1.37,0,2.73,0,4.1,0,5.47,0,10.93,0,16.4.14s10.94.25,16.4.54c.22,0,.4.29.39.61s-.18.56-.39.57c-5.46.29-10.93.44-16.4.54s-10.93.14-16.4.14c-1.37,0-2.73,0-4.1,0l-4.1,0-4.1-.06c-1.37,0-2.73,0-4.1-.08l-4.1-.1-4.1-.13c-2.74-.11-5.47-.21-8.2-.39-.18,0-.32-.24-.31-.5s.14-.44.31-.46"/></clipPath><clipPath id="clip-path-14"><rect class="cls-3" x="24.53" y="-140.45" width="93.5" height="76.5" rx="3.4"/></clipPath><clipPath id="clip-path-15"><path class="cls-1" d="M41.53-133.23a3.83,3.83,0,0,1-3.83,3.83,3.83,3.83,0,0,1-3.82-3.83A3.82,3.82,0,0,1,37.7-137a3.82,3.82,0,0,1,3.83,3.82"/></clipPath><clipPath id="clip-path-16"><path class="cls-1" d="M58.53-133.23a3.83,3.83,0,0,1-3.83,3.83,3.83,3.83,0,0,1-3.82-3.83A3.82,3.82,0,0,1,54.7-137a3.82,3.82,0,0,1,3.83,3.82"/></clipPath><clipPath id="clip-path-17"><path class="cls-1" d="M75.53-133.23a3.83,3.83,0,0,1-3.83,3.83,3.83,3.83,0,0,1-3.82-3.83A3.82,3.82,0,0,1,71.7-137a3.82,3.82,0,0,1,3.83,3.82"/></clipPath><clipPath id="clip-path-18"><path class="cls-1" d="M92.53-133.23a3.83,3.83,0,0,1-3.83,3.83,3.83,3.83,0,0,1-3.82-3.83A3.82,3.82,0,0,1,88.7-137a3.82,3.82,0,0,1,3.83,3.82"/></clipPath><clipPath id="clip-path-19"><path class="cls-1" d="M109.53-133.23a3.83,3.83,0,0,1-3.83,3.83,3.83,3.83,0,0,1-3.82-3.83A3.82,3.82,0,0,1,105.7-137a3.82,3.82,0,0,1,3.83,3.82"/></clipPath><clipPath id="clip-path-20"><path class="cls-1" d="M134-105.6H85c-.55,0-1-.65-1-1.45v-13.26c0-.8.45-1.44,1-1.44h49c.55,0,1,.64,1,1.44V-107c0,.8-.45,1.45-1,1.45"/></clipPath><clipPath id="clip-path-21"><path class="cls-1" d="M99.33-113.25a5.1,5.1,0,0,1-5.1,5.1,5.1,5.1,0,0,1-5.1-5.1,5.1,5.1,0,0,1,5.1-5.1,5.1,5.1,0,0,1,5.1,5.1"/></clipPath><clipPath id="clip-path-22"><path class="cls-1" d="M51.8-94.55H4.05A1.55,1.55,0,0,1,2.43-96v-13.26a1.54,1.54,0,0,1,1.62-1.44H51.8a1.54,1.54,0,0,1,1.63,1.44V-96a1.55,1.55,0,0,1-1.63,1.45"/></clipPath><clipPath id="clip-path-23"><path class="cls-1" d="M16.88-102.2a5.1,5.1,0,0,1-5.1,5.1,5.1,5.1,0,0,1-5.1-5.1,5.1,5.1,0,0,1,5.1-5.1,5.1,5.1,0,0,1,5.1,5.1"/></clipPath><clipPath id="clip-path-24"><path class="cls-1" d="M74.37-80.95A1.42,1.42,0,0,1,73-82.4V-95.66a1.41,1.41,0,0,1,1.39-1.44h48.22A1.42,1.42,0,0,1,124-95.66V-82.4a1.43,1.43,0,0,1-1.39,1.45Z"/></clipPath><clipPath id="clip-path-25"><path class="cls-1" d="M87.43-88.6a5.1,5.1,0,0,1-5.1,5.1,5.1,5.1,0,0,1-5.1-5.1,5.1,5.1,0,0,1,5.1-5.1,5.1,5.1,0,0,1,5.1,5.1"/></clipPath><clipPath id="clip-path-26"><path class="cls-1" d="M234.29,108c2.73-.17,5.46-.28,8.2-.39l4.1-.13,4.1-.1c1.37,0,2.73,0,4.1-.08l4.1,0,4.1,0c1.37,0,2.73,0,4.1,0,5.47,0,10.93,0,16.4.14s10.94.25,16.4.54c.22,0,.4.29.39.61s-.18.56-.39.57c-5.46.29-10.93.44-16.4.54s-10.93.14-16.4.14c-1.37,0-2.73,0-4.1,0l-4.1,0-4.1-.06c-1.37,0-2.73,0-4.1-.08l-4.1-.1-4.1-.13c-2.74-.11-5.47-.21-8.2-.39-.18,0-.32-.24-.31-.5s.14-.44.31-.46"/></clipPath><clipPath id="clip-path-27"><circle class="cls-4" cx="44.48" cy="48.92" r="10.73"/></clipPath><clipPath id="clip-path-28"><path class="cls-1" d="M233.27-52.77c2.73-.18,5.46-.28,8.2-.39l4.1-.13,4.1-.1c1.36,0,2.73-.06,4.1-.08l4.1-.06,4.1,0c1.37,0,2.73,0,4.1,0,5.47,0,10.93,0,16.4.14s10.93.25,16.4.54c.22,0,.39.28.39.61s-.18.56-.39.57c-5.47.29-10.93.43-16.4.54s-10.93.14-16.4.14c-1.37,0-2.73,0-4.1,0l-4.1,0-4.1,0c-1.37,0-2.74,0-4.1-.08l-4.1-.1-4.1-.13c-2.74-.11-5.47-.22-8.2-.39-.18,0-.32-.24-.31-.5s.14-.45.31-.46"/></clipPath><clipPath id="clip-path-29"><path class="cls-1" d="M311.56-106.59h-88.2a2.64,2.64,0,0,1-2.63-2.64v-33.22a2.64,2.64,0,0,1,2.63-2.64h88.2a2.64,2.64,0,0,1,2.63,2.64v33.22a2.64,2.64,0,0,1-2.63,2.64"/></clipPath><clipPath id="clip-path-30"><path class="cls-1" d="M311.56-60.65h-88.2a2.64,2.64,0,0,1-2.63-2.64V-96.51a2.64,2.64,0,0,1,2.63-2.64h88.2a2.64,2.64,0,0,1,2.63,2.64v33.22a2.64,2.64,0,0,1-2.63,2.64"/></clipPath><clipPath id="clip-path-31"><path class="cls-1" d="M308.45-79.7A14.5,14.5,0,0,1,294-65.19,14.5,14.5,0,0,1,279.47-79.7,14.51,14.51,0,0,1,294-94.22,14.51,14.51,0,0,1,308.45-79.7"/></clipPath><clipPath id="clip-path-32"><path class="cls-1" d="M272.52-91.06a2.38,2.38,0,0,1-3.34,1.36c-1.39-.5-1.9-1.13-1.23-3s1.46-1.92,2.85-1.42,2.28,1.53,1.72,3.08"/></clipPath><clipPath id="clip-path-33"><path class="cls-1" d="M270.82-91.7a6.19,6.19,0,0,1,1.36-2.72c.3-.36.81-1,1.34-.93s.59.77.27,1.15a5.08,5.08,0,0,0-1.15,2.59,1,1,0,0,1-.82.94.92.92,0,0,1-1-1"/></clipPath><clipPath id="clip-path-34"><path class="cls-1" d="M292.33-71,276-74.19l-.41-.08a2.48,2.48,0,0,1-1.86-1.65l-4.63-14.57,2.65-1.14L278-79.8h0l15.38,1.3Z"/></clipPath><clipPath id="clip-path-35"><path class="cls-1" d="M283.81-72.6l7.52,1.69a4.26,4.26,0,0,0,4.52-2.93c.73-2.24,2.07-3.53-.17-4.26-.79-.25-1.73-1-2.48-.76l-8.8-.5Z"/></clipPath><clipPath id="clip-path-36"><ellipse class="cls-3" cx="293.98" cy="-79.67" rx="14.49" ry="14.51"/></clipPath><clipPath id="clip-path-37"><path class="cls-1" d="M279.48-79.67A14.51,14.51,0,0,0,294-65.15a14.51,14.51,0,0,0,14.49-14.52A14.5,14.5,0,0,0,294-94.18a14.51,14.51,0,0,0-14.5,14.51"/></clipPath><clipPath id="clip-path-41"><polygon class="cls-1" points="297.12 -77.44 290.99 -77.89 292.58 -86.45 297.3 -87.15 297.12 -77.44"/></clipPath><clipPath id="clip-path-42"><path class="cls-1" d="M291.38-80c.65-.25,4.89-1.7,6.6-3.85l-6.16,1.47Z"/></clipPath><clipPath id="clip-path-43"><path class="cls-1" d="M301.94-86.57a6,6,0,0,1-2.85,2.67c-.84.37-1.08,1.13-2,1.38-1.43.41-4.33,1-5.21.76-1.27-.3-2.72-.78-3.09-1.66a3.27,3.27,0,0,1-.09-1.6,12.44,12.44,0,0,1,.57-2.28,34.6,34.6,0,0,1,2.1-4.86c1.54-2.91,5.54-3.83,8.46-2.29s3.62,5,2.08,7.88"/></clipPath><clipPath id="clip-path-44"><path class="cls-1" d="M296.14-84.72s-1.25,2.37-5.87,2.46a11.13,11.13,0,0,0,1.64.5c.86.21,3.7-.33,5.14-.74Z"/></clipPath><clipPath id="clip-path-45"><path class="cls-1" d="M291.11-91.37l-2.49,2.45a.54.54,0,0,0,0,.79l.88.7Z"/></clipPath><clipPath id="clip-path-46"><path class="cls-1" d="M293.91-94.66l2.19,1.16s2.21.71.56,2.85a2.39,2.39,0,0,0-2.12,3l1.25,2.53s.19,2,1.28,2.71a8.58,8.58,0,0,0,5.4-4.53c1.83-3.46.12-6.42-2.74-7.93a5.41,5.41,0,0,0-5.82.26"/></clipPath><clipPath id="clip-path-47"><path class="cls-1" d="M296.94-86.1a1.63,1.63,0,0,1-2.18.8,1.79,1.79,0,0,1-.22-2.4,1.63,1.63,0,0,1,2.18-.8,1.77,1.77,0,0,1,.22,2.4"/></clipPath><clipPath id="clip-path-48"><path class="cls-1" d="M255-125.68a14.5,14.5,0,0,1-14.48,14.51A14.5,14.5,0,0,1,226-125.68a14.49,14.49,0,0,1,14.49-14.51A14.49,14.49,0,0,1,255-125.68"/></clipPath><clipPath id="clip-path-49"><path class="cls-1" d="M244.73-123,255.16-117h0l10.41-5.38,1.05,1.69-10.44,7.77a1.76,1.76,0,0,1-1.79.19l-.24-.11-11.88-5.42Z"/></clipPath><clipPath id="clip-path-50"><path class="cls-1" d="M245-116.79l3.14,1.29,2.2-4.38-4.15-2.61a18.12,18.12,0,0,0-2.73-1.45Z"/></clipPath><clipPath id="clip-path-51"><path class="cls-1" d="M264-121s-1.58-3.31-.92-3.68c.5-.27,1.3,1.3,1.3,1.3Z"/></clipPath><clipPath id="clip-path-52"><path class="cls-1" d="M265.38-126.51c-1,1-1.55,5.71-1.55,5.71l2.14.61.17,0a2,2,0,0,0,1.19-1.68,13.5,13.5,0,0,1,.7-3.55c.5-1.35-1.68-2-2.65-1"/></clipPath><clipPath id="clip-path-53"><path class="cls-1" d="M226-125.68a14.51,14.51,0,0,0,14.5,14.52A14.51,14.51,0,0,0,255-125.68a14.51,14.51,0,0,0-14.5-14.52A14.51,14.51,0,0,0,226-125.68"/></clipPath><clipPath id="clip-path-54"><path class="cls-1" d="M226-125.68a14.51,14.51,0,0,0,14.5,14.52A14.51,14.51,0,0,0,255-125.68a14.51,14.51,0,0,0-14.5-14.52A14.51,14.51,0,0,0,226-125.68Z"/></clipPath><clipPath id="clip-path-58"><polygon class="cls-1" points="237.07 -123.23 241.84 -122 242.96 -129.41 239.59 -131.17 237.07 -123.23"/></clipPath><clipPath id="clip-path-59"><path class="cls-1" d="M242.94-129.24l-.14-.25-2.74-1.43-.56,0-.32,1s.52,4.46,2.89,6.37Z"/></clipPath><clipPath id="clip-path-60"><path class="cls-1" d="M238.35-136.08c-.52-.14-.36-.68-1.15-.57s-1.51.63-1.39,2.54a12.22,12.22,0,0,0,.51,2.13,5.45,5.45,0,0,1,.17,3.12,3.2,3.2,0,0,1-1,1.46c-.76.63-.6.23-.52-.47.26-2.49-1.8-4.37-2.36-6.69-.45-1.92.18-4.55,2.35-5.1a3.1,3.1,0,0,1,3.17,1.41,3.27,3.27,0,0,1,.69,1.54c0,.33-.23.41-.51.63"/></clipPath><clipPath id="clip-path-61"><path class="cls-1" d="M237.62-135.94l-.15-.19a.85.85,0,0,1-.05-1l.35-.56a.83.83,0,0,1,.87-.37l.24,0a.4.4,0,0,1,.25.6l-.86,1.38a.4.4,0,0,1-.65,0"/></clipPath><clipPath id="clip-path-62"><path class="cls-1" d="M237.93-135.4a5.41,5.41,0,0,0,0,3.6,19.45,19.45,0,0,0,1.37,2.11c.65,1.21,1.12,3.42,1.8,3.91,1,.74,2.12,1.53,2.94,1.18,1.75-.75,3.8-5.9,4.28-7.36.95-2.88-1-5.8-3.9-6.75a5,5,0,0,0-6.54,3.31"/></clipPath><clipPath id="clip-path-63"><path class="cls-1" d="M247.75-131l-1.39,3.62h.94a.54.54,0,0,0,.54-.6,18.56,18.56,0,0,1-.09-3"/></clipPath><clipPath id="clip-path-64"><path class="cls-1" d="M239.85-129l-.22-.08c.51,1.24.94,2.91,1.52,3.33.91.65,1.86,1.34,2.64,1.25a7.22,7.22,0,0,1-3.94-4.5"/></clipPath><clipPath id="clip-path-65"><path class="cls-1" d="M248.44-135.17a5.29,5.29,0,0,0-3-1.18c-1.31,0-2.94.48-2,4.33,0,0-2.7,3.72-4.69,3.76-1-.56-2.27-5.14-1.06-7.92s3.46-4.35,6.65-3.3a5.56,5.56,0,0,1,4.09,4.31"/></clipPath><clipPath id="clip-path-66"><path class="cls-1" d="M240.8-131.78a1.51,1.51,0,0,0,.87,2,1.64,1.64,0,0,0,1.73-1.38,1.5,1.5,0,0,0-.86-2,1.64,1.64,0,0,0-1.74,1.38"/></clipPath><clipPath id="clip-path-67"><path class="cls-1" d="M235.45-115.28a4.54,4.54,0,0,1-4.54,4.55,4.54,4.54,0,0,1-4.54-4.55,4.54,4.54,0,0,1,4.54-4.54,4.54,4.54,0,0,1,4.54,4.54"/></clipPath><clipPath id="clip-path-68"><path class="cls-1" d="M229.27-113.06l-1-1a.61.61,0,0,1,0-.85.61.61,0,0,1,.85,0l.59.59,2.89-2.89a.61.61,0,0,1,.85,0,.61.61,0,0,1,0,.85l-3.25,3.25a.69.69,0,0,1-1,0"/></clipPath><clipPath id="clip-path-69"><path class="cls-1" d="M307.77-69.33a4.55,4.55,0,0,1-4.54,4.55,4.55,4.55,0,0,1-4.54-4.55,4.55,4.55,0,0,1,4.54-4.55,4.55,4.55,0,0,1,4.54,4.55"/></clipPath><clipPath id="clip-path-70"><path class="cls-1" d="M305.4-68.15l-1.17-1.18,1.17-1.18a.66.66,0,0,0,0-.94.66.66,0,0,0-.94,0l-1.17,1.18-1.18-1.18a.66.66,0,0,0-.94,0,.66.66,0,0,0,0,.94l1.17,1.18-1.17,1.18a.66.66,0,0,0,0,.94.66.66,0,0,0,.94,0l1.18-1.18,1.17,1.18a.66.66,0,0,0,.94,0,.66.66,0,0,0,0-.94"/></clipPath></defs><title>performance-management</title><g class="cls-13"><g class="cls-14"><g class="cls-15"><rect class="cls-16" x="34.73" y="103" width="74.8" height="11.05"/></g></g></g><rect class="cls-33" x="22.2" y="89.37" width="100.14" height="4.09" rx="1.68"/><rect class="cls-34" x="22.2" y="23.06" width="100.14" height="66.31" rx="2.7"/><rect class="cls-35" x="26.49" y="27.6" width="91.56" height="57.89" rx="2.47"/><path class="cls-36" d="M62.46,27.6H29a2.47,2.47,0,0,0-2.47,2.47V83A2.48,2.48,0,0,0,29,85.49h33.5Z"/><path class="cls-37" d="M78.86,89.36H65.69a3.16,3.16,0,0,0,3.08,2.39h7a3.17,3.17,0,0,0,3.08-2.39Z"/><circle class="cls-4" cx="44.48" cy="48.92" r="10.73"/><g class="cls-38"><path class="cls-39" d="M37.41,57.48A18.23,18.23,0,0,1,44.48,56a16,16,0,0,1,7.13,1.78s-1.72,1.87-7,2C39.48,60,37.41,57.48,37.41,57.48Z"/><polygon class="cls-40" points="46.05 50.83 42.9 50.83 42.29 57.08 46.66 57.08 46.05 50.83"/><path class="cls-41" d="M46.05,50.83H42.9l-.32,3.32.07.08a2.4,2.4,0,0,0,3.65,0l.07-.08Z"/><path class="cls-40" d="M49.34,46.51A9,9,0,0,1,46.52,53a3,3,0,0,1-4.09,0,9,9,0,0,1-2.82-6.48,4.87,4.87,0,1,1,9.73,0Z"/><path class="cls-42" d="M44.25,40.75c-5,0-5,6-5,6s-.24,3.95.31,5.07c.38.95,1.56,2,1.43.68-.35-3.54.1-5.4.78-5.8a12.58,12.58,0,0,0,5.61-2.08c1,2.19.47,5.71.46,6.76A10.31,10.31,0,0,0,49.5,47S50.09,40.74,44.25,40.75Z"/><path class="cls-39" d="M47,55.07v2.45H41.85V55.07a5.37,5.37,0,0,0,2.59.49A5.39,5.39,0,0,0,47,55.07Z"/></g><rect class="cls-4" x="76.12" y="41.3" width="6.31" height="32.57" rx="1.59"/><rect class="cls-39" x="87.91" y="51.54" width="6.31" height="22.33" rx="1.59"/><rect class="cls-43" x="99.7" y="56.04" width="6.31" height="17.83" rx="1.59"/><path class="cls-44" d="M91,47.18a.18.18,0,0,1-.13,0L79.14,36.92a.21.21,0,0,1,.27-.31L91.15,46.82a.21.21,0,0,1-.14.36Z"/><path class="cls-44" d="M102.86,52.37l-.09,0L90.93,47.17a.23.23,0,0,1-.11-.28.21.21,0,0,1,.28-.1L102.94,52a.21.21,0,0,1,.11.27A.22.22,0,0,1,102.86,52.37Z"/><circle class="cls-4" cx="79.28" cy="36.76" r="0.9"/><circle class="cls-4" cx="91.01" cy="46.98" r="0.9"/><circle class="cls-4" cx="102.86" cy="52.16" r="0.9"/><path class="cls-44" d="M111.37,78.52H72.61a2.31,2.31,0,0,1-2.3-2.31V37.46a.42.42,0,0,1,.42-.42.41.41,0,0,1,.41.42V76.21a1.47,1.47,0,0,0,1.47,1.47h38.76a.42.42,0,1,1,0,.84Z"/><path class="cls-34" d="M50.45,72.6H37.78a.9.9,0,0,1,0-1.79H50.45a.9.9,0,0,1,0,1.79Z"/><path class="cls-34" d="M53.87,67.63H34.75a.89.89,0,1,1,0-1.78H53.87a.89.89,0,0,1,0,1.78Z"/></svg>