<svg id="Layer_1" data-name="Layer 1" xmlns="http://www.w3.org/2000/svg" xmlns:xlink="http://www.w3.org/1999/xlink" viewBox="0 0 140 120"><defs><style>.cls-1,.cls-2,.cls-3{fill:none;}.cls-1{clip-rule:evenodd;}.cls-3{fill-rule:evenodd;}.cls-4{clip-path:url(#clip-path);}.cls-5{clip-path:url(#clip-path-2);}.cls-6{opacity:0.3;}.cls-7{fill:#c8e6f8;}.cls-8{fill:#fff;}.cls-9{clip-path:url(#clip-path-3);}.cls-10{isolation:isolate;}.cls-11{clip-path:url(#clip-path-5);}.cls-12{clip-path:url(#clip-path-6);}.cls-13{clip-path:url(#clip-path-7);}.cls-14{fill:#259be4;}.cls-15{clip-path:url(#clip-path-8);}.cls-16{fill:#a5d6f4;}.cls-17{clip-path:url(#clip-path-10);}.cls-18{clip-path:url(#clip-path-12);}.cls-19{fill:#eb9b78;}.cls-20{clip-path:url(#clip-path-14);}.cls-21{clip-path:url(#clip-path-16);}.cls-22{fill:#ffb682;}.cls-23{clip-path:url(#clip-path-18);}.cls-24{clip-path:url(#clip-path-20);}.cls-25{clip-path:url(#clip-path-22);}.cls-26{fill:#0d578c;}.cls-27{clip-path:url(#clip-path-24);}.cls-28{clip-path:url(#clip-path-26);}.cls-29{clip-path:url(#clip-path-28);}.cls-30{clip-path:url(#clip-path-30);}.cls-31{clip-path:url(#clip-path-32);}.cls-32{fill:#d8edfa;}.cls-33{clip-path:url(#clip-path-34);}.cls-34{clip-path:url(#clip-path-36);}.cls-35{clip-path:url(#clip-path-38);}.cls-36{fill:#80cbea;}.cls-37{clip-path:url(#clip-path-40);}.cls-38{clip-path:url(#clip-path-42);}.cls-39{fill:#07c3a5;}.cls-40{clip-path:url(#clip-path-44);}.cls-41{clip-path:url(#clip-path-46);}.cls-42{clip-path:url(#clip-path-47);}.cls-43{clip-path:url(#clip-path-48);}.cls-44{clip-path:url(#clip-path-49);}.cls-45{clip-path:url(#clip-path-51);}.cls-46{clip-path:url(#clip-path-53);}.cls-47{clip-path:url(#clip-path-55);}.cls-48{clip-path:url(#clip-path-57);}.cls-49{clip-path:url(#clip-path-59);}.cls-50{clip-path:url(#clip-path-61);}.cls-51{clip-path:url(#clip-path-63);}.cls-52{opacity:0.3;}.cls-53{fill:#60b6eb;}.cls-54{clip-path:url(#clip-path-65);}.cls-55{clip-path:url(#clip-path-66);}.cls-56{clip-path:url(#clip-path-67);}.cls-57{clip-path:url(#clip-path-68);}.cls-58{clip-path:url(#clip-path-69);}.cls-59{clip-path:url(#clip-path-70);}.cls-60{clip-path:url(#clip-path-71);}.cls-61{clip-path:url(#clip-path-72);}.cls-62{clip-path:url(#clip-path-73);}.cls-63{clip-path:url(#clip-path-74);}.cls-64{clip-path:url(#clip-path-75);}.cls-65{clip-path:url(#clip-path-76);}.cls-66{clip-path:url(#clip-path-77);}.cls-67{clip-path:url(#clip-path-78);}.cls-68{clip-path:url(#clip-path-79);}.cls-69{clip-path:url(#clip-path-80);}.cls-70{clip-path:url(#clip-path-81);}.cls-71{clip-path:url(#clip-path-82);}.cls-72{clip-path:url(#clip-path-83);}.cls-73{clip-path:url(#clip-path-84);}.cls-74{clip-path:url(#clip-path-85);}.cls-75{clip-path:url(#clip-path-86);}.cls-76{clip-path:url(#clip-path-87);}.cls-77{clip-path:url(#clip-path-88);}.cls-78{clip-path:url(#clip-path-89);}.cls-79{clip-path:url(#clip-path-90);}.cls-80{clip-path:url(#clip-path-91);}.cls-81{clip-path:url(#clip-path-95);}.cls-82{clip-path:url(#clip-path-96);}.cls-83{clip-path:url(#clip-path-97);}.cls-84{clip-path:url(#clip-path-98);}.cls-85{clip-path:url(#clip-path-99);}.cls-86{clip-path:url(#clip-path-100);}.cls-87{clip-path:url(#clip-path-101);}.cls-88{clip-path:url(#clip-path-102);}.cls-89{clip-path:url(#clip-path-103);}.cls-90{clip-path:url(#clip-path-104);}.cls-91{clip-path:url(#clip-path-105);}.cls-92{clip-path:url(#clip-path-106);}.cls-93{clip-path:url(#clip-path-107);}.cls-94{clip-path:url(#clip-path-108);}.cls-95{clip-path:url(#clip-path-112);}.cls-96{clip-path:url(#clip-path-113);}.cls-97{clip-path:url(#clip-path-114);}.cls-98{clip-path:url(#clip-path-115);}.cls-99{clip-path:url(#clip-path-116);}.cls-100{clip-path:url(#clip-path-117);}.cls-101{clip-path:url(#clip-path-118);}.cls-102{clip-path:url(#clip-path-119);}.cls-103{clip-path:url(#clip-path-120);}.cls-104{clip-path:url(#clip-path-121);}.cls-105{clip-path:url(#clip-path-122);}.cls-106{clip-path:url(#clip-path-123);}.cls-107{clip-path:url(#clip-path-124);}</style><clipPath id="clip-path"><path class="cls-1" d="M111,97.9H31.57a2.51,2.51,0,0,1-2.37-2.63v-33a2.5,2.5,0,0,1,2.37-2.63H111a2.5,2.5,0,0,1,2.37,2.63v33A2.51,2.51,0,0,1,111,97.9"/></clipPath><clipPath id="clip-path-2"><rect class="cls-2" x="-888.8" y="-1475.45" width="1224" height="2239.75"/></clipPath><clipPath id="clip-path-3"><path class="cls-1" d="M108.07,82.08a9.18,9.18,0,1,1-9.17-9.33A9.26,9.26,0,0,1,108.07,82.08Z"/></clipPath><clipPath id="clip-path-5"><rect class="cls-2" x="88.7" y="71.55" width="20.4" height="30.6"/></clipPath><clipPath id="clip-path-6"><rect class="cls-2" x="89.36" y="71.96" width="19.42" height="20.74"/></clipPath><clipPath id="clip-path-7"><rect class="cls-2" x="89.55" y="72.4" width="18.7" height="19.55"/></clipPath><clipPath id="clip-path-8"><path class="cls-1" d="M101.66,89.05c0,.24-1.23,2.9-2.76,2.9s-2.76-2.66-2.76-2.9,1.24-.45,2.76-.45,2.76.2,2.76.45"/></clipPath><clipPath id="clip-path-10"><path class="cls-1" d="M107.39,95.65c.12-1.92-1.44-3.13-3-3.74l-5.41-1.47-5.54,1.47c-2.47.73-3.17,1.82-3,3.74l.4,6.15H107Z"/></clipPath><clipPath id="clip-path-12"><path class="cls-1" d="M93.78,83.5c.36,1.07,1.12,1.54,1.73,1.25s.81-1.34.46-2.32-.74-.87-1.4-1c-1.21-.23-1.12,1.07-.79,2.07"/></clipPath><clipPath id="clip-path-14"><path class="cls-1" d="M104.19,83.5c-.36,1.07-1.13,1.54-1.73,1.25s-.81-1.34-.46-2.32.74-.87,1.4-1c1.2-.23,1.12,1.07.79,2.07"/></clipPath><clipPath id="clip-path-16"><polygon class="cls-1" points="101.42 91.68 99.91 91.68 98.91 92.11 97.92 91.68 96.44 91.68 97.17 85.03 100.69 85.03 101.42 91.68"/></clipPath><clipPath id="clip-path-18"><path class="cls-1" d="M103.78,80.84c0,2.26-1,5.73-2.82,7.32a3.07,3.07,0,0,1-2,.85,3.12,3.12,0,0,1-2-.85c-1.82-1.59-2.81-5.06-2.81-7.32,0-3,1.88-5.48,4.85-5.48s4.85,2.45,4.85,5.48"/></clipPath><clipPath id="clip-path-20"><path class="cls-1" d="M100.69,85H97.17l-.44,4,.16.15a3.13,3.13,0,0,0,2,.86,3.09,3.09,0,0,0,2-.86c.06,0,.11-.1.17-.15Z"/></clipPath><clipPath id="clip-path-22"><path class="cls-1" d="M103.14,81.51s-.26,3.46-1.21,4.3-.16-1.37-3-1.37h0c-2.84,0-2.07,2.22-3,1.37s-1.2-4.3-1.2-4.3h-.61a23.36,23.36,0,0,0,.58,3.2c1,4.73,4.22,4.49,4.24,4.49s3.25.24,4.24-4.49a12.08,12.08,0,0,0,.58-3.2Z"/></clipPath><clipPath id="clip-path-24"><path class="cls-1" d="M94.72,81.51s-.4-2.7.61-3.57a3,3,0,0,0,1.67.57c1.65.19,4.48.11,5.52-1,0,0,.62.39.62,4h.61a6.24,6.24,0,0,0,.21-2.43c-.08-1.88-1-2.17-1-2.17a3.84,3.84,0,0,0-3-2.29l0,.62s-3.16-.62-5.26,1l.68.53s-2.25.84-1.26,4.75Z"/></clipPath><clipPath id="clip-path-26"><path class="cls-1" d="M99.45,85.48c-.52,0-.52-.39-.52-.39h0s0,.36-.52.39-1.37,0-1.37,1,1.7,1.09,1.91,1,1.91-.11,1.91-1-.85-1-1.37-1"/></clipPath><clipPath id="clip-path-28"><polygon class="cls-1" points="98.64 90.61 98.91 92.11 97.7 92 98.64 90.61"/></clipPath><clipPath id="clip-path-30"><polygon class="cls-1" points="99.19 90.61 98.91 92.11 100.15 92.04 99.19 90.61"/></clipPath><clipPath id="clip-path-32"><path class="cls-1" d="M98.64,90.61A9.73,9.73,0,0,1,96.14,89l-.89,2.39,1,2.68,2.36-3.49"/></clipPath><clipPath id="clip-path-34"><path class="cls-1" d="M99.19,90.61A7.39,7.39,0,0,0,101.66,89l.92,2.39-1,2.68-2.36-3.49"/></clipPath><clipPath id="clip-path-36"><path class="cls-1" d="M53.17,71.55H38.42a2.79,2.79,0,0,0-2.76,2.81v15a2.79,2.79,0,0,0,2.76,2.81H53.17a2.79,2.79,0,0,0,2.77-2.81v-15a2.79,2.79,0,0,0-2.77-2.81"/></clipPath><clipPath id="clip-path-38"><path class="cls-1" d="M47.44,81.33l1.68-1.71a.83.83,0,0,0,.21-.54V77.14a.76.76,0,0,0-.75-.76h-5a.75.75,0,0,0-.74.75v2a.79.79,0,0,0,.22.54l1.68,1.71a.77.77,0,0,1,0,1.07l-1.68,1.71a.75.75,0,0,0-.22.53v2a.75.75,0,0,0,.74.76h5a.76.76,0,0,0,.75-.76v-2a.75.75,0,0,0-.22-.53L47.44,82.4a.77.77,0,0,1,0-1.07"/></clipPath><clipPath id="clip-path-40"><path class="cls-1" d="M117.4,67.3H25.15c-1.52,0-2.75-1.55-2.75-3.45V20.59c0-1.9,1.23-3.44,2.75-3.44H117.4c1.52,0,2.75,1.54,2.75,3.44V63.85c0,1.9-1.23,3.45-2.75,3.45"/></clipPath><clipPath id="clip-path-42"><path class="cls-1" d="M50.78,29.05H32.71a3.43,3.43,0,0,0-3.39,3.46V51a3.43,3.43,0,0,0,3.39,3.47H50.78A3.42,3.42,0,0,0,54.17,51V32.51a3.42,3.42,0,0,0-3.39-3.46"/></clipPath><clipPath id="clip-path-44"><path class="cls-1" d="M93.2,40.8a10.74,10.74,0,1,0,10.74-11A10.87,10.87,0,0,0,93.2,40.8Z"/></clipPath><clipPath id="clip-path-46"><rect class="cls-2" x="92.1" y="28.2" width="23.8" height="25.5"/></clipPath><clipPath id="clip-path-47"><rect class="cls-2" x="92.78" y="28.89" width="22.72" height="24.42"/></clipPath><clipPath id="clip-path-48"><rect class="cls-2" x="92.95" y="29.05" width="22.1" height="22.95"/></clipPath><clipPath id="clip-path-49"><path class="cls-1" d="M98.76,38.6s.36,3.7-.24,4.93c-.87,1.78-1.91,3.42-1.91,5.41,0,3,13.77.81,13.77.81s.58.59-.62-3.2a21.87,21.87,0,0,1-.8-7.76Z"/></clipPath><clipPath id="clip-path-51"><path class="cls-1" d="M96.86,49.57a17.91,17.91,0,0,1,7.08-1.49,15.77,15.77,0,0,1,7.14,1.82s-1.73,1.91-7,2.07c-5.09.15-7.17-2.4-7.17-2.4"/></clipPath><clipPath id="clip-path-53"><polygon class="cls-1" points="105.51 42.76 102.36 42.76 101.75 49.16 106.12 49.16 105.51 42.76"/></clipPath><clipPath id="clip-path-55"><path class="cls-1" d="M105.51,42.76h-3.15L102,46.15l.07.08a2.37,2.37,0,0,0,3.65,0l.08-.08Z"/></clipPath><clipPath id="clip-path-57"><path class="cls-1" d="M108.81,38.33A9.34,9.34,0,0,1,106,45a3,3,0,0,1-4.09,0,9.34,9.34,0,0,1-2.83-6.64c0-2.9,1.89-5.25,4.88-5.25s4.87,2.35,4.87,5.25"/></clipPath><clipPath id="clip-path-59"><path class="cls-1" d="M103.71,32.42c-5,.09-4.95,6.18-4.95,6.18a25.71,25.71,0,0,1-.24,4.93c.28-.37,2.11,2.28,2,1-.35-3.62.1-5.52.78-5.94a12.29,12.29,0,0,0,5.61-2.13c1,2.25.6,7.58.6,8.65,0,0,1.27-4.8,1.47-6.28,0,0,.36-6.47-5.25-6.37"/></clipPath><clipPath id="clip-path-61"><path class="cls-1" d="M107,48.85a3.39,3.39,0,0,1-6.34,0c0-.35,1.42-.64,3.17-.64s3.17.29,3.17.64"/></clipPath><clipPath id="clip-path-63"><path class="cls-1" d="M39.71,108c2.73-.17,5.46-.28,8.2-.39l4.1-.13,4.1-.1c1.37,0,2.73,0,4.1-.08l4.1,0,4.1,0c1.37,0,2.73,0,4.1,0,5.47,0,10.93,0,16.4.14s10.94.25,16.4.54c.22,0,.4.29.39.61s-.18.56-.39.57c-5.46.29-10.93.44-16.4.54s-10.93.14-16.4.14c-1.37,0-2.73,0-4.1,0l-4.1,0-4.1-.06c-1.37,0-2.73,0-4.1-.08l-4.1-.1-4.1-.13c-2.74-.11-5.47-.21-8.2-.39-.18,0-.32-.24-.31-.5s.14-.44.31-.46"/></clipPath><clipPath id="clip-path-65"><path class="cls-1" d="M-351.71,269c2.73-.17,5.46-.28,8.2-.39l4.1-.13,4.1-.1c1.37,0,2.73-.05,4.1-.08l4.1,0,4.1,0c1.37,0,2.73,0,4.1,0,5.47,0,10.93,0,16.4.14s10.94.25,16.4.54c.22,0,.4.29.39.61s-.18.56-.39.57c-5.46.29-10.93.44-16.4.54s-10.93.14-16.4.14c-1.37,0-2.73,0-4.1,0l-4.1,0-4.1-.06c-1.37,0-2.73,0-4.1-.08l-4.1-.1-4.1-.13c-2.74-.11-5.47-.21-8.2-.39-.18,0-.32-.24-.31-.5s.14-.44.31-.46"/></clipPath><clipPath id="clip-path-66"><path class="cls-1" d="M39.29,269c2.73-.17,5.46-.28,8.2-.39l4.1-.13,4.1-.1c1.37,0,2.73-.05,4.1-.08l4.1,0,4.1,0c1.37,0,2.73,0,4.1,0,5.47,0,10.93,0,16.4.14s10.94.25,16.4.54c.22,0,.4.29.39.61s-.18.56-.39.57c-5.46.29-10.93.44-16.4.54s-10.93.14-16.4.14c-1.37,0-2.73,0-4.1,0l-4.1,0-4.1-.06c-1.37,0-2.73,0-4.1-.08l-4.1-.1-4.1-.13c-2.74-.11-5.47-.21-8.2-.39-.18,0-.32-.24-.31-.5s.14-.44.31-.46"/></clipPath><clipPath id="clip-path-67"><path class="cls-1" d="M16.88,219.8a5.1,5.1,0,1,1-5.1-5.1,5.1,5.1,0,0,1,5.1,5.1"/></clipPath><clipPath id="clip-path-68"><path class="cls-1" d="M-351.71,108c2.73-.17,5.46-.28,8.2-.39l4.1-.13,4.1-.1c1.37,0,2.73,0,4.1-.08l4.1,0,4.1,0c1.37,0,2.73,0,4.1,0,5.47,0,10.93,0,16.4.14s10.94.25,16.4.54c.22,0,.4.29.39.61s-.18.56-.39.57c-5.46.29-10.93.44-16.4.54s-10.93.14-16.4.14c-1.37,0-2.73,0-4.1,0l-4.1,0-4.1-.06c-1.37,0-2.73,0-4.1-.08l-4.1-.1-4.1-.13c-2.74-.11-5.47-.21-8.2-.39-.18,0-.32-.24-.31-.5s.14-.44.31-.46"/></clipPath><clipPath id="clip-path-69"><rect class="cls-2" x="-366.47" y="20.55" width="93.5" height="76.5" rx="3.4"/></clipPath><clipPath id="clip-path-70"><path class="cls-1" d="M-349.47,27.77a3.83,3.83,0,0,1-3.83,3.83,3.83,3.83,0,0,1-3.82-3.83A3.82,3.82,0,0,1-353.3,24a3.82,3.82,0,0,1,3.83,3.82"/></clipPath><clipPath id="clip-path-71"><path class="cls-1" d="M-332.47,27.77a3.83,3.83,0,0,1-3.83,3.83,3.83,3.83,0,0,1-3.82-3.83A3.82,3.82,0,0,1-336.3,24a3.82,3.82,0,0,1,3.83,3.82"/></clipPath><clipPath id="clip-path-72"><path class="cls-1" d="M-315.47,27.77a3.83,3.83,0,0,1-3.83,3.83,3.83,3.83,0,0,1-3.82-3.83A3.82,3.82,0,0,1-319.3,24a3.82,3.82,0,0,1,3.83,3.82"/></clipPath><clipPath id="clip-path-73"><path class="cls-1" d="M-298.47,27.77a3.83,3.83,0,0,1-3.83,3.83,3.83,3.83,0,0,1-3.82-3.83A3.82,3.82,0,0,1-302.3,24a3.82,3.82,0,0,1,3.83,3.82"/></clipPath><clipPath id="clip-path-74"><path class="cls-1" d="M-281.47,27.77a3.83,3.83,0,0,1-3.83,3.83,3.83,3.83,0,0,1-3.82-3.83A3.82,3.82,0,0,1-285.3,24a3.82,3.82,0,0,1,3.83,3.82"/></clipPath><clipPath id="clip-path-75"><path class="cls-1" d="M-257,55.4h-49c-.55,0-1-.65-1-1.45V40.69c0-.8.45-1.44,1-1.44h49c.55,0,1,.64,1,1.44V54c0,.8-.45,1.45-1,1.45"/></clipPath><clipPath id="clip-path-76"><path class="cls-1" d="M-291.67,47.75a5.1,5.1,0,0,1-5.1,5.1,5.1,5.1,0,0,1-5.1-5.1,5.1,5.1,0,0,1,5.1-5.1,5.1,5.1,0,0,1,5.1,5.1"/></clipPath><clipPath id="clip-path-77"><path class="cls-1" d="M-339.2,66.45h-47.75A1.55,1.55,0,0,1-388.57,65V51.74a1.54,1.54,0,0,1,1.62-1.44h47.75a1.54,1.54,0,0,1,1.63,1.44V65a1.55,1.55,0,0,1-1.63,1.45"/></clipPath><clipPath id="clip-path-78"><path class="cls-1" d="M-374.12,58.8a5.1,5.1,0,0,1-5.1,5.1,5.1,5.1,0,0,1-5.1-5.1,5.1,5.1,0,0,1,5.1-5.1,5.1,5.1,0,0,1,5.1,5.1"/></clipPath><clipPath id="clip-path-79"><path class="cls-1" d="M-316.63,80.05A1.42,1.42,0,0,1-318,78.6V65.34a1.41,1.41,0,0,1,1.39-1.44h48.22A1.42,1.42,0,0,1-267,65.34V78.6a1.43,1.43,0,0,1-1.39,1.45Z"/></clipPath><clipPath id="clip-path-80"><path class="cls-1" d="M-303.57,72.4a5.1,5.1,0,0,1-5.1,5.1,5.1,5.1,0,0,1-5.1-5.1,5.1,5.1,0,0,1,5.1-5.1,5.1,5.1,0,0,1,5.1,5.1"/></clipPath><clipPath id="clip-path-81"><path class="cls-1" d="M-156.71,269c2.73-.17,5.46-.28,8.2-.39l4.1-.13,4.1-.1c1.37,0,2.73-.05,4.1-.08l4.1,0,4.1,0c1.37,0,2.73,0,4.1,0,5.47,0,10.93,0,16.4.14s10.94.25,16.4.54c.22,0,.4.29.39.61s-.18.56-.39.57c-5.46.29-10.93.44-16.4.54s-10.93.14-16.4.14c-1.37,0-2.73,0-4.1,0l-4.1,0-4.1-.06c-1.37,0-2.73,0-4.1-.08l-4.1-.1-4.1-.13c-2.74-.11-5.47-.21-8.2-.39-.18,0-.32-.24-.31-.5s.14-.44.31-.46"/></clipPath><clipPath id="clip-path-82"><path class="cls-1" d="M-157.73,108.23c2.73-.18,5.46-.28,8.2-.39l4.1-.13,4.1-.1c1.36,0,2.73-.06,4.1-.08l4.1-.06,4.1,0c1.37,0,2.73,0,4.1,0,5.47,0,10.93,0,16.4.14s10.93.25,16.4.54c.22,0,.39.28.39.61s-.18.56-.39.57c-5.47.29-10.93.43-16.4.54s-10.93.14-16.4.14c-1.37,0-2.73,0-4.1,0l-4.1,0-4.1,0c-1.37,0-2.74,0-4.1-.08l-4.1-.1-4.1-.13c-2.74-.11-5.47-.22-8.2-.39-.18,0-.32-.24-.31-.5s.14-.45.31-.46"/></clipPath><clipPath id="clip-path-83"><path class="cls-1" d="M-79.44,54.41h-88.2a2.64,2.64,0,0,1-2.63-2.64V18.55a2.64,2.64,0,0,1,2.63-2.64h88.2a2.64,2.64,0,0,1,2.63,2.64V51.77a2.64,2.64,0,0,1-2.63,2.64"/></clipPath><clipPath id="clip-path-84"><path class="cls-1" d="M-79.44,100.35h-88.2a2.64,2.64,0,0,1-2.63-2.64V64.49a2.64,2.64,0,0,1,2.63-2.64h88.2a2.64,2.64,0,0,1,2.63,2.64V97.71a2.64,2.64,0,0,1-2.63,2.64"/></clipPath><clipPath id="clip-path-85"><path class="cls-1" d="M-82.55,81.3A14.5,14.5,0,0,1-97,95.81,14.5,14.5,0,0,1-111.53,81.3,14.51,14.51,0,0,1-97,66.78,14.51,14.51,0,0,1-82.55,81.3"/></clipPath><clipPath id="clip-path-86"><path class="cls-1" d="M-118.48,69.94a2.38,2.38,0,0,1-3.34,1.36c-1.39-.5-1.9-1.13-1.23-3s1.46-1.92,2.85-1.42,2.28,1.53,1.72,3.08"/></clipPath><clipPath id="clip-path-87"><path class="cls-1" d="M-120.18,69.3a6.19,6.19,0,0,1,1.36-2.72c.3-.36.81-1,1.34-.93s.59.77.27,1.15a5.08,5.08,0,0,0-1.15,2.59,1,1,0,0,1-.82.94.92.92,0,0,1-1-1"/></clipPath><clipPath id="clip-path-88"><path class="cls-1" d="M-98.67,90-115,86.81l-.41-.08a2.48,2.48,0,0,1-1.86-1.65l-4.63-14.57,2.65-1.14L-113,81.2h0l15.38,1.3Z"/></clipPath><clipPath id="clip-path-89"><path class="cls-1" d="M-107.19,88.4l7.52,1.69a4.26,4.26,0,0,0,4.52-2.93c.73-2.24,2.07-3.53-.17-4.26-.79-.25-1.73-1-2.48-.76l-8.8-.5Z"/></clipPath><clipPath id="clip-path-90"><ellipse class="cls-2" cx="-97.02" cy="81.33" rx="14.49" ry="14.51"/></clipPath><clipPath id="clip-path-91"><path class="cls-1" d="M-111.52,81.33A14.51,14.51,0,0,0-97,95.85,14.51,14.51,0,0,0-82.53,81.33,14.5,14.5,0,0,0-97,66.82a14.51,14.51,0,0,0-14.5,14.51"/></clipPath><clipPath id="clip-path-95"><polygon class="cls-1" points="-93.88 83.56 -100.01 83.11 -98.42 74.55 -93.7 73.85 -93.88 83.56"/></clipPath><clipPath id="clip-path-96"><path class="cls-1" d="M-99.62,81c.65-.25,4.89-1.7,6.6-3.85l-6.16,1.47Z"/></clipPath><clipPath id="clip-path-97"><path class="cls-1" d="M-89.06,74.43a6,6,0,0,1-2.85,2.67c-.84.37-1.08,1.13-2,1.38-1.43.41-4.33,1-5.21.76-1.27-.3-2.72-.78-3.09-1.66a3.27,3.27,0,0,1-.09-1.6,12.44,12.44,0,0,1,.57-2.28,34.6,34.6,0,0,1,2.1-4.86c1.54-2.91,5.54-3.83,8.46-2.29s3.62,5,2.08,7.88"/></clipPath><clipPath id="clip-path-98"><path class="cls-1" d="M-94.86,76.28s-1.25,2.37-5.87,2.46a11.13,11.13,0,0,0,1.64.5c.86.21,3.7-.33,5.14-.74Z"/></clipPath><clipPath id="clip-path-99"><path class="cls-1" d="M-99.89,69.63l-2.49,2.45a.54.54,0,0,0,0,.79l.88.7Z"/></clipPath><clipPath id="clip-path-100"><path class="cls-1" d="M-97.09,66.34l2.19,1.16s2.21.71.56,2.85a2.39,2.39,0,0,0-2.12,3l1.25,2.53s.19,2,1.28,2.71A8.58,8.58,0,0,0-88.53,74c1.83-3.46.12-6.42-2.74-7.93a5.41,5.41,0,0,0-5.82.26"/></clipPath><clipPath id="clip-path-101"><path class="cls-1" d="M-94.06,74.9a1.63,1.63,0,0,1-2.18.8,1.79,1.79,0,0,1-.22-2.4,1.63,1.63,0,0,1,2.18-.8,1.77,1.77,0,0,1,.22,2.4"/></clipPath><clipPath id="clip-path-102"><path class="cls-1" d="M-136,35.32a14.5,14.5,0,0,1-14.48,14.51A14.5,14.5,0,0,1-165,35.32a14.49,14.49,0,0,1,14.49-14.51A14.49,14.49,0,0,1-136,35.32"/></clipPath><clipPath id="clip-path-103"><path class="cls-1" d="M-146.27,38l10.43,6h0l10.41-5.38,1.05,1.69-10.44,7.77a1.76,1.76,0,0,1-1.79.19l-.24-.11-11.88-5.42Z"/></clipPath><clipPath id="clip-path-104"><path class="cls-1" d="M-146,44.21l3.14,1.29,2.2-4.38-4.15-2.61a18.12,18.12,0,0,0-2.73-1.45Z"/></clipPath><clipPath id="clip-path-105"><path class="cls-1" d="M-127,40s-1.58-3.31-.92-3.68c.5-.27,1.3,1.3,1.3,1.3Z"/></clipPath><clipPath id="clip-path-106"><path class="cls-1" d="M-125.62,34.49c-1,1-1.55,5.71-1.55,5.71l2.14.61.17-.05a2,2,0,0,0,1.19-1.68,13.5,13.5,0,0,1,.7-3.55c.5-1.35-1.68-2-2.65-1"/></clipPath><clipPath id="clip-path-107"><path class="cls-1" d="M-165,35.32a14.51,14.51,0,0,0,14.5,14.52A14.51,14.51,0,0,0-136,35.32a14.51,14.51,0,0,0-14.5-14.52A14.51,14.51,0,0,0-165,35.32"/></clipPath><clipPath id="clip-path-108"><path class="cls-1" d="M-165,35.32a14.51,14.51,0,0,0,14.5,14.52A14.51,14.51,0,0,0-136,35.32a14.51,14.51,0,0,0-14.5-14.52A14.51,14.51,0,0,0-165,35.32Z"/></clipPath><clipPath id="clip-path-112"><polygon class="cls-1" points="-153.93 37.77 -149.16 39 -148.04 31.59 -151.41 29.83 -153.93 37.77"/></clipPath><clipPath id="clip-path-113"><path class="cls-1" d="M-148.06,31.76l-.14-.25-2.74-1.43-.56,0-.32,1s.52,4.46,2.89,6.37Z"/></clipPath><clipPath id="clip-path-114"><path class="cls-1" d="M-152.65,24.92c-.52-.14-.36-.68-1.15-.57s-1.51.63-1.39,2.54a12.22,12.22,0,0,0,.51,2.13,5.45,5.45,0,0,1,.17,3.12,3.2,3.2,0,0,1-1,1.46c-.76.63-.6.23-.52-.47.26-2.49-1.8-4.37-2.36-6.69-.45-1.92.18-4.55,2.35-5.1a3.1,3.1,0,0,1,3.17,1.41,3.27,3.27,0,0,1,.69,1.54c0,.33-.23.41-.51.63"/></clipPath><clipPath id="clip-path-115"><path class="cls-1" d="M-153.38,25.06l-.15-.19a.85.85,0,0,1-.05-.95l.35-.56a.83.83,0,0,1,.87-.37l.24.05a.4.4,0,0,1,.25.6l-.86,1.38a.4.4,0,0,1-.65,0"/></clipPath><clipPath id="clip-path-116"><path class="cls-1" d="M-153.07,25.6a5.41,5.41,0,0,0,0,3.6,19.45,19.45,0,0,0,1.37,2.11c.65,1.21,1.12,3.42,1.8,3.91,1,.74,2.12,1.53,2.94,1.18,1.75-.75,3.8-5.9,4.28-7.36.95-2.88-1-5.8-3.9-6.75a5,5,0,0,0-6.54,3.31"/></clipPath><clipPath id="clip-path-117"><path class="cls-1" d="M-143.25,30l-1.39,3.62h.94a.54.54,0,0,0,.54-.6,18.56,18.56,0,0,1-.09-3"/></clipPath><clipPath id="clip-path-118"><path class="cls-1" d="M-151.15,32l-.22-.08c.51,1.24.94,2.91,1.52,3.33.91.65,1.86,1.34,2.64,1.25a7.22,7.22,0,0,1-3.94-4.5"/></clipPath><clipPath id="clip-path-119"><path class="cls-1" d="M-142.56,25.83a5.29,5.29,0,0,0-3-1.18c-1.31,0-2.94.48-2,4.33,0,0-2.7,3.72-4.69,3.76-1-.56-2.27-5.14-1.06-7.92s3.46-4.35,6.65-3.3a5.56,5.56,0,0,1,4.09,4.31"/></clipPath><clipPath id="clip-path-120"><path class="cls-1" d="M-150.2,29.22a1.51,1.51,0,0,0,.87,2,1.64,1.64,0,0,0,1.73-1.38,1.5,1.5,0,0,0-.86-2,1.64,1.64,0,0,0-1.74,1.38"/></clipPath><clipPath id="clip-path-121"><path class="cls-1" d="M-155.55,45.72a4.54,4.54,0,0,1-4.54,4.55,4.54,4.54,0,0,1-4.54-4.55,4.54,4.54,0,0,1,4.54-4.54,4.54,4.54,0,0,1,4.54,4.54"/></clipPath><clipPath id="clip-path-122"><path class="cls-1" d="M-161.73,47.94l-1-.95a.61.61,0,0,1,0-.85.61.61,0,0,1,.85,0l.59.59,2.89-2.89a.61.61,0,0,1,.85,0,.61.61,0,0,1,0,.85l-3.25,3.25a.69.69,0,0,1-1,0"/></clipPath><clipPath id="clip-path-123"><path class="cls-1" d="M-83.23,91.67a4.55,4.55,0,0,1-4.54,4.55,4.55,4.55,0,0,1-4.54-4.55,4.55,4.55,0,0,1,4.54-4.55,4.55,4.55,0,0,1,4.54,4.55"/></clipPath><clipPath id="clip-path-124"><path class="cls-1" d="M-85.6,92.85l-1.17-1.18,1.17-1.18a.66.66,0,0,0,0-.94.66.66,0,0,0-.94,0l-1.17,1.18-1.18-1.18a.66.66,0,0,0-.94,0,.66.66,0,0,0,0,.94l1.17,1.18-1.17,1.18a.66.66,0,0,0,0,.94.66.66,0,0,0,.94,0l1.18-1.18,1.17,1.18a.66.66,0,0,0,.94,0,.66.66,0,0,0,0-.94"/></clipPath></defs><title>tasking</title><g class="cls-4"><g class="cls-5"><g class="cls-6"><rect class="cls-7" x="24.95" y="55.4" width="92.65" height="46.75"/></g></g></g><path class="cls-8" d="M73.38,77.32H62.48a.78.78,0,0,1,0-1.56h10.9a.78.78,0,1,1,0,1.56Z"/><path class="cls-8" d="M84,82.16H62.48a.78.78,0,1,1,0-1.56H84a.78.78,0,0,1,0,1.56Z"/><path class="cls-8" d="M70.85,88H62.48a.78.78,0,1,1,0-1.55h8.37a.78.78,0,1,1,0,1.55Z"/><path class="cls-8" d="M78.72,88H74.53a.78.78,0,1,1,0-1.55h4.19a.78.78,0,1,1,0,1.55Z"/><g class="cls-9"><g class="cls-5"><g class="cls-10"><g class="cls-11"><g class="cls-12"><g class="cls-13"><rect class="cls-14" x="85.11" y="67.71" width="27.92" height="29.24"/></g></g><g class="cls-15"><g class="cls-13"><rect class="cls-16" x="91.89" y="84.35" width="14.02" height="11.85"/></g></g><g class="cls-17"><g class="cls-13"><rect class="cls-8" x="86.08" y="86.19" width="25.57" height="19.86"/></g></g><g class="cls-18"><g class="cls-13"><rect class="cls-19" x="89.32" y="77.16" width="11.07" height="11.93"/></g></g><g class="cls-20"><g class="cls-13"><rect class="cls-19" x="97.58" y="77.16" width="11.07" height="11.93"/></g></g><g class="cls-21"><g class="cls-13"><rect class="cls-22" x="92.19" y="80.78" width="13.48" height="15.58"/></g></g><g class="cls-23"><g class="cls-13"><rect class="cls-22" x="89.83" y="71.11" width="18.2" height="22.14"/></g></g><g class="cls-24"><g class="cls-13"><rect class="cls-19" x="92.48" y="80.78" width="12.9" height="13.5"/></g></g><g class="cls-25"><g class="cls-13"><rect class="cls-26" x="89.86" y="77.26" width="18.14" height="16.19"/></g></g><g class="cls-27"><g class="cls-13"><rect class="cls-26" x="89.61" y="70.37" width="18.61" height="15.39"/></g></g><g class="cls-28"><g class="cls-13"><rect class="cls-22" x="92.75" y="80.84" width="12.32" height="10.98"/></g></g><g class="cls-29"><g class="cls-13"><rect class="cls-16" x="93.45" y="86.36" width="9.71" height="10"/></g></g><g class="cls-30"><g class="cls-13"><rect class="cls-16" x="94.66" y="86.36" width="9.74" height="10"/></g></g><g class="cls-31"><g class="cls-13"><rect class="cls-32" x="91" y="84.78" width="11.89" height="13.57"/></g></g><g class="cls-33"><g class="cls-13"><rect class="cls-32" x="94.94" y="84.78" width="11.89" height="13.57"/></g></g></g></g></g></g><g class="cls-34"><g class="cls-5"><rect class="cls-8" x="31.41" y="67.3" width="28.78" height="29.13"/></g></g><g class="cls-35"><g class="cls-5"><rect class="cls-36" x="38.62" y="72.13" width="14.97" height="19.47"/></g></g><g class="cls-37"><g class="cls-5"><rect class="cls-7" x="18.15" y="12.9" width="106.25" height="58.65"/></g></g><path class="cls-8" d="M73.75,36.12H61.08a.9.9,0,0,1,0-1.79H73.75a.9.9,0,0,1,0,1.79Z"/><path class="cls-8" d="M86,41.77h-25a.89.89,0,0,1,0-1.78H86a.89.89,0,1,1,0,1.78Z"/><path class="cls-8" d="M70.81,48.56H61.08a.9.9,0,0,1,0-1.79h9.73a.9.9,0,1,1,0,1.79Z"/><path class="cls-8" d="M80,48.56H75.08a.9.9,0,0,1,0-1.79H80a.9.9,0,1,1,0,1.79Z"/><g class="cls-38"><g class="cls-5"><rect class="cls-8" x="25.07" y="24.8" width="33.35" height="33.93"/></g></g><path class="cls-39" d="M40.72,48.2,36,44.76a1.52,1.52,0,1,1,1.78-2.47l2.51,1.82,6.5-7.46a1.52,1.52,0,0,1,2.3,2Z"/><g class="cls-40"><g class="cls-5"><g class="cls-10"><g class="cls-41"><g class="cls-42"><g class="cls-43"><rect class="cls-14" x="88.53" y="24.64" width="31.22" height="32.92"/></g></g><g class="cls-44"><g class="cls-43"><rect class="cls-26" x="92.36" y="34.35" width="22.41" height="20.42"/></g></g><g class="cls-45"><g class="cls-43"><rect class="cls-8" x="92.61" y="43.83" width="22.71" height="12.4"/></g></g><g class="cls-46"><g class="cls-43"><rect class="cls-22" x="97.5" y="38.51" width="12.87" height="14.9"/></g></g><g class="cls-47"><g class="cls-43"><rect class="cls-19" x="97.79" y="38.51" width="12.3" height="12.84"/></g></g><g class="cls-48"><g class="cls-43"><rect class="cls-22" x="94.81" y="28.83" width="18.24" height="21.2"/></g></g><g class="cls-49"><g class="cls-43"><rect class="cls-26" x="94.27" y="28.17" width="18.95" height="21.15"/></g></g><g class="cls-50"><g class="cls-43"><rect class="cls-22" x="96.43" y="43.96" width="14.83" height="11.33"/></g></g></g></g></g></g><g class="cls-51"><g class="cls-5"><g class="cls-52"><rect class="cls-53" x="35.15" y="103" width="74.8" height="11.05"/></g></g></g></svg>