<svg id="Layer_1" data-name="Layer 1" xmlns="http://www.w3.org/2000/svg" xmlns:xlink="http://www.w3.org/1999/xlink" viewBox="0 0 140 120"><defs><style>.cls-1,.cls-2,.cls-3{fill:none;}.cls-1{clip-rule:evenodd;}.cls-2{fill-rule:evenodd;}.cls-4{clip-path:url(#clip-path);}.cls-5{clip-path:url(#clip-path-2);}.cls-6{clip-path:url(#clip-path-3);}.cls-7{clip-path:url(#clip-path-4);}.cls-8{clip-path:url(#clip-path-5);}.cls-9{clip-path:url(#clip-path-6);}.cls-10{clip-path:url(#clip-path-7);}.cls-11{clip-path:url(#clip-path-8);}.cls-12{clip-path:url(#clip-path-9);}.cls-13{clip-path:url(#clip-path-10);}.cls-14{clip-path:url(#clip-path-11);}.cls-15{clip-path:url(#clip-path-12);}.cls-16{clip-path:url(#clip-path-13);}.cls-17{clip-path:url(#clip-path-14);}.cls-18{clip-path:url(#clip-path-15);}.cls-19{clip-path:url(#clip-path-16);}.cls-20{clip-path:url(#clip-path-17);}.cls-21{clip-path:url(#clip-path-18);}.cls-22{clip-path:url(#clip-path-19);}.cls-23{clip-path:url(#clip-path-20);}.cls-24{clip-path:url(#clip-path-21);}.cls-25{clip-path:url(#clip-path-22);}.cls-26{clip-path:url(#clip-path-23);}.cls-27{clip-path:url(#clip-path-24);}.cls-28{clip-path:url(#clip-path-25);}.cls-29{clip-path:url(#clip-path-26);}.cls-30{opacity:0.3;}.cls-31{fill:#60b6eb;}.cls-32{fill:#c8e6f8;}.cls-33{fill:#fff;}.cls-34{fill:#f0faff;}.cls-35{fill:#d3ebfa;}.cls-36{fill:#67b9ec;}.cls-37{fill:#259be4;}.cls-38{fill:#87c4ea;}.cls-39{fill:#3cc3a9;}.cls-40{fill:#78ddc9;}.cls-41{clip-path:url(#clip-path-27);}.cls-42{fill:#0d578c;}.cls-43{fill:#bee1f7;}.cls-44{fill:#ffb682;}.cls-45{fill:#eb9b78;}.cls-46{clip-path:url(#clip-path-28);}.cls-47{clip-path:url(#clip-path-29);}.cls-48{clip-path:url(#clip-path-30);}.cls-49{clip-path:url(#clip-path-31);}.cls-50{clip-path:url(#clip-path-32);}.cls-51{clip-path:url(#clip-path-33);}.cls-52{clip-path:url(#clip-path-34);}.cls-53{clip-path:url(#clip-path-35);}.cls-54{clip-path:url(#clip-path-36);}.cls-55{clip-path:url(#clip-path-37);}.cls-56{clip-path:url(#clip-path-41);}.cls-57{clip-path:url(#clip-path-42);}.cls-58{clip-path:url(#clip-path-43);}.cls-59{clip-path:url(#clip-path-44);}.cls-60{clip-path:url(#clip-path-45);}.cls-61{clip-path:url(#clip-path-46);}.cls-62{clip-path:url(#clip-path-47);}.cls-63{clip-path:url(#clip-path-48);}.cls-64{clip-path:url(#clip-path-49);}.cls-65{clip-path:url(#clip-path-50);}.cls-66{clip-path:url(#clip-path-51);}.cls-67{clip-path:url(#clip-path-52);}.cls-68{clip-path:url(#clip-path-53);}.cls-69{clip-path:url(#clip-path-54);}.cls-70{clip-path:url(#clip-path-58);}.cls-71{clip-path:url(#clip-path-59);}.cls-72{clip-path:url(#clip-path-60);}.cls-73{clip-path:url(#clip-path-61);}.cls-74{clip-path:url(#clip-path-62);}.cls-75{clip-path:url(#clip-path-63);}.cls-76{clip-path:url(#clip-path-64);}.cls-77{clip-path:url(#clip-path-65);}.cls-78{clip-path:url(#clip-path-66);}.cls-79{clip-path:url(#clip-path-67);}.cls-80{clip-path:url(#clip-path-68);}.cls-81{clip-path:url(#clip-path-69);}.cls-82{clip-path:url(#clip-path-70);}</style><clipPath id="clip-path"><path class="cls-1" d="M307-63.1H227.57a2.51,2.51,0,0,1-2.37-2.63v-33a2.5,2.5,0,0,1,2.37-2.63H307a2.5,2.5,0,0,1,2.37,2.63v33A2.51,2.51,0,0,1,307-63.1"/></clipPath><clipPath id="clip-path-2"><path class="cls-1" d="M304.07-78.92a9.26,9.26,0,0,1-9.17,9.33,9.26,9.26,0,0,1-9.18-9.33,9.25,9.25,0,0,1,9.18-9.33A9.25,9.25,0,0,1,304.07-78.92Z"/></clipPath><clipPath id="clip-path-3"><path class="cls-1" d="M249.17-89.45H234.42a2.79,2.79,0,0,0-2.76,2.81v15a2.79,2.79,0,0,0,2.76,2.81h14.75a2.79,2.79,0,0,0,2.77-2.81v-15a2.79,2.79,0,0,0-2.77-2.81"/></clipPath><clipPath id="clip-path-4"><path class="cls-1" d="M243.44-79.67l1.68-1.71a.83.83,0,0,0,.21-.54v-1.94a.76.76,0,0,0-.75-.76h-5a.75.75,0,0,0-.74.75v2a.79.79,0,0,0,.22.54l1.68,1.71a.77.77,0,0,1,0,1.07l-1.68,1.71a.75.75,0,0,0-.22.53v2a.75.75,0,0,0,.74.76h5a.76.76,0,0,0,.75-.76v-2a.75.75,0,0,0-.22-.53l-1.68-1.71a.77.77,0,0,1,0-1.07"/></clipPath><clipPath id="clip-path-5"><path class="cls-1" d="M313.4-93.7H221.15c-1.52,0-2.75-1.55-2.75-3.45v-43.26c0-1.9,1.23-3.44,2.75-3.44H313.4c1.52,0,2.75,1.54,2.75,3.44v43.26c0,1.9-1.23,3.45-2.75,3.45"/></clipPath><clipPath id="clip-path-6"><path class="cls-1" d="M246.78-131.95H228.71a3.43,3.43,0,0,0-3.39,3.46V-110a3.43,3.43,0,0,0,3.39,3.47h18.07a3.42,3.42,0,0,0,3.39-3.47v-18.5a3.42,3.42,0,0,0-3.39-3.46"/></clipPath><clipPath id="clip-path-7"><path class="cls-1" d="M289.2-120.2a10.87,10.87,0,0,0,10.74,11,10.87,10.87,0,0,0,10.73-11,10.87,10.87,0,0,0-10.73-11A10.87,10.87,0,0,0,289.2-120.2Z"/></clipPath><clipPath id="clip-path-8"><path class="cls-1" d="M235.71-53c2.73-.17,5.46-.28,8.2-.39l4.1-.13,4.1-.1c1.37,0,2.73-.05,4.1-.08l4.1-.05,4.1,0c1.37,0,2.73,0,4.1,0,5.47,0,10.93,0,16.4.14s10.94.25,16.4.54c.22,0,.4.29.39.61s-.18.56-.39.57c-5.46.29-10.93.44-16.4.54s-10.93.14-16.4.14c-1.37,0-2.73,0-4.1,0l-4.1,0-4.1-.06c-1.37,0-2.73,0-4.1-.08l-4.1-.1-4.1-.13c-2.74-.11-5.47-.21-8.2-.39-.18,0-.32-.24-.31-.5s.14-.44.31-.46"/></clipPath><clipPath id="clip-path-9"><path class="cls-1" d="M-155.71,108c2.73-.17,5.46-.28,8.2-.39l4.1-.13,4.1-.1c1.37,0,2.73,0,4.1-.08l4.1,0,4.1,0c1.37,0,2.73,0,4.1,0,5.47,0,10.93,0,16.4.14s10.94.25,16.4.54c.22,0,.4.29.39.61s-.18.56-.39.57c-5.46.29-10.93.44-16.4.54s-10.93.14-16.4.14c-1.37,0-2.73,0-4.1,0l-4.1,0-4.1-.06c-1.37,0-2.73,0-4.1-.08l-4.1-.1-4.1-.13c-2.74-.11-5.47-.21-8.2-.39-.18,0-.32-.24-.31-.5s.14-.44.31-.46"/></clipPath><clipPath id="clip-path-10"><path class="cls-1" d="M235.29,108c2.73-.17,5.46-.28,8.2-.39l4.1-.13,4.1-.1c1.37,0,2.73,0,4.1-.08l4.1,0,4.1,0c1.37,0,2.73,0,4.1,0,5.47,0,10.93,0,16.4.14s10.94.25,16.4.54c.22,0,.4.29.39.61s-.18.56-.39.57c-5.46.29-10.93.44-16.4.54s-10.93.14-16.4.14c-1.37,0-2.73,0-4.1,0l-4.1,0-4.1-.06c-1.37,0-2.73,0-4.1-.08l-4.1-.1-4.1-.13c-2.74-.11-5.47-.21-8.2-.39-.18,0-.32-.24-.31-.5s.14-.44.31-.46"/></clipPath><clipPath id="clip-path-11"><path class="cls-1" d="M212.88,58.8a5.1,5.1,0,1,1-5.1-5.1,5.1,5.1,0,0,1,5.1,5.1"/></clipPath><clipPath id="clip-path-12"><path class="cls-1" d="M-155.71-53c2.73-.17,5.46-.28,8.2-.39l4.1-.13,4.1-.1c1.37,0,2.73-.05,4.1-.08l4.1-.05,4.1,0c1.37,0,2.73,0,4.1,0,5.47,0,10.93,0,16.4.14s10.94.25,16.4.54c.22,0,.4.29.39.61s-.18.56-.39.57c-5.46.29-10.93.44-16.4.54s-10.93.14-16.4.14c-1.37,0-2.73,0-4.1,0l-4.1,0-4.1-.06c-1.37,0-2.73,0-4.1-.08l-4.1-.1-4.1-.13c-2.74-.11-5.47-.21-8.2-.39-.18,0-.32-.24-.31-.5s.14-.44.31-.46"/></clipPath><clipPath id="clip-path-13"><rect class="cls-3" x="-170.47" y="-140.45" width="93.5" height="76.5" rx="3.4"/></clipPath><clipPath id="clip-path-14"><path class="cls-1" d="M-153.47-133.23a3.83,3.83,0,0,1-3.83,3.83,3.83,3.83,0,0,1-3.82-3.83A3.82,3.82,0,0,1-157.3-137a3.82,3.82,0,0,1,3.83,3.82"/></clipPath><clipPath id="clip-path-15"><path class="cls-1" d="M-136.47-133.23a3.83,3.83,0,0,1-3.83,3.83,3.83,3.83,0,0,1-3.82-3.83A3.82,3.82,0,0,1-140.3-137a3.82,3.82,0,0,1,3.83,3.82"/></clipPath><clipPath id="clip-path-16"><path class="cls-1" d="M-119.47-133.23a3.83,3.83,0,0,1-3.83,3.83,3.83,3.83,0,0,1-3.82-3.83A3.82,3.82,0,0,1-123.3-137a3.82,3.82,0,0,1,3.83,3.82"/></clipPath><clipPath id="clip-path-17"><path class="cls-1" d="M-102.47-133.23a3.83,3.83,0,0,1-3.83,3.83,3.83,3.83,0,0,1-3.82-3.83A3.82,3.82,0,0,1-106.3-137a3.82,3.82,0,0,1,3.83,3.82"/></clipPath><clipPath id="clip-path-18"><path class="cls-1" d="M-85.47-133.23a3.83,3.83,0,0,1-3.83,3.83,3.83,3.83,0,0,1-3.82-3.83A3.82,3.82,0,0,1-89.3-137a3.82,3.82,0,0,1,3.83,3.82"/></clipPath><clipPath id="clip-path-19"><path class="cls-1" d="M-61-105.6h-49c-.55,0-1-.65-1-1.45v-13.26c0-.8.45-1.44,1-1.44h49c.55,0,1,.64,1,1.44V-107c0,.8-.45,1.45-1,1.45"/></clipPath><clipPath id="clip-path-20"><path class="cls-1" d="M-95.67-113.25a5.1,5.1,0,0,1-5.1,5.1,5.1,5.1,0,0,1-5.1-5.1,5.1,5.1,0,0,1,5.1-5.1,5.1,5.1,0,0,1,5.1,5.1"/></clipPath><clipPath id="clip-path-21"><path class="cls-1" d="M-143.2-94.55h-47.75A1.55,1.55,0,0,1-192.57-96v-13.26a1.54,1.54,0,0,1,1.62-1.44h47.75a1.54,1.54,0,0,1,1.63,1.44V-96a1.55,1.55,0,0,1-1.63,1.45"/></clipPath><clipPath id="clip-path-22"><path class="cls-1" d="M-178.12-102.2a5.1,5.1,0,0,1-5.1,5.1,5.1,5.1,0,0,1-5.1-5.1,5.1,5.1,0,0,1,5.1-5.1,5.1,5.1,0,0,1,5.1,5.1"/></clipPath><clipPath id="clip-path-23"><path class="cls-1" d="M-120.63-80.95A1.42,1.42,0,0,1-122-82.4V-95.66a1.41,1.41,0,0,1,1.39-1.44h48.22A1.42,1.42,0,0,1-71-95.66V-82.4a1.43,1.43,0,0,1-1.39,1.45Z"/></clipPath><clipPath id="clip-path-24"><path class="cls-1" d="M-107.57-88.6a5.1,5.1,0,0,1-5.1,5.1,5.1,5.1,0,0,1-5.1-5.1,5.1,5.1,0,0,1,5.1-5.1,5.1,5.1,0,0,1,5.1,5.1"/></clipPath><clipPath id="clip-path-25"><path class="cls-1" d="M39.29,108c2.73-.17,5.46-.28,8.2-.39l4.1-.13,4.1-.1c1.37,0,2.73,0,4.1-.08l4.1,0,4.1,0c1.37,0,2.73,0,4.1,0,5.47,0,10.93,0,16.4.14s10.94.25,16.4.54c.22,0,.4.29.39.61s-.18.56-.39.57c-5.46.29-10.93.44-16.4.54s-10.93.14-16.4.14c-1.37,0-2.73,0-4.1,0l-4.1,0-4.1-.06c-1.37,0-2.73,0-4.1-.08l-4.1-.1-4.1-.13c-2.74-.11-5.47-.21-8.2-.39-.18,0-.32-.24-.31-.5s.14-.44.31-.46"/></clipPath><clipPath id="clip-path-26"><rect class="cls-3" x="-420.02" y="-1475.45" width="1224" height="2239.75"/></clipPath><clipPath id="clip-path-27"><circle class="cls-3" cx="74.47" cy="43.1" r="12.32"/></clipPath><clipPath id="clip-path-28"><path class="cls-1" d="M38.27-52.77c2.73-.18,5.46-.28,8.2-.39l4.1-.13,4.1-.1c1.36,0,2.73-.06,4.1-.08l4.1-.06,4.1,0c1.37,0,2.73,0,4.1,0,5.47,0,10.93,0,16.4.14s10.93.25,16.4.54c.22,0,.39.28.39.61s-.18.56-.39.57c-5.47.29-10.93.43-16.4.54S76.54-51,71.07-51c-1.37,0-2.73,0-4.1,0l-4.1,0-4.1,0c-1.37,0-2.74,0-4.1-.08l-4.1-.1-4.1-.13c-2.74-.11-5.47-.22-8.2-.39-.18,0-.32-.24-.31-.5s.14-.45.31-.46"/></clipPath><clipPath id="clip-path-29"><path class="cls-1" d="M116.56-106.59H28.36a2.64,2.64,0,0,1-2.63-2.64v-33.22a2.64,2.64,0,0,1,2.63-2.64h88.2a2.64,2.64,0,0,1,2.63,2.64v33.22a2.64,2.64,0,0,1-2.63,2.64"/></clipPath><clipPath id="clip-path-30"><path class="cls-1" d="M116.56-60.65H28.36a2.64,2.64,0,0,1-2.63-2.64V-96.51a2.64,2.64,0,0,1,2.63-2.64h88.2a2.64,2.64,0,0,1,2.63,2.64v33.22a2.64,2.64,0,0,1-2.63,2.64"/></clipPath><clipPath id="clip-path-31"><path class="cls-1" d="M113.45-79.7A14.5,14.5,0,0,1,99-65.19,14.5,14.5,0,0,1,84.47-79.7,14.51,14.51,0,0,1,99-94.22,14.51,14.51,0,0,1,113.45-79.7"/></clipPath><clipPath id="clip-path-32"><path class="cls-1" d="M77.52-91.06a2.38,2.38,0,0,1-3.34,1.36c-1.39-.5-1.9-1.13-1.23-3s1.46-1.92,2.85-1.42,2.28,1.53,1.72,3.08"/></clipPath><clipPath id="clip-path-33"><path class="cls-1" d="M75.82-91.7a6.19,6.19,0,0,1,1.36-2.72c.3-.36.81-1,1.34-.93s.59.77.27,1.15a5.08,5.08,0,0,0-1.15,2.59,1,1,0,0,1-.82.94.92.92,0,0,1-1-1"/></clipPath><clipPath id="clip-path-34"><path class="cls-1" d="M97.33-71,81-74.19l-.41-.08a2.48,2.48,0,0,1-1.86-1.65L74.12-90.49l2.65-1.14L83-79.8h0l15.38,1.3Z"/></clipPath><clipPath id="clip-path-35"><path class="cls-1" d="M88.81-72.6l7.52,1.69a4.26,4.26,0,0,0,4.52-2.93c.73-2.24,2.07-3.53-.17-4.26-.79-.25-1.73-1-2.48-.76l-8.8-.5Z"/></clipPath><clipPath id="clip-path-36"><ellipse class="cls-3" cx="98.98" cy="-79.67" rx="14.49" ry="14.51"/></clipPath><clipPath id="clip-path-37"><path class="cls-1" d="M84.48-79.67A14.51,14.51,0,0,0,99-65.15a14.51,14.51,0,0,0,14.49-14.52A14.5,14.5,0,0,0,99-94.18a14.51,14.51,0,0,0-14.5,14.51"/></clipPath><clipPath id="clip-path-41"><polygon class="cls-1" points="102.12 -77.44 95.99 -77.89 97.58 -86.45 102.3 -87.15 102.12 -77.44"/></clipPath><clipPath id="clip-path-42"><path class="cls-1" d="M96.38-80c.65-.25,4.89-1.7,6.6-3.85l-6.16,1.47Z"/></clipPath><clipPath id="clip-path-43"><path class="cls-1" d="M106.94-86.57a6,6,0,0,1-2.85,2.67c-.84.37-1.08,1.13-2,1.38-1.43.41-4.33,1-5.21.76-1.27-.3-2.72-.78-3.09-1.66a3.27,3.27,0,0,1-.09-1.6,12.44,12.44,0,0,1,.57-2.28,34.6,34.6,0,0,1,2.1-4.86c1.54-2.91,5.54-3.83,8.46-2.29s3.62,5,2.08,7.88"/></clipPath><clipPath id="clip-path-44"><path class="cls-1" d="M101.14-84.72s-1.25,2.37-5.87,2.46a11.13,11.13,0,0,0,1.64.5c.86.21,3.7-.33,5.14-.74Z"/></clipPath><clipPath id="clip-path-45"><path class="cls-1" d="M96.11-91.37l-2.49,2.45a.54.54,0,0,0,0,.79l.88.7Z"/></clipPath><clipPath id="clip-path-46"><path class="cls-1" d="M98.91-94.66l2.19,1.16s2.21.71.56,2.85a2.39,2.39,0,0,0-2.12,3l1.25,2.53s.19,2,1.28,2.71a8.58,8.58,0,0,0,5.4-4.53c1.83-3.46.12-6.42-2.74-7.93a5.41,5.41,0,0,0-5.82.26"/></clipPath><clipPath id="clip-path-47"><path class="cls-1" d="M101.94-86.1a1.63,1.63,0,0,1-2.18.8,1.79,1.79,0,0,1-.22-2.4,1.63,1.63,0,0,1,2.18-.8,1.77,1.77,0,0,1,.22,2.4"/></clipPath><clipPath id="clip-path-48"><path class="cls-1" d="M60-125.68a14.5,14.5,0,0,1-14.48,14.51A14.5,14.5,0,0,1,31-125.68a14.49,14.49,0,0,1,14.49-14.51A14.49,14.49,0,0,1,60-125.68"/></clipPath><clipPath id="clip-path-49"><path class="cls-1" d="M49.73-123,60.16-117h0l10.41-5.38,1.05,1.69-10.44,7.77a1.76,1.76,0,0,1-1.79.19l-.24-.11-11.88-5.42Z"/></clipPath><clipPath id="clip-path-50"><path class="cls-1" d="M50-116.79l3.14,1.29,2.2-4.38-4.15-2.61a18.12,18.12,0,0,0-2.73-1.45Z"/></clipPath><clipPath id="clip-path-51"><path class="cls-1" d="M69-121s-1.58-3.31-.92-3.68c.5-.27,1.3,1.3,1.3,1.3Z"/></clipPath><clipPath id="clip-path-52"><path class="cls-1" d="M70.38-126.51c-1,1-1.55,5.71-1.55,5.71l2.14.61.17,0a2,2,0,0,0,1.19-1.68,13.5,13.5,0,0,1,.7-3.55c.5-1.35-1.68-2-2.65-1"/></clipPath><clipPath id="clip-path-53"><path class="cls-1" d="M31-125.68a14.51,14.51,0,0,0,14.5,14.52A14.51,14.51,0,0,0,60-125.68a14.51,14.51,0,0,0-14.5-14.52A14.51,14.51,0,0,0,31-125.68"/></clipPath><clipPath id="clip-path-54"><path class="cls-1" d="M31-125.68a14.51,14.51,0,0,0,14.5,14.52A14.51,14.51,0,0,0,60-125.68a14.51,14.51,0,0,0-14.5-14.52A14.51,14.51,0,0,0,31-125.68Z"/></clipPath><clipPath id="clip-path-58"><polygon class="cls-1" points="42.07 -123.23 46.84 -122 47.96 -129.41 44.59 -131.17 42.07 -123.23"/></clipPath><clipPath id="clip-path-59"><path class="cls-1" d="M47.94-129.24l-.14-.25-2.74-1.43-.56,0-.32,1s.52,4.46,2.89,6.37Z"/></clipPath><clipPath id="clip-path-60"><path class="cls-1" d="M43.35-136.08c-.52-.14-.36-.68-1.15-.57s-1.51.63-1.39,2.54a12.22,12.22,0,0,0,.51,2.13,5.45,5.45,0,0,1,.17,3.12,3.2,3.2,0,0,1-1,1.46c-.76.63-.6.23-.52-.47.26-2.49-1.8-4.37-2.36-6.69-.45-1.92.18-4.55,2.35-5.1a3.1,3.1,0,0,1,3.17,1.41,3.27,3.27,0,0,1,.69,1.54c0,.33-.23.41-.51.63"/></clipPath><clipPath id="clip-path-61"><path class="cls-1" d="M42.62-135.94l-.15-.19a.85.85,0,0,1,0-1l.35-.56a.83.83,0,0,1,.87-.37l.24,0a.4.4,0,0,1,.25.6L43.27-136a.4.4,0,0,1-.65,0"/></clipPath><clipPath id="clip-path-62"><path class="cls-1" d="M42.93-135.4a5.41,5.41,0,0,0,0,3.6,19.45,19.45,0,0,0,1.37,2.11c.65,1.21,1.12,3.42,1.8,3.91,1,.74,2.12,1.53,2.94,1.18,1.75-.75,3.8-5.9,4.28-7.36,1-2.88-1-5.8-3.9-6.75a5,5,0,0,0-6.54,3.31"/></clipPath><clipPath id="clip-path-63"><path class="cls-1" d="M52.75-131l-1.39,3.62h.94a.54.54,0,0,0,.54-.6,18.56,18.56,0,0,1-.09-3"/></clipPath><clipPath id="clip-path-64"><path class="cls-1" d="M44.85-129l-.22-.08c.51,1.24.94,2.91,1.52,3.33.91.65,1.86,1.34,2.64,1.25a7.22,7.22,0,0,1-3.94-4.5"/></clipPath><clipPath id="clip-path-65"><path class="cls-1" d="M53.44-135.17a5.29,5.29,0,0,0-3-1.18c-1.31,0-2.94.48-2,4.33,0,0-2.7,3.72-4.69,3.76-1-.56-2.27-5.14-1.06-7.92s3.46-4.35,6.65-3.3a5.56,5.56,0,0,1,4.09,4.31"/></clipPath><clipPath id="clip-path-66"><path class="cls-1" d="M45.8-131.78a1.51,1.51,0,0,0,.87,2,1.64,1.64,0,0,0,1.73-1.38,1.5,1.5,0,0,0-.86-2,1.64,1.64,0,0,0-1.74,1.38"/></clipPath><clipPath id="clip-path-67"><path class="cls-1" d="M40.45-115.28a4.54,4.54,0,0,1-4.54,4.55,4.54,4.54,0,0,1-4.54-4.55,4.54,4.54,0,0,1,4.54-4.54,4.54,4.54,0,0,1,4.54,4.54"/></clipPath><clipPath id="clip-path-68"><path class="cls-1" d="M34.27-113.06l-1-1a.61.61,0,0,1,0-.85.61.61,0,0,1,.85,0l.59.59,2.89-2.89a.61.61,0,0,1,.85,0,.61.61,0,0,1,0,.85l-3.25,3.25a.69.69,0,0,1-1,0"/></clipPath><clipPath id="clip-path-69"><path class="cls-1" d="M112.77-69.33a4.55,4.55,0,0,1-4.54,4.55,4.55,4.55,0,0,1-4.54-4.55,4.55,4.55,0,0,1,4.54-4.55,4.55,4.55,0,0,1,4.54,4.55"/></clipPath><clipPath id="clip-path-70"><path class="cls-1" d="M110.4-68.15l-1.17-1.18,1.17-1.18a.66.66,0,0,0,0-.94.66.66,0,0,0-.94,0l-1.17,1.18-1.18-1.18a.66.66,0,0,0-.94,0,.66.66,0,0,0,0,.94l1.17,1.18-1.17,1.18a.66.66,0,0,0,0,.94.66.66,0,0,0,.94,0l1.18-1.18,1.17,1.18a.66.66,0,0,0,.94,0,.66.66,0,0,0,0-.94"/></clipPath></defs><title>time-clock-app</title><g class="cls-28"><g class="cls-29"><g class="cls-30"><rect class="cls-31" x="34.73" y="103" width="74.8" height="11.05"/></g></g></g><rect class="cls-32" x="17.29" y="20.67" width="107.02" height="74.98" rx="5.27"/><rect class="cls-33" x="20.39" y="23.52" width="95.07" height="69.05" rx="2.94"/><circle class="cls-34" cx="119.72" cy="58.04" r="2.68"/><path class="cls-35" d="M119.72,59.33A1.29,1.29,0,1,1,121,58,1.29,1.29,0,0,1,119.72,59.33Zm0-2.14a.85.85,0,1,0,.85.85A.85.85,0,0,0,119.72,57.19Z"/><path class="cls-36" d="M27.14,19.84h5.54a.83.83,0,0,1,.83.83v0a0,0,0,0,1,0,0H26.31a0,0,0,0,1,0,0v0A.83.83,0,0,1,27.14,19.84Z"/><path class="cls-36" d="M36.16,19.84h5.54a.83.83,0,0,1,.83.83v0a0,0,0,0,1,0,0H35.33a0,0,0,0,1,0,0v0A.83.83,0,0,1,36.16,19.84Z"/><rect class="cls-36" x="18.38" y="28.06" width="1" height="5.61" rx="0.5"/><path class="cls-37" d="M22.93,23.52H33.52a0,0,0,0,1,0,0V92.57a0,0,0,0,1,0,0H22.93A2.54,2.54,0,0,1,20.39,90v-64A2.54,2.54,0,0,1,22.93,23.52Z"/><rect class="cls-38" x="24.88" y="38.29" width="4.6" height="4.6" rx="1.73"/><rect class="cls-38" x="24.88" y="55.58" width="4.6" height="4.6" rx="1.73"/><rect class="cls-38" x="24.88" y="72.88" width="4.6" height="4.6" rx="1.73"/><path class="cls-32" d="M94.79,63.29H53.13a.92.92,0,1,1,0-1.83H94.79a.92.92,0,0,1,0,1.83Z"/><path class="cls-32" d="M86.86,69H61.4a.92.92,0,0,1,0-1.83H86.86a.92.92,0,0,1,0,1.83Z"/><rect class="cls-39" x="44.96" y="76.69" width="27.98" height="7.57" rx="3.78"/><rect class="cls-40" x="75.99" y="76.69" width="27.98" height="7.57" rx="3.78"/><g class="cls-41"><rect class="cls-37" x="61.66" y="29.74" width="26.09" height="27.39"/><path class="cls-42" d="M68.52,40.63s.42,4.15-.27,5.53c-1,2-2.2,3.84-2.2,6.07,0,3.38,15.81.9,15.81.9s.67.68-.71-3.58a23.85,23.85,0,0,1-.91-8.71Z"/><path class="cls-43" d="M66.35,52.93a21,21,0,0,1,8.12-1.66,18.34,18.34,0,0,1,8.19,2s-2,2.14-8.09,2.32C68.73,55.8,66.35,52.93,66.35,52.93Z"/><polygon class="cls-44" points="76.28 45.29 72.66 45.29 71.96 52.47 76.97 52.47 76.28 45.29"/><path class="cls-45" d="M76.28,45.29H72.65l-.37,3.81.09.09a2.77,2.77,0,0,0,4.19,0l.09-.09Z"/><path class="cls-44" d="M80.06,40.32a10.31,10.31,0,0,1-3.25,7.45,3.45,3.45,0,0,1-4.69,0,10.35,10.35,0,0,1-3.25-7.45,5.54,5.54,0,0,1,5.6-5.88C77.9,34.44,80.06,37.08,80.06,40.32Z"/><path class="cls-42" d="M74.21,33.7c-5.7.1-5.69,6.93-5.69,6.93a27.76,27.76,0,0,1-.27,5.53c.32-.41,2.42,2.56,2.27,1.08-.41-4.07.12-6.2.9-6.66a14.37,14.37,0,0,0,6.44-2.4c1.17,2.53.69,8.51.68,9.71,0,0,1.47-5.39,1.7-7C80.24,40.84,80.65,33.59,74.21,33.7Z"/><path class="cls-44" d="M78,52.13a3.92,3.92,0,0,1-7.27,0c0-.4,1.63-.72,3.64-.72S78,51.73,78,52.13Z"/></g></svg>